Charis-Italic.ufo
<glyph name="Asterisk" format="2">
  <advance width="1024"/>
  <unicode hex="002A"/>
  <outline>
    <contour>
      <point x="1044" y="1167" type="line"/>
      <point x="899" y="1210" type="line"/>
      <point x="680" y="1065" type="line"/>
      <point x="688" y="1036" type="line"/>
      <point x="952" y="1051" type="line"/>
    </contour>
    <contour>
      <point x="727" y="1341" type="line"/>
      <point x="641" y="1466" type="line"/>
      <point x="557" y="1341" type="line"/>
      <point x="629" y="1085" type="line"/>
      <point x="655" y="1085" type="line"/>
    </contour>
    <contour>
      <point x="891" y="690" type="line"/>
      <point x="887" y="842" type="line"/>
      <point x="680" y="1008" type="line"/>
      <point x="653" y="989" type="line"/>
      <point x="748" y="743" type="line"/>
    </contour>
    <contour>
      <point x="604" y="1065" type="line"/>
      <point x="383" y="1210" type="line"/>
      <point x="240" y="1167" type="line"/>
      <point x="332" y="1051" type="line"/>
      <point x="598" y="1036" type="line"/>
    </contour>
    <contour>
      <point x="631" y="989" type="line"/>
      <point x="604" y="1008" type="line"/>
      <point x="397" y="842" type="line"/>
      <point x="393" y="690" type="line"/>
      <point x="537" y="743" type="line"/>
    </contour>
  </outline>
</glyph>
<glyph name="PlusSgn" format="2">
  <advance width="2048"/>
  <unicode hex="002B"/>
  <outline>
    <contour>
      <point x="1638" y="551" type="line"/>
      <point x="1638" y="678" type="line"/>
      <point x="1087" y="678" type="line"/>
      <point x="1087" y="1229" type="line"/>
      <point x="961" y="1229" type="line"/>
      <point x="961" y="678" type="line"/>
      <point x="410" y="678" type="line"/>
      <point x="410" y="551" type="line"/>
      <point x="961" y="551" type="line"/>
      <point x="961" y="0" type="line"/>
      <point x="1087" y="0" type="line"/>
      <point x="1087" y="551" type="line"/>
    </contour>
  </outline>
</glyph>
<glyph name="HyphenMinus" format="2">
  <advance width="653"/>
  <unicode hex="002D"/>
  <anchor x="444" y="1100" name="U"/>
  <outline>
    <contour>
      <point x="580" y="563" type="line"/>
      <point x="88" y="563" type="line"/>
      <point x="61" y="424" type="line"/>
      <point x="553" y="424" type="line"/>
    </contour>
  </outline>
</glyph>
<glyph name="DigitZero" format="2">
  <advance width="1139"/>
  <unicode hex="0030"/>
  <anchor x="439" y="-100" name="L"/>
  <anchor x="727" y="1500" name="U"/>
  <outline>
    <contour>
      <point x="1128" y="946" type="curve" smooth="yes"/>
      <point x="1128" y="1206"/>
      <point x="1006" y="1407"/>
      <point x="735" y="1407" type="curve" smooth="yes"/>
      <point x="293" y="1407"/>
      <point x="70" y="858"/>
      <point x="70" y="426" type="curve" smooth="yes"/>
      <point x="70" y="135"/>
      <point x="213" y="-33"/>
      <point x="467" y="-33" type="curve" smooth="yes"/>
      <point x="870" y="-33"/>
      <point x="1128" y="467"/>
    </contour>
    <contour>
      <point x="907" y="981" type="curve" smooth="yes"/>
      <point x="907" y="596"/>
      <point x="729" y="74"/>
      <point x="487" y="74" type="curve" smooth="yes"/>
      <point x="412" y="74"/>
      <point x="293" y="113"/>
      <point x="293" y="393" type="curve" smooth="yes"/>
      <point x="293" y="776"/>
      <point x="461" y="1303"/>
      <point x="715" y="1303" type="curve" smooth="yes"/>
      <point x="821" y="1303"/>
      <point x="907" y="1204"/>
    </contour>
  </outline>
</glyph>
<glyph name="DigitOne" format="2">
  <advance width="1139"/>
  <unicode hex="0031"/>
  <anchor x="453" y="-100" name="L"/>
  <anchor x="741" y="1500" name="U"/>
  <outline>
    <contour>
      <point x="866" y="1407" type="line"/>
      <point x="791" y="1407" type="line"/>
      <point x="305" y="1270" type="line"/>
      <point x="305" y="1178" type="line"/>
      <point x="627" y="1219" type="line"/>
      <point x="418" y="147" type="line" smooth="yes"/>
      <point x="414" y="127"/>
      <point x="401" y="109"/>
      <point x="379" y="106" type="curve" smooth="yes"/>
      <point x="172" y="96" type="line"/>
      <point x="172" y="0" type="line"/>
      <point x="815" y="0" type="line"/>
      <point x="815" y="96" type="line"/>
      <point x="662" y="106" type="line" smooth="yes"/>
      <point x="629" y="109"/>
      <point x="618" y="125"/>
      <point x="623" y="147" type="curve" smooth="yes"/>
    </contour>
  </outline>
</glyph>
<glyph name="DigitThree" format="2">
  <advance width="1139"/>
  <unicode hex="0033"/>
  <anchor x="430" y="-100" name="L"/>
  <anchor x="718" y="1500" name="U"/>
  <outline>
    <contour>
      <point x="1096" y="1116" type="curve" smooth="yes"/>
      <point x="1096" y="1305"/>
      <point x="961" y="1407"/>
      <point x="725" y="1407" type="curve" smooth="yes"/>
      <point x="479" y="1407"/>
      <point x="225" y="1282"/>
      <point x="225" y="1118" type="curve" smooth="yes"/>
      <point x="225" y="1051"/>
      <point x="281" y="1018"/>
      <point x="332" y="1018" type="curve" smooth="yes"/>
      <point x="369" y="1018"/>
      <point x="426" y="1037"/>
      <point x="444" y="1044" type="curve"/>
      <point x="475" y="1239" type="line"/>
      <point x="502" y="1260"/>
      <point x="569" y="1303"/>
      <point x="657" y="1303" type="curve" smooth="yes"/>
      <point x="737" y="1303"/>
      <point x="864" y="1249"/>
      <point x="864" y="1090" type="curve" smooth="yes"/>
      <point x="864" y="909"/>
      <point x="705" y="771"/>
      <point x="461" y="771" type="curve" smooth="yes"/>
      <point x="451" y="771"/>
      <point x="440" y="771"/>
      <point x="430" y="772" type="curve"/>
      <point x="412" y="645" type="line"/>
      <point x="459" y="653"/>
      <point x="504" y="659"/>
      <point x="555" y="659" type="curve" smooth="yes"/>
      <point x="629" y="659"/>
      <point x="784" y="631"/>
      <point x="784" y="438" type="curve" smooth="yes"/>
      <point x="784" y="233"/>
      <point x="616" y="72"/>
      <point x="418" y="72" type="curve" smooth="yes"/>
      <point x="342" y="72"/>
      <point x="283" y="106"/>
      <point x="264" y="119" type="curve"/>
      <point x="233" y="293" type="line"/>
      <point x="209" y="303"/>
      <point x="178" y="311"/>
      <point x="143" y="311" type="curve" smooth="yes"/>
      <point x="47" y="311"/>
      <point x="16" y="231"/>
      <point x="16" y="193" type="curve" smooth="yes"/>
      <point x="16" y="102"/>
      <point x="117" y="-33"/>
      <point x="395" y="-33" type="curve" smooth="yes"/>
      <point x="745" y="-33"/>
      <point x="1012" y="209"/>
      <point x="1012" y="469" type="curve" smooth="yes"/>
      <point x="1012" y="631"/>
      <point x="897" y="707"/>
      <point x="719" y="733" type="curve"/>
      <point x="979" y="813"/>
      <point x="1096" y="971"/>
    </contour>
  </outline>
</glyph>
<glyph name="GTSgn" format="2">
  <advance width="2048"/>
  <unicode hex="003E"/>
  <outline>
    <contour>
      <point x="1638" y="551" type="line"/>
      <point x="1638" y="678" type="line"/>
      <point x="410" y="1149" type="line"/>
      <point x="410" y="1022" type="line"/>
      <point x="1507" y="614" type="line"/>
      <point x="410" y="207" type="line"/>
      <point x="410" y="80" type="line"/>
    </contour>
  </outline>
</glyph>
<glyph name="LtnCapF" format="2">
  <advance width="1053"/>
  <unicode hex="0046"/>
  <anchor x="398" y="-100" name="L"/>
  <anchor x="686" y="1500" name="U"/>
  <outline>
    <contour>
      <point x="-31" y="0" type="line"/>
      <point x="516" y="0" type="line"/>
      <point x="516" y="86" type="line"/>
      <point x="383" y="96" type="line" smooth="yes"/>
      <point x="348" y="98"/>
      <point x="340" y="115"/>
      <point x="344" y="135" type="curve" smooth="yes"/>
      <point x="442" y="641" type="line"/>
      <point x="702" y="641" type="line" smooth="yes"/>
      <point x="731" y="641"/>
      <point x="748" y="627"/>
      <point x="743" y="600" type="curve" smooth="yes"/>
      <point x="723" y="457" type="line"/>
      <point x="840" y="457" type="line"/>
      <point x="930" y="924" type="line"/>
      <point x="813" y="924" type="line"/>
      <point x="774" y="784" type="line"/>
      <point x="768" y="756"/>
      <point x="754" y="745"/>
      <point x="725" y="745" type="curve" smooth="yes"/>
      <point x="463" y="745" type="line"/>
      <point x="563" y="1272" type="line"/>
      <point x="930" y="1272" type="line" smooth="yes"/>
      <point x="961" y="1272"/>
      <point x="971" y="1262"/>
      <point x="971" y="1233" type="curve" smooth="yes"/>
      <point x="971" y="1044" type="line"/>
      <point x="1102" y="1044" type="line"/>
      <point x="1165" y="1374" type="line"/>
      <point x="195" y="1374" type="line"/>
      <point x="195" y="1288" type="line"/>
      <point x="309" y="1278" type="line" smooth="yes"/>
      <point x="346" y="1276"/>
      <point x="354" y="1260"/>
      <point x="350" y="1237" type="curve" smooth="yes"/>
      <point x="137" y="135" type="line"/>
      <point x="131" y="111"/>
      <point x="113" y="98"/>
      <point x="86" y="96" type="curve" smooth="yes"/>
      <point x="-31" y="86" type="line"/>
    </contour>
  </outline>
</glyph>
<glyph name="LtnCapH" format="2">
  <advance width="1485"/>
  <unicode hex="0048"/>
  <anchor x="209" y="0" name="H"/>
  <anchor x="620" y="-100" name="L"/>
  <anchor x="908" y="1500" name="U"/>
  <outline>
    <contour>
      <point x="-31" y="0" type="line"/>
      <point x="502" y="0" type="line"/>
      <point x="502" y="86" type="line"/>
      <point x="383" y="96" type="line" smooth="yes"/>
      <point x="348" y="98"/>
      <point x="340" y="115"/>
      <point x="344" y="135" type="curve" smooth="yes"/>
      <point x="446" y="668" type="line"/>
      <point x="1085" y="668" type="line"/>
      <point x="983" y="135" type="line" smooth="yes"/>
      <point x="979" y="111"/>
      <point x="958" y="98"/>
      <point x="934" y="96" type="curve" smooth="yes"/>
      <point x="811" y="86" type="line"/>
      <point x="811" y="0" type="line"/>
      <point x="1346" y="0" type="line"/>
      <point x="1346" y="86" type="line"/>
      <point x="1231" y="96" type="line" smooth="yes"/>
      <point x="1194" y="98"/>
      <point x="1186" y="115"/>
      <point x="1190" y="135" type="curve" smooth="yes"/>
      <point x="1403" y="1237" type="line" smooth="yes"/>
      <point x="1409" y="1264"/>
      <point x="1427" y="1276"/>
      <point x="1452" y="1278" type="curve" smooth="yes"/>
      <point x="1571" y="1288" type="line"/>
      <point x="1571" y="1374" type="line"/>
      <point x="1038" y="1374" type="line"/>
      <point x="1038" y="1288" type="line"/>
      <point x="1155" y="1278" type="line" smooth="yes"/>
      <point x="1192" y="1276"/>
      <point x="1200" y="1260"/>
      <point x="1196" y="1237" type="curve" smooth="yes"/>
      <point x="1106" y="770" type="line"/>
      <point x="467" y="770" type="line"/>
      <point x="557" y="1237" type="line" smooth="yes"/>
      <point x="561" y="1264"/>
      <point x="582" y="1276"/>
      <point x="606" y="1278" type="curve" smooth="yes"/>
      <point x="727" y="1288" type="line"/>
      <point x="727" y="1374" type="line"/>
      <point x="195" y="1374" type="line"/>
      <point x="195" y="1288" type="line"/>
      <point x="309" y="1278" type="line" smooth="yes"/>
      <point x="346" y="1276"/>
      <point x="354" y="1260"/>
      <point x="350" y="1237" type="curve" smooth="yes"/>
      <point x="137" y="135" type="line"/>
      <point x="131" y="111"/>
      <point x="113" y="98"/>
      <point x="86" y="96" type="curve" smooth="yes"/>
      <point x="-31" y="86" type="line"/>
    </contour>
  </outline>
</glyph>
<glyph name="LtnCapJ" format="2">
  <advance width="958"/>
  <unicode hex="004A"/>
  <anchor x="272" y="-100" name="L"/>
  <anchor x="556" y="54" name="O"/>
  <anchor x="810" y="1500" name="U"/>
  <outline>
    <contour>
      <point x="229" y="-33" type="curve" smooth="yes"/>
      <point x="580" y="-33"/>
      <point x="678" y="186"/>
      <point x="739" y="524" type="curve" smooth="yes"/>
      <point x="870" y="1237" type="line" smooth="yes"/>
      <point x="877" y="1264"/>
      <point x="895" y="1276"/>
      <point x="922" y="1278" type="curve" smooth="yes"/>
      <point x="1038" y="1288" type="line"/>
      <point x="1038" y="1374" type="line"/>
      <point x="506" y="1374" type="line"/>
      <point x="506" y="1288" type="line"/>
      <point x="625" y="1278" type="line" smooth="yes"/>
      <point x="659" y="1276"/>
      <point x="668" y="1260"/>
      <point x="664" y="1237" type="curve" smooth="yes"/>
      <point x="528" y="506" type="line" smooth="yes"/>
      <point x="479" y="231"/>
      <point x="418" y="74"/>
      <point x="244" y="74" type="curve" smooth="yes"/>
      <point x="201" y="74"/>
      <point x="162" y="94"/>
      <point x="162" y="129" type="curve" smooth="yes"/>
      <point x="162" y="379" type="line"/>
      <point x="27" y="379" type="line"/>
      <point x="-41" y="29" type="line"/>
      <point x="-20" y="18"/>
      <point x="68" y="-33"/>
    </contour>
  </outline>
</glyph>
<glyph name="LtnCapS" format="2">
  <advance width="1067"/>
  <unicode hex="0053"/>
  <anchor x="439" y="0" name="H"/>
  <anchor x="419" y="-100" name="L"/>
  <anchor x="727" y="1500" name="U"/>
  <outline>
    <contour>
      <point x="1051" y="1333" type="line"/>
      <point x="1024" y="1346"/>
      <point x="889" y="1407"/>
      <point x="705" y="1407" type="curve" smooth="yes"/>
      <point x="399" y="1407"/>
      <point x="172" y="1231"/>
      <point x="172" y="958" type="curve" smooth="yes"/>
      <point x="172" y="795"/>
      <point x="311" y="713"/>
      <point x="455" y="639" type="curve" smooth="yes"/>
      <point x="628" y="550"/>
      <point x="743" y="489"/>
      <point x="743" y="373" type="curve" smooth="yes"/>
      <point x="743" y="186"/>
      <point x="588" y="74"/>
      <point x="412" y="74" type="curve" smooth="yes"/>
      <point x="385" y="74"/>
      <point x="171" y="119"/>
      <point x="176" y="168" type="curve" smooth="yes"/>
      <point x="199" y="403" type="line"/>
      <point x="59" y="403" type="line"/>
      <point x="-10" y="74" type="line"/>
      <point x="20" y="56"/>
      <point x="174" y="-33"/>
      <point x="385" y="-33" type="curve" smooth="yes"/>
      <point x="803" y="-33"/>
      <point x="956" y="223"/>
      <point x="956" y="420" type="curve" smooth="yes"/>
      <point x="956" y="598"/>
      <point x="803" y="695"/>
      <point x="670" y="756" type="curve" smooth="yes"/>
      <point x="512" y="828"/>
      <point x="381" y="897"/>
      <point x="381" y="1026" type="curve" smooth="yes"/>
      <point x="381" y="1188"/>
      <point x="530" y="1307"/>
      <point x="688" y="1307" type="curve" smooth="yes"/>
      <point x="786" y="1307"/>
      <point x="873" y="1253"/>
      <point x="872" y="1227" type="curve" smooth="yes"/>
      <point x="864" y="1020" type="line"/>
      <point x="985" y="1020" type="line"/>
    </contour>
  </outline>
</glyph>
<glyph name="LtnCapT" format="2">
  <advance width="1200"/>
  <unicode hex="0054"/>
  <anchor x="500" y="0" name="H"/>
  <anchor x="480" y="-100" name="L"/>
  <anchor x="768" y="1500" name="U"/>
  <outline>
    <contour>
      <point x="254" y="0" type="line"/>
      <point x="786" y="0" type="line"/>
      <point x="786" y="86" type="line"/>
      <point x="670" y="96" type="line" smooth="yes"/>
      <point x="633" y="98"/>
      <point x="625" y="115"/>
      <point x="629" y="135" type="curve" smooth="yes"/>
      <point x="842" y="1282" type="line"/>
      <point x="1106" y="1282" type="line" smooth="yes"/>
      <point x="1135" y="1282"/>
      <point x="1147" y="1270"/>
      <point x="1145" y="1241" type="curve" smooth="yes"/>
      <point x="1137" y="1061" type="line"/>
      <point x="1266" y="1061" type="line"/>
      <point x="1329" y="1374" type="line"/>
      <point x="195" y="1374" type="line"/>
      <point x="135" y="1061" type="line"/>
      <point x="264" y="1061" type="line"/>
      <point x="328" y="1241" type="line" smooth="yes"/>
      <point x="336" y="1268"/>
      <point x="354" y="1282"/>
      <point x="379" y="1282" type="curve" smooth="yes"/>
      <point x="635" y="1282" type="line"/>
      <point x="422" y="135" type="line" smooth="yes"/>
      <point x="418" y="111"/>
      <point x="397" y="98"/>
      <point x="373" y="96" type="curve" smooth="yes"/>
      <point x="254" y="86" type="line"/>
    </contour>
  </outline>
</glyph>
<glyph name="LowLine" format="2">
  <advance width="622"/>
  <unicode hex="005F"/>
  <outline>
    <contour>
      <point x="488" y="-180" type="line"/>
      <point x="-131" y="-180" type="line"/>
      <point x="-160" y="-315" type="line"/>
      <point x="462" y="-315" type="line"/>
    </contour>
  </outline>
</glyph>
<glyph name="LtnSmB" format="2">
  <advance width="1008"/>
  <unicode hex="0062"/>
  <anchor x="366" y="0" name="H"/>
  <anchor x="346" y="-100" name="L"/>
  <anchor x="1008" y="1000" name="R"/>
  <anchor x="662" y="1540" name="U"/>
  <outline>
    <contour>
      <point x="942" y="635" type="curve" smooth="yes"/>
      <point x="942" y="805"/>
      <point x="870" y="1012"/>
      <point x="659" y="1012" type="curve" smooth="yes"/>
      <point x="561" y="1012"/>
      <point x="453" y="956"/>
      <point x="379" y="889" type="curve"/>
      <point x="496" y="1509" type="line"/>
      <point x="416" y="1509" type="line"/>
      <point x="96" y="1448" type="line"/>
      <point x="96" y="1386" type="line"/>
      <point x="279" y="1368" type="line"/>
      <point x="37" y="70" type="line"/>
      <point x="133" y="8"/>
      <point x="250" y="-25"/>
      <point x="365" y="-25" type="curve" smooth="yes"/>
      <point x="780" y="-25"/>
      <point x="942" y="381"/>
    </contour>
    <contour>
      <point x="739" y="627" type="curve" smooth="yes"/>
      <point x="739" y="381"/>
      <point x="598" y="72"/>
      <point x="410" y="72" type="curve" smooth="yes"/>
      <point x="336" y="72"/>
      <point x="268" y="113"/>
      <point x="242" y="152" type="curve"/>
      <point x="356" y="772" type="line"/>
      <point x="426" y="831"/>
      <point x="526" y="877"/>
      <point x="592" y="877" type="curve" smooth="yes"/>
      <point x="641" y="877"/>
      <point x="739" y="811"/>
    </contour>
  </outline>
</glyph>
<glyph name="LtnSmC" format="2">
  <advance width="891"/>
  <unicode hex="0063"/>
  <anchor x="406" y="0" name="H"/>
  <anchor x="380" y="-100" name="L"/>
  <anchor x="891" y="1000" name="R"/>
  <anchor x="615" y="1100" name="U"/>
  <outline>
    <contour>
      <point x="825" y="868" type="curve" smooth="yes"/>
      <point x="825" y="930"/>
      <point x="764" y="1012"/>
      <point x="616" y="1012" type="curve" smooth="yes"/>
      <point x="338" y="1012"/>
      <point x="66" y="723"/>
      <point x="66" y="356" type="curve" smooth="yes"/>
      <point x="66" y="113"/>
      <point x="186" y="-25"/>
      <point x="381" y="-25" type="curve" smooth="yes"/>
      <point x="563" y="-25"/>
      <point x="698" y="94"/>
      <point x="782" y="176" type="curve"/>
      <point x="782" y="305" type="line"/>
      <point x="666" y="190"/>
      <point x="551" y="109"/>
      <point x="442" y="109" type="curve" smooth="yes"/>
      <point x="307" y="109"/>
      <point x="260" y="248"/>
      <point x="260" y="381" type="curve" smooth="yes"/>
      <point x="260" y="545"/>
      <point x="330" y="883"/>
      <point x="551" y="893" type="curve"/>
      <point x="668" y="735" type="line"/>
      <point x="799" y="752"/>
      <point x="825" y="815"/>
    </contour>
  </outline>
</glyph>
<glyph name="LtnSmE" format="2">
  <advance width="889"/>
  <unicode hex="0065"/>
  <anchor x="377" y="0" name="H"/>
  <anchor x="396" y="-100" name="L"/>
  <anchor x="569" y="0" name="O"/>
  <anchor x="889" y="1000" name="R"/>
  <anchor x="600" y="1100" name="U"/>
  <outline>
    <contour>
      <point x="854" y="805" type="curve" smooth="yes"/>
      <point x="854" y="864"/>
      <point x="795" y="1010"/>
      <point x="606" y="1010" type="curve" smooth="yes"/>
      <point x="313" y="1010"/>
      <point x="66" y="672"/>
      <point x="66" y="348" type="curve" smooth="yes"/>
      <point x="66" y="37"/>
      <point x="266" y="-25"/>
      <point x="391" y="-25" type="curve" smooth="yes"/>
      <point x="578" y="-25"/>
      <point x="731" y="94"/>
      <point x="807" y="168" type="curve"/>
      <point x="807" y="297" type="line"/>
      <point x="657" y="166"/>
      <point x="551" y="98"/>
      <point x="459" y="98" type="curve" smooth="yes"/>
      <point x="340" y="98"/>
      <point x="264" y="207"/>
      <point x="264" y="356" type="curve" smooth="yes"/>
      <point x="264" y="381"/>
      <point x="268" y="424"/>
      <point x="272" y="451" type="curve"/>
      <point x="516" y="465"/>
      <point x="854" y="582"/>
    </contour>
    <contour>
      <point x="672" y="807" type="curve" smooth="yes"/>
      <point x="672" y="662"/>
      <point x="455" y="545"/>
      <point x="281" y="528" type="curve"/>
      <point x="317" y="684"/>
      <point x="426" y="915"/>
      <point x="561" y="915" type="curve" smooth="yes"/>
      <point x="629" y="915"/>
      <point x="672" y="860"/>
    </contour>
  </outline>
</glyph>
<glyph name="LtnSmR" format="2">
  <advance width="766"/>
  <unicode hex="0072"/>
  <anchor x="121" y="0" name="H"/>
  <anchor x="101" y="-100" name="L"/>
  <anchor x="500" y="1100" name="U"/>
  <outline>
    <contour>
      <point x="838" y="884" type="curve" smooth="yes"/>
      <point x="838" y="940"/>
      <point x="805" y="1012"/>
      <point x="707" y="1012" type="curve" smooth="yes"/>
      <point x="584" y="1012"/>
      <point x="475" y="934"/>
      <point x="391" y="805" type="curve"/>
      <point x="434" y="1012" type="line"/>
      <point x="352" y="1012" type="line"/>
      <point x="43" y="948" type="line"/>
      <point x="43" y="889" type="line"/>
      <point x="215" y="870" type="line"/>
      <point x="39" y="0" type="line"/>
      <point x="229" y="0" type="line"/>
      <point x="336" y="516" type="line" smooth="yes"/>
      <point x="361" y="635"/>
      <point x="506" y="821"/>
      <point x="606" y="864" type="curve"/>
      <point x="655" y="766" type="line"/>
      <point x="766" y="766"/>
      <point x="838" y="788"/>
    </contour>
  </outline>
</glyph>
<glyph name="LtnSmS" format="2">
  <advance width="758"/>
  <unicode hex="0073"/>
  <anchor x="278" y="0" name="H"/>
  <anchor x="258" y="-100" name="L"/>
  <anchor x="511" y="1100" name="U"/>
  <outline>
    <contour>
      <point x="715" y="883" type="curve" smooth="yes"/>
      <point x="715" y="932"/>
      <point x="662" y="1012"/>
      <point x="508" y="1012" type="curve" smooth="yes"/>
      <point x="340" y="1012"/>
      <point x="139" y="903"/>
      <point x="139" y="702" type="curve" smooth="yes"/>
      <point x="139" y="600"/>
      <point x="221" y="509"/>
      <point x="305" y="444" type="curve" smooth="yes"/>
      <point x="403" y="368"/>
      <point x="473" y="311"/>
      <point x="473" y="227" type="curve" smooth="yes"/>
      <point x="473" y="123"/>
      <point x="397" y="57"/>
      <point x="313" y="57" type="curve" smooth="yes"/>
      <point x="244" y="57"/>
      <point x="203" y="90"/>
      <point x="174" y="131" type="curve"/>
      <point x="213" y="231" type="line"/>
      <point x="199" y="244"/>
      <point x="156" y="274"/>
      <point x="106" y="274" type="curve" smooth="yes"/>
      <point x="23" y="274"/>
      <point x="-16" y="229"/>
      <point x="-16" y="164" type="curve" smooth="yes"/>
      <point x="-16" y="70"/>
      <point x="72" y="-25"/>
      <point x="270" y="-25" type="curve" smooth="yes"/>
      <point x="524" y="-25"/>
      <point x="662" y="129"/>
      <point x="662" y="297" type="curve" smooth="yes"/>
      <point x="662" y="397"/>
      <point x="574" y="475"/>
      <point x="485" y="547" type="curve" smooth="yes"/>
      <point x="398" y="617"/>
      <point x="303" y="696"/>
      <point x="303" y="770" type="curve" smooth="yes"/>
      <point x="303" y="823"/>
      <point x="334" y="911"/>
      <point x="424" y="911" type="curve" smooth="yes"/>
      <point x="449" y="911"/>
      <point x="467" y="901"/>
      <point x="476" y="896" type="curve"/>
      <point x="567" y="770" type="line"/>
      <point x="658" y="776"/>
      <point x="715" y="811"/>
    </contour>
  </outline>
</glyph>
<glyph name="LtnSmV" format="2">
  <advance width="946"/>
  <unicode hex="0076"/>
  <anchor x="308" y="0" name="H"/>
  <anchor x="276" y="-100" name="L"/>
  <anchor x="401" y="0" name="O"/>
  <anchor x="520" y="1100" name="U"/>
  <outline>
    <contour>
      <point x="956" y="889" type="curve" smooth="yes"/>
      <point x="956" y="963"/>
      <point x="918" y="1012"/>
      <point x="831" y="1012" type="curve" smooth="yes"/>
      <point x="780" y="1012"/>
      <point x="739" y="993"/>
      <point x="713" y="967" type="curve"/>
      <point x="752" y="719" type="line"/>
      <point x="688" y="557"/>
      <point x="594" y="418"/>
      <point x="455" y="236" type="curve"/>
      <point x="391" y="866" type="line" smooth="yes"/>
      <point x="381" y="963"/>
      <point x="334" y="1010"/>
      <point x="223" y="1012" type="curve"/>
      <point x="4" y="944" type="line"/>
      <point x="4" y="885" type="line"/>
      <point x="150" y="877" type="line" smooth="yes"/>
      <point x="172" y="876"/>
      <point x="187" y="865"/>
      <point x="197" y="836" type="curve" smooth="yes"/>
      <point x="237" y="725"/>
      <point x="281" y="147"/>
      <point x="281" y="131" type="curve" smooth="yes"/>
      <point x="281" y="86"/>
      <point x="270" y="35"/>
      <point x="240" y="-25" type="curve"/>
      <point x="358" y="-25" type="line"/>
      <point x="483" y="115"/>
      <point x="731" y="399"/>
      <point x="913" y="735" type="curve" smooth="yes"/>
      <point x="927" y="761"/>
      <point x="956" y="821"/>
    </contour>
  </outline>
</glyph>
<glyph name="LtnSmX" format="2">
  <advance width="1081"/>
  <unicode hex="0078"/>
  <anchor x="720" y="0" name="H"/>
  <anchor x="424" y="-100" name="L"/>
  <anchor x="668" y="1100" name="U"/>
  <outline>
    <contour>
      <point x="1104" y="891" type="curve" smooth="yes"/>
      <point x="1104" y="963"/>
      <point x="1053" y="1012"/>
      <point x="979" y="1012" type="curve" smooth="yes"/>
      <point x="807" y="1012"/>
      <point x="664" y="778"/>
      <point x="584" y="623" type="curve"/>
      <point x="520" y="870"/>
      <point x="449" y="1012"/>
      <point x="352" y="1012" type="curve" smooth="yes"/>
      <point x="326" y="1012"/>
      <point x="141" y="950"/>
      <point x="106" y="938" type="curve"/>
      <point x="106" y="883" type="line"/>
      <point x="285" y="860" type="line" smooth="yes"/>
      <point x="313" y="856"/>
      <point x="424" y="580"/>
      <point x="442" y="498" type="curve"/>
      <point x="367" y="303"/>
      <point x="258" y="178"/>
      <point x="176" y="127" type="curve"/>
      <point x="90" y="209" type="line"/>
      <point x="8" y="195"/>
      <point x="-37" y="154"/>
      <point x="-37" y="88" type="curve" smooth="yes"/>
      <point x="-37" y="16"/>
      <point x="23" y="-25"/>
      <point x="106" y="-25" type="curve" smooth="yes"/>
      <point x="295" y="-25"/>
      <point x="419" y="211"/>
      <point x="494" y="354" type="curve"/>
      <point x="528" y="213"/>
      <point x="606" y="-25"/>
      <point x="741" y="-25" type="curve" smooth="yes"/>
      <point x="829" y="-25"/>
      <point x="903" y="0"/>
      <point x="981" y="41" type="curve"/>
      <point x="981" y="115" type="line"/>
      <point x="926" y="88"/>
      <point x="895" y="86"/>
      <point x="864" y="86" type="curve" smooth="yes"/>
      <point x="815" y="86"/>
      <point x="763" y="158"/>
      <point x="725" y="246" type="curve" smooth="yes"/>
      <point x="688" y="332"/>
      <point x="655" y="442"/>
      <point x="641" y="492" type="curve"/>
      <point x="721" y="682"/>
      <point x="829" y="809"/>
      <point x="901" y="838" type="curve"/>
      <point x="991" y="758" type="line"/>
      <point x="1071" y="784"/>
      <point x="1104" y="838"/>
    </contour>
  </outline>
</glyph>
<glyph name="LtnSmY" format="2">
  <advance width="1018"/>
  <unicode hex="0079"/>
  <anchor x="682" y="-100" name="L"/>
  <anchor x="257" y="-391" name="O"/>
  <anchor x="1018" y="1000" name="R"/>
  <anchor x="614" y="1100" name="U"/>
  <outline>
    <contour>
      <point x="1073" y="909" type="line"/>
      <point x="1073" y="956" type="line"/>
      <point x="903" y="1012" type="line"/>
      <point x="844" y="1012" type="line"/>
      <point x="532" y="266" type="line"/>
      <point x="492" y="485"/>
      <point x="456" y="670"/>
      <point x="420" y="791" type="curve" smooth="yes"/>
      <point x="380" y="926"/>
      <point x="338" y="1012"/>
      <point x="250" y="1012" type="curve" smooth="yes"/>
      <point x="213" y="1012"/>
      <point x="41" y="955"/>
      <point x="4" y="942" type="curve"/>
      <point x="4" y="891" type="line"/>
      <point x="190" y="877" type="line" smooth="yes"/>
      <point x="209" y="876"/>
      <point x="265" y="662"/>
      <point x="307" y="469" type="curve" smooth="yes"/>
      <point x="350" y="272"/>
      <point x="387" y="70"/>
      <point x="393" y="37" type="curve"/>
      <point x="244" y="-238"/>
      <point x="152" y="-332"/>
      <point x="96" y="-332" type="curve"/>
      <point x="-23" y="-213" type="line"/>
      <point x="-104" y="-217"/>
      <point x="-164" y="-272"/>
      <point x="-164" y="-334" type="curve" smooth="yes"/>
      <point x="-164" y="-385"/>
      <point x="-123" y="-469"/>
      <point x="27" y="-469" type="curve" smooth="yes"/>
      <point x="223" y="-469"/>
      <point x="388" y="-250"/>
      <point x="514" y="-33" type="curve" smooth="yes"/>
      <point x="643" y="189"/>
      <point x="750" y="442"/>
      <point x="803" y="573" type="curve" smooth="yes"/>
      <point x="838" y="659"/>
      <point x="938" y="815"/>
      <point x="971" y="846" type="curve"/>
    </contour>
  </outline>
</glyph>
<glyph name="LftCurlyBrac" format="2">
  <advance width="995"/>
  <unicode hex="007B"/>
  <outline>
    <contour>
      <point x="1047" y="1440" type="line"/>
      <point x="881" y="1440"/>
      <point x="762" y="1423"/>
      <point x="678" y="1366" type="curve" smooth="yes"/>
      <point x="456" y="1217"/>
      <point x="547" y="847"/>
      <point x="395" y="702" type="curve" smooth="yes"/>
      <point x="335" y="644"/>
      <point x="250" y="641"/>
      <point x="137" y="641" type="curve"/>
      <point x="119" y="547" type="line"/>
      <point x="199" y="547"/>
      <point x="286" y="547"/>
      <point x="336" y="508" type="curve" smooth="yes"/>
      <point x="484" y="393"/>
      <point x="217" y="-1"/>
      <point x="371" y="-168" type="curve" smooth="yes"/>
      <point x="440" y="-242"/>
      <point x="569" y="-252"/>
      <point x="719" y="-252" type="curve"/>
      <point x="735" y="-166" type="line"/>
      <point x="670" y="-166"/>
      <point x="598" y="-162"/>
      <point x="555" y="-125" type="curve" smooth="yes"/>
      <point x="418" y="-8"/>
      <point x="679" y="362"/>
      <point x="508" y="522" type="curve" smooth="yes"/>
      <point x="475" y="553"/>
      <point x="430" y="575"/>
      <point x="369" y="596" type="curve"/>
      <point x="473" y="623"/>
      <point x="540" y="661"/>
      <point x="584" y="705" type="curve" smooth="yes"/>
      <point x="739" y="859"/>
      <point x="666" y="1149"/>
      <point x="807" y="1282" type="curve" smooth="yes"/>
      <point x="852" y="1325"/>
      <point x="922" y="1354"/>
      <point x="1032" y="1354" type="curve"/>
    </contour>
  </outline>
</glyph>
<glyph name="VertLine" format="2">
  <advance width="724"/>
  <unicode hex="007C"/>
  <outline>
    <contour>
      <point x="424" y="-528" type="line"/>
      <point x="424" y="1630" type="line"/>
      <point x="300" y="1630" type="line"/>
      <point x="300" y="-528" type="line"/>
    </contour>
  </outline>
</glyph>
<glyph name="RtCurlyBrac" format="2">
  <advance width="995"/>
  <unicode hex="007D"/>
  <outline>
    <contour>
      <point x="897" y="641" type="line"/>
      <point x="817" y="641"/>
      <point x="720" y="645"/>
      <point x="680" y="680" type="curve" smooth="yes"/>
      <point x="647" y="709"/>
      <point x="637" y="752"/>
      <point x="637" y="803" type="curve" smooth="yes"/>
      <point x="637" y="919"/>
      <point x="696" y="1076"/>
      <point x="696" y="1205" type="curve" smooth="yes"/>
      <point x="696" y="1263"/>
      <point x="682" y="1316"/>
      <point x="645" y="1356" type="curve" smooth="yes"/>
      <point x="576" y="1431"/>
      <point x="446" y="1440"/>
      <point x="299" y="1440" type="curve"/>
      <point x="281" y="1354" type="line"/>
      <point x="346" y="1354"/>
      <point x="419" y="1351"/>
      <point x="463" y="1313" type="curve" smooth="yes"/>
      <point x="494" y="1287"/>
      <point x="504" y="1248"/>
      <point x="504" y="1200" type="curve" smooth="yes"/>
      <point x="504" y="1096"/>
      <point x="449" y="952"/>
      <point x="449" y="831" type="curve" smooth="yes"/>
      <point x="449" y="766"/>
      <point x="464" y="708"/>
      <point x="510" y="666" type="curve" smooth="yes"/>
      <point x="542" y="636"/>
      <point x="586" y="612"/>
      <point x="647" y="594" type="curve"/>
      <point x="543" y="565"/>
      <point x="477" y="528"/>
      <point x="432" y="483" type="curve" smooth="yes"/>
      <point x="276" y="330"/>
      <point x="350" y="38"/>
      <point x="211" y="-94" type="curve" smooth="yes"/>
      <point x="165" y="-138"/>
      <point x="94" y="-166"/>
      <point x="-16" y="-166" type="curve"/>
      <point x="-31" y="-252" type="line"/>
      <point x="135" y="-252"/>
      <point x="254" y="-236"/>
      <point x="340" y="-178" type="curve" smooth="yes"/>
      <point x="561" y="-29"/>
      <point x="470" y="340"/>
      <point x="621" y="485" type="curve" smooth="yes"/>
      <point x="682" y="543"/>
      <point x="766" y="547"/>
      <point x="879" y="547" type="curve"/>
    </contour>
  </outline>
</glyph>
<glyph name="CentSgn" format="2">
  <advance width="1139"/>
  <unicode hex="00A2"/>
  <outline>
    <contour>
      <point x="1063" y="956" type="line"/>
      <point x="975" y="991"/>
      <point x="907" y="1010"/>
      <point x="774" y="1012" type="curve"/>
      <point x="813" y="1212" type="line"/>
      <point x="688" y="1212" type="line"/>
      <point x="647" y="1008" type="line"/>
      <point x="301" y="958"/>
      <point x="113" y="643"/>
      <point x="113" y="352" type="curve" smooth="yes"/>
      <point x="113" y="184"/>
      <point x="223" y="18"/>
      <point x="453" y="-18" type="curve"/>
      <point x="412" y="-225" type="line"/>
      <point x="539" y="-225" type="line"/>
      <point x="578" y="-25" type="line"/>
      <point x="715" y="-25"/>
      <point x="807" y="-10"/>
      <point x="889" y="37" type="curve"/>
      <point x="932" y="338" type="line"/>
      <point x="809" y="338" type="line"/>
      <point x="805" y="305"/>
      <point x="782" y="115"/>
      <point x="709" y="98" type="curve" smooth="yes"/>
      <point x="702" y="96"/>
      <point x="655" y="82"/>
      <point x="596" y="76" type="curve"/>
      <point x="756" y="913" type="line"/>
      <point x="815" y="907"/>
      <point x="852" y="885"/>
      <point x="860" y="881" type="curve"/>
      <point x="918" y="864"/>
      <point x="901" y="684"/>
      <point x="897" y="651" type="curve"/>
      <point x="1020" y="651" type="line"/>
    </contour>
    <contour>
      <point x="627" y="895" type="curve"/>
      <point x="475" y="90" type="line"/>
      <point x="377" y="131"/>
      <point x="319" y="225"/>
      <point x="319" y="379" type="curve" smooth="yes"/>
      <point x="319" y="618"/>
      <point x="449" y="825"/>
    </contour>
  </outline>
</glyph>
<glyph name="PoundSgn" format="2">
  <advance width="1139"/>
  <unicode hex="00A3"/>
  <outline>
    <contour>
      <point x="1190" y="1257" type="curve" smooth="yes"/>
      <point x="1190" y="1374"/>
      <point x="1014" y="1407"/>
      <point x="913" y="1407" type="curve" smooth="yes"/>
      <point x="430" y="1407"/>
      <point x="352" y="862"/>
      <point x="340" y="723" type="curve"/>
      <point x="180" y="723" type="line"/>
      <point x="180" y="618" type="line"/>
      <point x="326" y="618" type="line"/>
      <point x="305" y="516"/>
      <point x="293" y="410"/>
      <point x="240" y="307" type="curve" smooth="yes"/>
      <point x="195" y="217"/>
      <point x="121" y="147"/>
      <point x="-8" y="123" type="curve"/>
      <point x="-8" y="0" type="line"/>
      <point x="983" y="0" type="line"/>
      <point x="983" y="166" type="line"/>
      <point x="383" y="166" type="line" smooth="yes"/>
      <point x="350" y="166"/>
      <point x="301" y="162"/>
      <point x="244" y="156" type="curve"/>
      <point x="426" y="281"/>
      <point x="492" y="426"/>
      <point x="526" y="618" type="curve"/>
      <point x="924" y="618" type="line"/>
      <point x="924" y="723" type="line"/>
      <point x="551" y="723" type="line"/>
      <point x="586" y="928"/>
      <point x="631" y="1282"/>
      <point x="903" y="1296" type="curve"/>
      <point x="991" y="1110" type="line"/>
      <point x="1049" y="1118"/>
      <point x="1190" y="1153"/>
    </contour>
  </outline>
</glyph>
<glyph name="CurrSgn" format="2">
  <advance width="1249"/>
  <unicode hex="00A4"/>
  <outline>
    <contour>
      <point x="1188" y="401" type="line"/>
      <point x="977" y="612" type="line"/>
      <point x="1038" y="686"/>
      <point x="1067" y="780"/>
      <point x="1067" y="877" type="curve" smooth="yes"/>
      <point x="1067" y="973"/>
      <point x="1032" y="1075"/>
      <point x="975" y="1147" type="curve"/>
      <point x="1188" y="1360" type="line"/>
      <point x="1114" y="1434" type="line"/>
      <point x="897" y="1217" type="line"/>
      <point x="827" y="1276"/>
      <point x="733" y="1309"/>
      <point x="639" y="1309" type="curve" smooth="yes"/>
      <point x="543" y="1309"/>
      <point x="444" y="1278"/>
      <point x="371" y="1219" type="curve"/>
      <point x="156" y="1434" type="line"/>
      <point x="82" y="1360" type="line"/>
      <point x="297" y="1145" type="line"/>
      <point x="231" y="1073"/>
      <point x="203" y="969"/>
      <point x="203" y="874" type="curve" smooth="yes"/>
      <point x="203" y="778"/>
      <point x="233" y="686"/>
      <point x="293" y="612" type="curve"/>
      <point x="82" y="401" type="line"/>
      <point x="156" y="328" type="line"/>
      <point x="367" y="539" type="line"/>
      <point x="442" y="473"/>
      <point x="537" y="442"/>
      <point x="639" y="442" type="curve" smooth="yes"/>
      <point x="733" y="442"/>
      <point x="829" y="475"/>
      <point x="903" y="539" type="curve"/>
      <point x="1114" y="328" type="line"/>
    </contour>
    <contour>
      <point x="950" y="877" type="curve" smooth="yes"/>
      <point x="950" y="705"/>
      <point x="813" y="559"/>
      <point x="639" y="559" type="curve" smooth="yes"/>
      <point x="463" y="559"/>
      <point x="319" y="698"/>
      <point x="319" y="874" type="curve" smooth="yes"/>
      <point x="319" y="1053"/>
      <point x="461" y="1192"/>
      <point x="639" y="1192" type="curve" smooth="yes"/>
      <point x="811" y="1192"/>
      <point x="950" y="1047"/>
    </contour>
  </outline>
</glyph>
<glyph name="LftPtngDblAngQuotMrk" format="2">
  <advance width="833"/>
  <unicode hex="00AB"/>
  <outline>
    <contour>
      <point x="254" y="0" type="line"/>
      <point x="346" y="0" type="line"/>
      <point x="212" y="493" type="line"/>
      <point x="546" y="987" type="line"/>
      <point x="454" y="987" type="line"/>
      <point x="61" y="544" type="line"/>
      <point x="40" y="441" type="line"/>
    </contour>
    <contour>
      <point x="604" y="0" type="line"/>
      <point x="696" y="0" type="line"/>
      <point x="561" y="493" type="line"/>
      <point x="896" y="987" type="line"/>
      <point x="804" y="987" type="line"/>
      <point x="410" y="544" type="line"/>
      <point x="389" y="441" type="line"/>
    </contour>
  </outline>
</glyph>
<glyph name="RegisteredSgn" format="2">
  <advance width="1714"/>
  <unicode hex="00AE"/>
  <outline>
    <contour>
      <point x="1686" y="717" type="curve" smooth="yes"/>
      <point x="1686" y="1155"/>
      <point x="1329" y="1509"/>
      <point x="899" y="1509" type="curve" smooth="yes"/>
      <point x="463" y="1509"/>
      <point x="111" y="1153"/>
      <point x="111" y="717" type="curve" smooth="yes"/>
      <point x="111" y="281"/>
      <point x="465" y="-74"/>
      <point x="895" y="-74" type="curve" smooth="yes"/>
      <point x="1333" y="-74"/>
      <point x="1686" y="281"/>
    </contour>
    <contour>
      <point x="1597" y="717" type="curve" smooth="yes"/>
      <point x="1597" y="332"/>
      <point x="1284" y="12"/>
      <point x="897" y="12" type="curve" smooth="yes"/>
      <point x="510" y="12"/>
      <point x="199" y="330"/>
      <point x="199" y="713" type="curve" smooth="yes"/>
      <point x="199" y="1112"/>
      <point x="516" y="1423"/>
      <point x="899" y="1423" type="curve" smooth="yes"/>
      <point x="1284" y="1423"/>
      <point x="1597" y="1108"/>
    </contour>
    <contour>
      <point x="1407" y="291" type="curve"/>
      <point x="1407" y="346" type="line"/>
      <point x="1047" y="346"/>
      <point x="1307" y="655"/>
      <point x="983" y="727" type="curve"/>
      <point x="1108" y="754"/>
      <point x="1223" y="811"/>
      <point x="1223" y="950" type="curve" smooth="yes"/>
      <point x="1223" y="1126"/>
      <point x="1087" y="1188"/>
      <point x="864" y="1188" type="curve" smooth="yes"/>
      <point x="483" y="1188" type="line"/>
      <point x="483" y="1130" type="line"/>
      <point x="561" y="1124" type="line" smooth="yes"/>
      <point x="582" y="1122"/>
      <point x="592" y="1108"/>
      <point x="592" y="1096" type="curve" smooth="yes"/>
      <point x="592" y="383" type="line" smooth="yes"/>
      <point x="592" y="371"/>
      <point x="582" y="356"/>
      <point x="561" y="354" type="curve" smooth="yes"/>
      <point x="483" y="348" type="line"/>
      <point x="483" y="291" type="line"/>
      <point x="846" y="291" type="line"/>
      <point x="846" y="348" type="line"/>
      <point x="768" y="354" type="line" smooth="yes"/>
      <point x="745" y="356"/>
      <point x="737" y="371"/>
      <point x="737" y="383" type="curve" smooth="yes"/>
      <point x="737" y="688" type="line"/>
      <point x="741" y="688"/>
      <point x="774" y="690"/>
      <point x="805" y="690" type="curve" smooth="yes"/>
      <point x="1165" y="690"/>
      <point x="924" y="281"/>
      <point x="1288" y="281" type="curve" smooth="yes"/>
      <point x="1331" y="281"/>
      <point x="1395" y="289"/>
    </contour>
    <contour>
      <point x="1063" y="944" type="curve" smooth="yes"/>
      <point x="1063" y="801"/>
      <point x="975" y="754"/>
      <point x="813" y="754" type="curve" smooth="yes"/>
      <point x="791" y="754"/>
      <point x="741" y="756"/>
      <point x="737" y="756" type="curve"/>
      <point x="737" y="1124" type="line"/>
      <point x="741" y="1124"/>
      <point x="807" y="1124"/>
      <point x="807" y="1124" type="curve"/>
      <point x="991" y="1124"/>
      <point x="1063" y="1057"/>
    </contour>
  </outline>
</glyph>
<glyph name="SupThree" format="2">
  <advance width="739"/>
  <unicode hex="00B3"/>
  <anchor x="401" y="725" name="L"/>
  <anchor x="570" y="1650" name="U"/>
  <outline>
    <contour>
      <point x="820" y="1446" type="curve" smooth="yes"/>
      <point x="820" y="1565"/>
      <point x="725" y="1624"/>
      <point x="586" y="1624" type="curve" smooth="yes"/>
      <point x="441" y="1624"/>
      <point x="271" y="1553"/>
      <point x="271" y="1446" type="curve" smooth="yes"/>
      <point x="271" y="1399"/>
      <point x="314" y="1383"/>
      <point x="336" y="1383" type="curve" smooth="yes"/>
      <point x="356" y="1383"/>
      <point x="388" y="1392"/>
      <point x="406" y="1399" type="curve"/>
      <point x="424" y="1516" type="line"/>
      <point x="435" y="1524"/>
      <point x="480" y="1551"/>
      <point x="543" y="1551" type="curve" smooth="yes"/>
      <point x="603" y="1551"/>
      <point x="676" y="1518"/>
      <point x="676" y="1430" type="curve" smooth="yes"/>
      <point x="676" y="1325"/>
      <point x="574" y="1254"/>
      <point x="402" y="1254" type="curve"/>
      <point x="390" y="1168" type="line"/>
      <point x="408" y="1171"/>
      <point x="446" y="1174"/>
      <point x="480" y="1174" type="curve" smooth="yes"/>
      <point x="539" y="1174"/>
      <point x="627" y="1155"/>
      <point x="627" y="1051" type="curve" smooth="yes"/>
      <point x="627" y="936"/>
      <point x="527" y="844"/>
      <point x="392" y="844" type="curve" smooth="yes"/>
      <point x="342" y="844"/>
      <point x="304" y="857"/>
      <point x="291" y="873" type="curve"/>
      <point x="273" y="975" type="line"/>
      <point x="261" y="979"/>
      <point x="238" y="985"/>
      <point x="218" y="985" type="curve" smooth="yes"/>
      <point x="152" y="985"/>
      <point x="140" y="934"/>
      <point x="140" y="910" type="curve" smooth="yes"/>
      <point x="140" y="848"/>
      <point x="211" y="770"/>
      <point x="377" y="770" type="curve" smooth="yes"/>
      <point x="590" y="770"/>
      <point x="768" y="906"/>
      <point x="768" y="1067" type="curve" smooth="yes"/>
      <point x="768" y="1166"/>
      <point x="695" y="1213"/>
      <point x="609" y="1227" type="curve"/>
      <point x="746" y="1270"/>
      <point x="820" y="1356"/>
    </contour>
  </outline>
</glyph>
<glyph name="RtPtngDblAngQuotMrk" format="2">
  <advance width="833"/>
  <unicode hex="00BB"/>
  <outline>
    <contour>
      <point x="578" y="987" type="line"/>
      <point x="486" y="987" type="line"/>
      <point x="621" y="494" type="line"/>
      <point x="286" y="0" type="line"/>
      <point x="378" y="0" type="line"/>
      <point x="772" y="443" type="line"/>
      <point x="793" y="546" type="line"/>
    </contour>
    <contour>
      <point x="229" y="987" type="line"/>
      <point x="137" y="987" type="line"/>
      <point x="271" y="494" type="line"/>
      <point x="-63" y="0" type="line"/>
      <point x="29" y="0" type="line"/>
      <point x="422" y="443" type="line"/>
      <point x="443" y="546" type="line"/>
    </contour>
  </outline>
</glyph>
<glyph name="VulgFracOneQuarter" format="2">
  <advance width="1800"/>
  <unicode hex="00BC"/>
  <outline>
    <contour>
      <point x="1618" y="332" type="line"/>
      <point x="1470" y="332" type="line"/>
      <point x="1577" y="840" type="line"/>
      <point x="1483" y="840" type="line"/>
      <point x="926" y="328" type="line"/>
      <point x="907" y="238" type="line"/>
      <point x="1329" y="238" type="line"/>
      <point x="1272" y="-43" type="line"/>
      <point x="1391" y="-43" type="line"/>
      <point x="1450" y="238" type="line"/>
      <point x="1597" y="238" type="line"/>
    </contour>
    <contour>
      <point x="1540" y="1430" type="line"/>
      <point x="1395" y="1430" type="line"/>
      <point x="205" y="0" type="line"/>
      <point x="350" y="0" type="line"/>
    </contour>
    <contour>
      <point x="571" y="1436" type="line"/>
      <point x="528" y="1436" type="line"/>
      <point x="223" y="1356" type="line"/>
      <point x="223" y="1290" type="line"/>
      <point x="420" y="1313" type="line"/>
      <point x="299" y="709" type="line" smooth="yes"/>
      <point x="294" y="686"/>
      <point x="281" y="676"/>
      <point x="252" y="674" type="curve" smooth="yes"/>
      <point x="139" y="668" type="line"/>
      <point x="139" y="598" type="line"/>
      <point x="539" y="598" type="line"/>
      <point x="539" y="666" type="line"/>
      <point x="451" y="674" type="line" smooth="yes"/>
      <point x="428" y="676"/>
      <point x="417" y="686"/>
      <point x="422" y="709" type="curve" smooth="yes"/>
    </contour>
    <contour>
      <point x="1421" y="674" type="line"/>
      <point x="1352" y="332" type="line"/>
      <point x="1055" y="332" type="line"/>
    </contour>
  </outline>
</glyph>
<glyph name="VulgFracThreeQuarters" format="2">
  <advance width="1800"/>
  <unicode hex="00BE"/>
  <outline>
    <contour>
      <point x="1683" y="332" type="line"/>
      <point x="1536" y="332" type="line"/>
      <point x="1642" y="840" type="line"/>
      <point x="1550" y="840" type="line"/>
      <point x="991" y="328" type="line"/>
      <point x="973" y="238" type="line"/>
      <point x="1397" y="238" type="line"/>
      <point x="1339" y="-43" type="line"/>
      <point x="1458" y="-43" type="line"/>
      <point x="1516" y="238" type="line"/>
      <point x="1663" y="238" type="line"/>
    </contour>
    <contour>
      <point x="1634" y="1430" type="line"/>
      <point x="1489" y="1430" type="line"/>
      <point x="299" y="0" type="line"/>
      <point x="444" y="0" type="line"/>
    </contour>
    <contour>
      <point x="1489" y="674" type="line"/>
      <point x="1417" y="332" type="line"/>
      <point x="1120" y="332" type="line"/>
    </contour>
    <contour>
      <point x="784" y="1266" type="curve" smooth="yes"/>
      <point x="784" y="1386"/>
      <point x="688" y="1446"/>
      <point x="547" y="1446" type="curve" smooth="yes"/>
      <point x="399" y="1446"/>
      <point x="227" y="1374"/>
      <point x="227" y="1268" type="curve" smooth="yes"/>
      <point x="227" y="1219"/>
      <point x="268" y="1200"/>
      <point x="293" y="1200" type="curve" smooth="yes"/>
      <point x="312" y="1200"/>
      <point x="345" y="1211"/>
      <point x="365" y="1219" type="curve"/>
      <point x="383" y="1335" type="line"/>
      <point x="393" y="1343"/>
      <point x="438" y="1370"/>
      <point x="504" y="1370" type="curve" smooth="yes"/>
      <point x="565" y="1370"/>
      <point x="639" y="1337"/>
      <point x="639" y="1249" type="curve" smooth="yes"/>
      <point x="639" y="1151"/>
      <point x="548" y="1072"/>
      <point x="389" y="1072" type="curve" smooth="yes"/>
      <point x="379" y="1072"/>
      <point x="370" y="1072"/>
      <point x="360" y="1073" type="curve"/>
      <point x="346" y="985" type="line"/>
      <point x="371" y="988"/>
      <point x="399" y="991"/>
      <point x="427" y="991" type="curve" smooth="yes"/>
      <point x="508" y="991"/>
      <point x="588" y="968"/>
      <point x="588" y="866" type="curve" smooth="yes"/>
      <point x="588" y="752"/>
      <point x="487" y="659"/>
      <point x="350" y="659" type="curve" smooth="yes"/>
      <point x="301" y="659"/>
      <point x="260" y="678"/>
      <point x="248" y="686" type="curve"/>
      <point x="227" y="791" type="line"/>
      <point x="216" y="796"/>
      <point x="193" y="803"/>
      <point x="172" y="803" type="curve" smooth="yes"/>
      <point x="104" y="803"/>
      <point x="92" y="750"/>
      <point x="92" y="725" type="curve" smooth="yes"/>
      <point x="92" y="662"/>
      <point x="166" y="586"/>
      <point x="336" y="586" type="curve" smooth="yes"/>
      <point x="551" y="586"/>
      <point x="731" y="721"/>
      <point x="731" y="885" type="curve" smooth="yes"/>
      <point x="731" y="985"/>
      <point x="655" y="1030"/>
      <point x="569" y="1044" type="curve"/>
      <point x="709" y="1087"/>
      <point x="784" y="1176"/>
    </contour>
  </outline>
</glyph>
<glyph name="InvQstnMrk" format="2">
  <advance width="995"/>
  <unicode hex="00BF"/>
  <outline>
    <contour>
      <point x="401" y="-428" type="curve" smooth="yes"/>
      <point x="674" y="-428"/>
      <point x="760" y="-286"/>
      <point x="760" y="-207" type="curve" smooth="yes"/>
      <point x="760" y="-153"/>
      <point x="717" y="-123"/>
      <point x="647" y="-123" type="curve" smooth="yes"/>
      <point x="588" y="-123" type="line"/>
      <point x="465" y="-325" type="line"/>
      <point x="332" y="-325"/>
      <point x="250" y="-252"/>
      <point x="250" y="-112" type="curve" smooth="yes"/>
      <point x="250" y="117"/>
      <point x="436" y="269"/>
      <point x="622" y="328" type="curve"/>
      <point x="680" y="633" type="line"/>
      <point x="541" y="633" type="line"/>
      <point x="493" y="389" type="line"/>
      <point x="270" y="297"/>
      <point x="26" y="142"/>
      <point x="26" y="-135" type="curve" smooth="yes"/>
      <point x="26" y="-315"/>
      <point x="160" y="-428"/>
    </contour>
    <contour>
      <point x="643" y="764" type="curve" smooth="yes"/>
      <point x="727" y="764"/>
      <point x="778" y="828"/>
      <point x="778" y="891" type="curve" smooth="yes"/>
      <point x="778" y="955"/>
      <point x="727" y="1012"/>
      <point x="643" y="1012" type="curve" smooth="yes"/>
      <point x="557" y="1012"/>
      <point x="512" y="953"/>
      <point x="512" y="889" type="curve" smooth="yes"/>
      <point x="512" y="826"/>
      <point x="557" y="764"/>
    </contour>
  </outline>
</glyph>
<glyph name="LtnCapOStrk" format="2">
  <advance width="1454"/>
  <unicode hex="00D8"/>
  <anchor x="605" y="-100" name="L"/>
  <anchor x="893" y="1500" name="U"/>
  <outline>
    <contour>
      <point x="1415" y="854" type="curve" smooth="yes"/>
      <point x="1415" y="1040"/>
      <point x="1335" y="1204"/>
      <point x="1196" y="1305" type="curve"/>
      <point x="1307" y="1470" type="line"/>
      <point x="1202" y="1534" type="line"/>
      <point x="1092" y="1364" type="line"/>
      <point x="1024" y="1391"/>
      <point x="946" y="1407"/>
      <point x="860" y="1407" type="curve" smooth="yes"/>
      <point x="410" y="1407"/>
      <point x="98" y="977"/>
      <point x="98" y="537" type="curve" smooth="yes"/>
      <point x="98" y="352"/>
      <point x="164" y="203"/>
      <point x="274" y="102" type="curve"/>
      <point x="145" y="-98" type="line"/>
      <point x="233" y="-164" type="line"/>
      <point x="367" y="39" type="line"/>
      <point x="449" y="-8"/>
      <point x="547" y="-33"/>
      <point x="655" y="-33" type="curve" smooth="yes"/>
      <point x="1137" y="-33"/>
      <point x="1415" y="422"/>
    </contour>
    <contour>
      <point x="1018" y="1247" type="curve"/>
      <point x="383" y="266" type="line"/>
      <point x="348" y="336"/>
      <point x="330" y="422"/>
      <point x="330" y="520" type="curve" smooth="yes"/>
      <point x="330" y="883"/>
      <point x="543" y="1305"/>
      <point x="842" y="1305" type="curve" smooth="yes"/>
      <point x="907" y="1305"/>
      <point x="967" y="1284"/>
    </contour>
    <contour>
      <point x="1182" y="854" type="curve" smooth="yes"/>
      <point x="1182" y="504"/>
      <point x="969" y="74"/>
      <point x="670" y="74" type="curve" smooth="yes"/>
      <point x="586" y="74"/>
      <point x="510" y="106"/>
      <point x="451" y="168" type="curve"/>
      <point x="1102" y="1159" type="line"/>
      <point x="1153" y="1081"/>
      <point x="1182" y="979"/>
    </contour>
  </outline>
</glyph>
<glyph name="LtnSmSharpS" format="2">
  <advance width="1139"/>
  <unicode hex="00DF"/>
  <anchor x="354" y="-100" name="L"/>
  <anchor x="670" y="1540" name="U"/>
  <outline>
    <contour>
      <point x="1085" y="1239" type="curve" smooth="yes"/>
      <point x="1085" y="1417"/>
      <point x="961" y="1509"/>
      <point x="768" y="1509" type="curve" smooth="yes"/>
      <point x="416" y="1509"/>
      <point x="248" y="1227"/>
      <point x="203" y="932" type="curve" smooth="yes"/>
      <point x="84" y="129" type="line" smooth="yes"/>
      <point x="70" y="35"/>
      <point x="20" y="-242"/>
      <point x="-63" y="-324" type="curve"/>
      <point x="-274" y="-268" type="line"/>
      <point x="-309" y="-295"/>
      <point x="-328" y="-326"/>
      <point x="-328" y="-358" type="curve" smooth="yes"/>
      <point x="-328" y="-424"/>
      <point x="-287" y="-469"/>
      <point x="-201" y="-469" type="curve" smooth="yes"/>
      <point x="-29" y="-469"/>
      <point x="160" y="-217"/>
      <point x="209" y="-84" type="curve" smooth="yes"/>
      <point x="338" y="270"/>
      <point x="309" y="649"/>
      <point x="406" y="1010" type="curve" smooth="yes"/>
      <point x="465" y="1231"/>
      <point x="571" y="1409"/>
      <point x="756" y="1409" type="curve" smooth="yes"/>
      <point x="846" y="1409"/>
      <point x="913" y="1356"/>
      <point x="913" y="1243" type="curve" smooth="yes"/>
      <point x="913" y="1159"/>
      <point x="893" y="1071"/>
      <point x="868" y="985" type="curve"/>
      <point x="688" y="969"/>
      <point x="537" y="852"/>
      <point x="537" y="682" type="curve" smooth="yes"/>
      <point x="537" y="575"/>
      <point x="618" y="506"/>
      <point x="702" y="440" type="curve" smooth="yes"/>
      <point x="797" y="369"/>
      <point x="872" y="313"/>
      <point x="872" y="231" type="curve" smooth="yes"/>
      <point x="872" y="119"/>
      <point x="788" y="59"/>
      <point x="702" y="59" type="curve" smooth="yes"/>
      <point x="655" y="59"/>
      <point x="614" y="76"/>
      <point x="571" y="129" type="curve"/>
      <point x="608" y="231" type="line"/>
      <point x="571" y="256"/>
      <point x="547" y="270"/>
      <point x="502" y="270" type="curve" smooth="yes"/>
      <point x="420" y="270"/>
      <point x="379" y="223"/>
      <point x="379" y="166" type="curve" smooth="yes"/>
      <point x="379" y="27"/>
      <point x="530" y="-25"/>
      <point x="670" y="-25" type="curve" smooth="yes"/>
      <point x="881" y="-25"/>
      <point x="1059" y="96"/>
      <point x="1059" y="299" type="curve" smooth="yes"/>
      <point x="1059" y="399"/>
      <point x="971" y="475"/>
      <point x="881" y="545" type="curve" smooth="yes"/>
      <point x="791" y="616"/>
      <point x="700" y="680"/>
      <point x="700" y="756" type="curve" smooth="yes"/>
      <point x="700" y="872"/>
      <point x="846" y="895"/>
      <point x="913" y="895" type="curve" smooth="yes"/>
      <point x="940" y="895"/>
      <point x="967" y="893"/>
      <point x="1016" y="889" type="curve"/>
      <point x="1049" y="1001"/>
      <point x="1085" y="1120"/>
    </contour>
  </outline>
</glyph>
<glyph name="LtnSmOStrk" format="2">
  <advance width="1036"/>
  <unicode hex="00F8"/>
  <anchor x="419" y="0" name="H"/>
  <anchor x="399" y="-100" name="L"/>
  <anchor x="630" y="0" name="O"/>
  <anchor x="1036" y="1000" name="R"/>
  <anchor x="643" y="1100" name="U"/>
  <outline>
    <contour>
      <point x="973" y="614" type="curve" smooth="yes"/>
      <point x="973" y="756"/>
      <point x="928" y="856"/>
      <point x="858" y="922" type="curve"/>
      <point x="958" y="1079" type="line"/>
      <point x="877" y="1130" type="line"/>
      <point x="778" y="975" type="line"/>
      <point x="727" y="999"/>
      <point x="668" y="1012"/>
      <point x="606" y="1012" type="curve" smooth="yes"/>
      <point x="285" y="1012"/>
      <point x="63" y="694"/>
      <point x="63" y="362" type="curve" smooth="yes"/>
      <point x="63" y="221"/>
      <point x="113" y="113"/>
      <point x="199" y="47" type="curve"/>
      <point x="90" y="-125" type="line"/>
      <point x="166" y="-176" type="line"/>
      <point x="279" y="2" type="line"/>
      <point x="324" y="-14"/>
      <point x="373" y="-25"/>
      <point x="428" y="-25" type="curve" smooth="yes"/>
      <point x="743" y="-25"/>
      <point x="973" y="283"/>
    </contour>
    <contour>
      <point x="707" y="858" type="curve"/>
      <point x="297" y="203" type="line"/>
      <point x="281" y="248"/>
      <point x="270" y="303"/>
      <point x="270" y="373" type="curve" smooth="yes"/>
      <point x="270" y="639"/>
      <point x="406" y="924"/>
      <point x="584" y="924" type="curve" smooth="yes"/>
      <point x="631" y="924"/>
      <point x="674" y="901"/>
    </contour>
    <contour>
      <point x="766" y="623" type="curve" smooth="yes"/>
      <point x="766" y="381"/>
      <point x="647" y="68"/>
      <point x="453" y="68" type="curve" smooth="yes"/>
      <point x="414" y="68"/>
      <point x="379" y="82"/>
      <point x="348" y="113" type="curve"/>
      <point x="752" y="752" type="line"/>
      <point x="760" y="715"/>
      <point x="766" y="672"/>
    </contour>
  </outline>
</glyph>
<glyph name="LtnCapLCaron" format="2">
  <advance width="1061"/>
  <unicode hex="013D"/>
  <anchor x="426" y="0" name="H"/>
  <anchor x="406" y="-100" name="L"/>
  <anchor x="694" y="1500" name="U"/>
  <outline>
    <contour>
      <point x="-31" y="0" type="line"/>
      <point x="915" y="0" type="line"/>
      <point x="989" y="379" type="line"/>
      <point x="868" y="379" type="line"/>
      <point x="795" y="143" type="line" smooth="yes"/>
      <point x="786" y="119"/>
      <point x="770" y="102"/>
      <point x="743" y="102" type="curve" smooth="yes"/>
      <point x="340" y="102" type="line"/>
      <point x="557" y="1237" type="line" smooth="yes"/>
      <point x="561" y="1257"/>
      <point x="578" y="1276"/>
      <point x="608" y="1278" type="curve" smooth="yes"/>
      <point x="729" y="1288" type="line"/>
      <point x="729" y="1374" type="line"/>
      <point x="197" y="1374" type="line"/>
      <point x="197" y="1288" type="line"/>
      <point x="311" y="1278" type="line" smooth="yes"/>
      <point x="346" y="1276"/>
      <point x="354" y="1260"/>
      <point x="350" y="1237" type="curve" smooth="yes"/>
      <point x="137" y="135" type="line" smooth="yes"/>
      <point x="133" y="111"/>
      <point x="115" y="98"/>
      <point x="88" y="96" type="curve" smooth="yes"/>
      <point x="-31" y="86" type="line"/>
    </contour>
    <contour>
      <point x="778" y="1087" type="line"/>
      <point x="878" y="1087" type="line"/>
      <point x="1067" y="1441" type="line"/>
      <point x="1082" y="1509" type="line"/>
      <point x="907" y="1509" type="line"/>
    </contour>
  </outline>
</glyph>
<glyph name="LtnSmLCaron" format="2">
  <advance width="725"/>
  <unicode hex="013E"/>
  <anchor x="117" y="0" name="H"/>
  <anchor x="96" y="-100" name="L"/>
  <anchor x="420" y="1580" name="U"/>
  <outline>
    <contour>
      <point x="539" y="53" type="curve"/>
      <point x="539" y="131" type="line"/>
      <point x="516" y="125"/>
      <point x="412" y="90"/>
      <point x="373" y="90" type="curve" smooth="yes"/>
      <point x="315" y="90"/>
      <point x="268" y="147"/>
      <point x="279" y="203" type="curve" smooth="yes"/>
      <point x="528" y="1509" type="line"/>
      <point x="449" y="1509" type="line"/>
      <point x="129" y="1448" type="line"/>
      <point x="129" y="1386" type="line"/>
      <point x="311" y="1368" type="line"/>
      <point x="86" y="197" type="line" smooth="yes"/>
      <point x="82" y="170"/>
      <point x="80" y="145"/>
      <point x="80" y="125" type="curve" smooth="yes"/>
      <point x="80" y="37"/>
      <point x="129" y="-25"/>
      <point x="254" y="-25" type="curve" smooth="yes"/>
      <point x="350" y="-25"/>
      <point x="506" y="41"/>
    </contour>
    <contour>
      <point x="538" y="1087" type="line"/>
      <point x="638" y="1087" type="line"/>
      <point x="827" y="1441" type="line"/>
      <point x="842" y="1509" type="line"/>
      <point x="667" y="1509" type="line"/>
    </contour>
  </outline>
</glyph>
<glyph name="LtnSmLStrk" format="2">
  <advance width="563"/>
  <unicode hex="0142"/>
  <anchor x="166" y="-100" name="L"/>
  <anchor x="482" y="1540" name="U"/>
  <outline>
    <contour>
      <point x="672" y="915" type="line"/>
      <point x="625" y="1006" type="line"/>
      <point x="434" y="909" type="line"/>
      <point x="549" y="1509" type="line"/>
      <point x="469" y="1509" type="line"/>
      <point x="150" y="1448" type="line"/>
      <point x="150" y="1386" type="line"/>
      <point x="332" y="1368" type="line"/>
      <point x="223" y="801" type="line"/>
      <point x="-39" y="668" type="line"/>
      <point x="6" y="578" type="line"/>
      <point x="199" y="676" type="line"/>
      <point x="106" y="197" type="line" smooth="yes"/>
      <point x="102" y="170"/>
      <point x="98" y="145"/>
      <point x="98" y="125" type="curve" smooth="yes"/>
      <point x="98" y="37"/>
      <point x="150" y="-25"/>
      <point x="272" y="-25" type="curve" smooth="yes"/>
      <point x="371" y="-25"/>
      <point x="526" y="41"/>
      <point x="557" y="53" type="curve"/>
      <point x="557" y="131" type="line"/>
      <point x="537" y="125"/>
      <point x="430" y="90"/>
      <point x="391" y="90" type="curve" smooth="yes"/>
      <point x="336" y="90"/>
      <point x="289" y="147"/>
      <point x="299" y="203" type="curve" smooth="yes"/>
      <point x="410" y="782" type="line"/>
    </contour>
  </outline>
</glyph>
<glyph name="LtnCapEng" format="2">
  <advance width="1485"/>
  <unicode hex="014A"/>
  <anchor x="584" y="-500" name="L"/>
  <anchor x="948" y="1500" name="U"/>
  <outline>
    <contour>
      <point x="725" y="-469" type="curve" smooth="yes"/>
      <point x="1022" y="-469"/>
      <point x="1155" y="-362"/>
      <point x="1204" y="-90" type="curve"/>
      <point x="1405" y="979" type="line" smooth="yes"/>
      <point x="1409" y="1004"/>
      <point x="1411" y="1026"/>
      <point x="1411" y="1049" type="curve" smooth="yes"/>
      <point x="1411" y="1264"/>
      <point x="1214" y="1407"/>
      <point x="1030" y="1407" type="curve" smooth="yes"/>
      <point x="838" y="1407"/>
      <point x="668" y="1309"/>
      <point x="537" y="1128" type="curve"/>
      <point x="584" y="1374" type="line"/>
      <point x="195" y="1374" type="line"/>
      <point x="195" y="1288" type="line"/>
      <point x="309" y="1278" type="line" smooth="yes"/>
      <point x="346" y="1276"/>
      <point x="354" y="1260"/>
      <point x="350" y="1237" type="curve" smooth="yes"/>
      <point x="137" y="135" type="line" smooth="yes"/>
      <point x="133" y="111"/>
      <point x="115" y="98"/>
      <point x="88" y="96" type="curve" smooth="yes"/>
      <point x="-31" y="86" type="line"/>
      <point x="-31" y="0" type="line"/>
      <point x="504" y="0" type="line"/>
      <point x="504" y="86" type="line"/>
      <point x="385" y="96" type="line" smooth="yes"/>
      <point x="350" y="98"/>
      <point x="340" y="115"/>
      <point x="344" y="135" type="curve" smooth="yes"/>
      <point x="502" y="948" type="line"/>
      <point x="553" y="1038"/>
      <point x="782" y="1257"/>
      <point x="940" y="1257" type="curve" smooth="yes"/>
      <point x="1096" y="1257"/>
      <point x="1227" y="1143"/>
      <point x="1196" y="979" type="curve" smooth="yes"/>
      <point x="997" y="-90" type="line" smooth="yes"/>
      <point x="971" y="-231"/>
      <point x="950" y="-328"/>
      <point x="805" y="-354" type="curve"/>
      <point x="653" y="-180" type="line"/>
      <point x="596" y="-180"/>
      <point x="537" y="-268"/>
      <point x="537" y="-338" type="curve" smooth="yes"/>
      <point x="537" y="-416"/>
      <point x="647" y="-469"/>
    </contour>
  </outline>
</glyph>
<glyph name="LtnSmLigOe" format="2">
  <advance width="1530"/>
  <unicode hex="0153"/>
  <anchor x="745" y="0" name="H"/>
  <anchor x="685" y="-100" name="L"/>
  <anchor x="1256" y="0" name="O"/>
  <anchor x="1530" y="1000" name="R"/>
  <anchor x="929" y="1100" name="U"/>
  <outline>
    <contour>
      <point x="1493" y="784" type="curve" smooth="yes"/>
      <point x="1493" y="870"/>
      <point x="1446" y="1012"/>
      <point x="1274" y="1012" type="curve" smooth="yes"/>
      <point x="1139" y="1012"/>
      <point x="963" y="924"/>
      <point x="903" y="784" type="curve"/>
      <point x="860" y="909"/>
      <point x="756" y="1012"/>
      <point x="606" y="1012" type="curve" smooth="yes"/>
      <point x="264" y="1012"/>
      <point x="66" y="670"/>
      <point x="66" y="365" type="curve" smooth="yes"/>
      <point x="66" y="123"/>
      <point x="213" y="-25"/>
      <point x="430" y="-25" type="curve" smooth="yes"/>
      <point x="571" y="-25"/>
      <point x="690" y="27"/>
      <point x="782" y="176" type="curve"/>
      <point x="844" y="37"/>
      <point x="940" y="-25"/>
      <point x="1057" y="-25" type="curve" smooth="yes"/>
      <point x="1235" y="-25"/>
      <point x="1358" y="66"/>
      <point x="1468" y="168" type="curve"/>
      <point x="1468" y="297" type="line"/>
      <point x="1354" y="190"/>
      <point x="1233" y="98"/>
      <point x="1126" y="98" type="curve" smooth="yes"/>
      <point x="1012" y="98"/>
      <point x="930" y="199"/>
      <point x="930" y="358" type="curve" smooth="yes"/>
      <point x="930" y="381"/>
      <point x="932" y="424"/>
      <point x="936" y="451" type="curve"/>
      <point x="1083" y="461"/>
      <point x="1493" y="520"/>
    </contour>
    <contour>
      <point x="1313" y="784" type="curve" smooth="yes"/>
      <point x="1313" y="616"/>
      <point x="1090" y="539"/>
      <point x="946" y="528" type="curve"/>
      <point x="991" y="709"/>
      <point x="1090" y="915"/>
      <point x="1225" y="915" type="curve" smooth="yes"/>
      <point x="1305" y="915"/>
      <point x="1313" y="819"/>
    </contour>
    <contour>
      <point x="754" y="600" type="curve" smooth="yes"/>
      <point x="754" y="367"/>
      <point x="647" y="68"/>
      <point x="451" y="68" type="curve" smooth="yes"/>
      <point x="340" y="68"/>
      <point x="276" y="197"/>
      <point x="276" y="373" type="curve" smooth="yes"/>
      <point x="276" y="633"/>
      <point x="399" y="924"/>
      <point x="578" y="924" type="curve" smooth="yes"/>
      <point x="694" y="924"/>
      <point x="754" y="760"/>
    </contour>
  </outline>
</glyph>
<glyph name="LtnCapBHook" format="2">
  <advance width="1405"/>
  <unicode hex="0181"/>
  <anchor x="545" y="-100" name="L"/>
  <anchor x="833" y="1500" name="U"/>
  <outline>
    <contour>
      <point x="133" y="0" type="line"/>
      <point x="694" y="0" type="line" smooth="yes"/>
      <point x="1037" y="0"/>
      <point x="1299" y="123"/>
      <point x="1299" y="459" type="curve" smooth="yes"/>
      <point x="1299" y="637"/>
      <point x="1174" y="707"/>
      <point x="998" y="731" type="curve"/>
      <point x="1184" y="793"/>
      <point x="1338" y="901"/>
      <point x="1338" y="1112" type="curve" smooth="yes"/>
      <point x="1338" y="1270"/>
      <point x="1229" y="1374"/>
      <point x="934" y="1374" type="curve" smooth="yes"/>
      <point x="408" y="1374" type="line" smooth="yes"/>
      <point x="305" y="1374"/>
      <point x="127" y="1290"/>
      <point x="127" y="1126" type="curve" smooth="yes"/>
      <point x="127" y="1071"/>
      <point x="168" y="1014"/>
      <point x="225" y="1014" type="curve" smooth="yes"/>
      <point x="264" y="1014"/>
      <point x="318" y="1038"/>
      <point x="365" y="1081" type="curve"/>
      <point x="309" y="1225" type="line"/>
      <point x="309" y="1225"/>
      <point x="332" y="1266"/>
      <point x="404" y="1266" type="curve" smooth="yes"/>
      <point x="467" y="1266" type="line" smooth="yes"/>
      <point x="504" y="1266"/>
      <point x="512" y="1245"/>
      <point x="508" y="1225" type="curve" smooth="yes"/>
      <point x="301" y="135" type="line"/>
      <point x="295" y="111"/>
      <point x="287" y="98"/>
      <point x="260" y="96" type="curve" smooth="yes"/>
      <point x="133" y="86" type="line"/>
    </contour>
    <contour>
      <point x="627" y="92" type="curve" smooth="yes"/>
      <point x="592" y="92"/>
      <point x="533" y="96"/>
      <point x="502" y="98" type="curve"/>
      <point x="608" y="655" type="line"/>
      <point x="654" y="662"/>
      <point x="709" y="666"/>
      <point x="760" y="666" type="curve" smooth="yes"/>
      <point x="953" y="666"/>
      <point x="1075" y="604"/>
      <point x="1075" y="438" type="curve" smooth="yes"/>
      <point x="1075" y="221"/>
      <point x="920" y="92"/>
    </contour>
    <contour>
      <point x="723" y="756" type="curve" smooth="yes"/>
      <point x="707" y="756"/>
      <point x="658" y="758"/>
      <point x="629" y="760" type="curve"/>
      <point x="727" y="1280" type="line"/>
      <point x="750" y="1282"/>
      <point x="791" y="1286"/>
      <point x="832" y="1286" type="curve" smooth="yes"/>
      <point x="1006" y="1286"/>
      <point x="1112" y="1227"/>
      <point x="1112" y="1098" type="curve" smooth="yes"/>
      <point x="1112" y="913"/>
      <point x="981" y="756"/>
    </contour>
  </outline>
</glyph>
<glyph name="LtnCapBTopbar" format="2">
  <advance width="1214"/>
  <unicode hex="0182"/>
  <anchor x="473" y="-100" name="L"/>
  <anchor x="761" y="1500" name="U"/>
  <outline>
    <contour>
      <point x="-57" y="0" type="line"/>
      <point x="432" y="0" type="line" smooth="yes"/>
      <point x="802" y="0"/>
      <point x="1135" y="55"/>
      <point x="1135" y="459" type="curve" smooth="yes"/>
      <point x="1135" y="686"/>
      <point x="885" y="764"/>
      <point x="617" y="764" type="curve" smooth="yes"/>
      <point x="558" y="764"/>
      <point x="465" y="754"/>
      <point x="465" y="754" type="curve"/>
      <point x="557" y="1235" type="line"/>
      <point x="561" y="1251"/>
      <point x="580" y="1278"/>
      <point x="608" y="1278" type="curve" smooth="yes"/>
      <point x="952" y="1278" type="line" smooth="yes"/>
      <point x="973" y="1278"/>
      <point x="981" y="1257"/>
      <point x="979" y="1239" type="curve"/>
      <point x="971" y="1055" type="line"/>
      <point x="1083" y="1055" type="line"/>
      <point x="1147" y="1374" type="line"/>
      <point x="209" y="1374" type="line"/>
      <point x="209" y="1286" type="line"/>
      <point x="315" y="1278" type="line" smooth="yes"/>
      <point x="340" y="1276"/>
      <point x="354" y="1257"/>
      <point x="350" y="1235" type="curve" smooth="yes"/>
      <point x="137" y="139" type="line"/>
      <point x="135" y="123"/>
      <point x="115" y="98"/>
      <point x="86" y="96" type="curve" smooth="yes"/>
      <point x="-57" y="88" type="line"/>
    </contour>
    <contour>
      <point x="438" y="94" type="curve" smooth="yes"/>
      <point x="387" y="94"/>
      <point x="336" y="98"/>
      <point x="336" y="98" type="curve"/>
      <point x="445" y="656" type="line"/>
      <point x="445" y="656"/>
      <point x="535" y="666"/>
      <point x="578" y="666" type="curve" smooth="yes"/>
      <point x="793" y="666"/>
      <point x="911" y="604"/>
      <point x="911" y="438" type="curve" smooth="yes"/>
      <point x="911" y="194"/>
      <point x="731" y="94"/>
    </contour>
  </outline>
</glyph>
<glyph name="LtnCapCHook" format="2">
  <advance width="1290"/>
  <unicode hex="0187"/>
  <anchor x="583" y="-100" name="L"/>
  <anchor x="871" y="1500" name="U"/>
  <outline>
    <contour>
      <point x="1739" y="1622" type="curve" smooth="yes"/>
      <point x="1739" y="1681"/>
      <point x="1683" y="1729"/>
      <point x="1569" y="1729" type="curve" smooth="yes"/>
      <point x="1346" y="1729"/>
      <point x="1219" y="1579"/>
      <point x="1161" y="1374" type="curve"/>
      <point x="1079" y="1395"/>
      <point x="1006" y="1407"/>
      <point x="922" y="1407" type="curve" smooth="yes"/>
      <point x="434" y="1407"/>
      <point x="98" y="983"/>
      <point x="98" y="547" type="curve" smooth="yes"/>
      <point x="98" y="256"/>
      <point x="260" y="-33"/>
      <point x="668" y="-33" type="curve" smooth="yes"/>
      <point x="866" y="-33"/>
      <point x="1059" y="39"/>
      <point x="1090" y="49" type="curve"/>
      <point x="1145" y="381" type="line"/>
      <point x="1024" y="381" type="line"/>
      <point x="936" y="147" type="line" smooth="yes"/>
      <point x="928" y="129"/>
      <point x="905" y="109"/>
      <point x="889" y="106" type="curve"/>
      <point x="879" y="102"/>
      <point x="823" y="72"/>
      <point x="735" y="72" type="curve" smooth="yes"/>
      <point x="506" y="72"/>
      <point x="315" y="215"/>
      <point x="315" y="524" type="curve" smooth="yes"/>
      <point x="315" y="997"/>
      <point x="618" y="1303"/>
      <point x="932" y="1303" type="curve" smooth="yes"/>
      <point x="1030" y="1303"/>
      <point x="1096" y="1257"/>
      <point x="1106" y="1251" type="curve"/>
      <point x="1124" y="1245"/>
      <point x="1143" y="1217"/>
      <point x="1143" y="1196" type="curve" smooth="yes"/>
      <point x="1143" y="1006" type="line"/>
      <point x="1264" y="1006" type="line"/>
      <point x="1319" y="1325" type="line" smooth="yes"/>
      <point x="1356" y="1534"/>
      <point x="1368" y="1591"/>
      <point x="1468" y="1626" type="curve"/>
      <point x="1626" y="1487" type="line"/>
      <point x="1683" y="1501"/>
      <point x="1739" y="1561"/>
    </contour>
  </outline>
</glyph>
<glyph name="LtnSmCHook" format="2">
  <advance width="929"/>
  <unicode hex="0188"/>
  <anchor x="338" y="-100" name="L"/>
  <anchor x="609" y="1250" name="U"/>
  <outline>
    <component base="LtnSmC"/>
    <contour>
      <point x="796" y="890" type="line"/>
      <point x="833" y="1080"/>
      <point x="867" y="1185"/>
      <point x="911" y="1205" type="curve"/>
      <point x="1073" y="1095" type="line"/>
      <point x="1122" y="1103"/>
      <point x="1186" y="1138"/>
      <point x="1186" y="1207" type="curve" smooth="yes"/>
      <point x="1186" y="1265"/>
      <point x="1161" y="1330"/>
      <point x="1032" y="1330" type="curve" smooth="yes"/>
      <point x="827" y="1330"/>
      <point x="709" y="1167"/>
      <point x="673" y="961" type="curve"/>
    </contour>
  </outline>
</glyph>
<glyph name="LtnCapDHook" format="2">
  <advance width="1522"/>
  <unicode hex="018A"/>
  <anchor x="604" y="-100" name="L"/>
  <anchor x="892" y="1500" name="U"/>
  <outline>
    <contour>
      <point x="117" y="0" type="line"/>
      <point x="598" y="0" type="line" smooth="yes"/>
      <point x="1123" y="0"/>
      <point x="1485" y="346"/>
      <point x="1485" y="850" type="curve" smooth="yes"/>
      <point x="1485" y="1239"/>
      <point x="1204" y="1374"/>
      <point x="832" y="1374" type="curve" smooth="yes"/>
      <point x="408" y="1374" type="line" smooth="yes"/>
      <point x="305" y="1374"/>
      <point x="127" y="1290"/>
      <point x="127" y="1126" type="curve" smooth="yes"/>
      <point x="127" y="1071"/>
      <point x="168" y="1014"/>
      <point x="226" y="1014" type="curve" smooth="yes"/>
      <point x="264" y="1014"/>
      <point x="318" y="1038"/>
      <point x="365" y="1081" type="curve"/>
      <point x="310" y="1225" type="line"/>
      <point x="310" y="1225"/>
      <point x="332" y="1266"/>
      <point x="404" y="1266" type="curve" smooth="yes"/>
      <point x="467" y="1266" type="line" smooth="yes"/>
      <point x="488" y="1266"/>
      <point x="504" y="1257"/>
      <point x="500" y="1237" type="curve" smooth="yes"/>
      <point x="285" y="135" type="line" smooth="yes"/>
      <point x="281" y="111"/>
      <point x="271" y="98"/>
      <point x="244" y="96" type="curve" smooth="yes"/>
      <point x="117" y="86" type="line"/>
    </contour>
    <contour>
      <point x="486" y="106" type="line"/>
      <point x="713" y="1272" type="line"/>
      <point x="785" y="1272" type="line"/>
      <point x="1039" y="1264"/>
      <point x="1264" y="1210"/>
      <point x="1264" y="868" type="curve" smooth="yes"/>
      <point x="1264" y="479"/>
      <point x="1049" y="111"/>
      <point x="635" y="106" type="curve"/>
    </contour>
  </outline>
</glyph>
<glyph name="LtnCapDTopbar" format="2">
  <advance width="1263"/>
  <unicode hex="018B"/>
  <anchor x="537" y="-100" name="L"/>
  <anchor x="825" y="1500" name="U"/>
  <outline>
    <contour>
      <point x="609" y="0" type="curve" smooth="yes"/>
      <point x="1124" y="0" type="line"/>
      <point x="1124" y="86" type="line"/>
      <point x="1005" y="96" type="line" smooth="yes"/>
      <point x="968" y="99"/>
      <point x="960" y="115"/>
      <point x="964" y="135" type="curve" smooth="yes"/>
      <point x="1177" y="1237" type="line" smooth="yes"/>
      <point x="1182" y="1264"/>
      <point x="1191" y="1276"/>
      <point x="1218" y="1278" type="curve" smooth="yes"/>
      <point x="1349" y="1288" type="line"/>
      <point x="1349" y="1374" type="line"/>
      <point x="384" y="1374" type="line"/>
      <point x="321" y="1055" type="line"/>
      <point x="433" y="1055" type="line"/>
      <point x="505" y="1241" type="line"/>
      <point x="513" y="1261"/>
      <point x="528" y="1278"/>
      <point x="542" y="1278" type="curve" smooth="yes"/>
      <point x="935" y="1278" type="line" smooth="yes"/>
      <point x="966" y="1278"/>
      <point x="974" y="1253"/>
      <point x="970" y="1235" type="curve"/>
      <point x="875" y="745" type="line"/>
      <point x="811" y="750"/>
      <point x="778" y="755"/>
      <point x="696" y="755" type="curve" smooth="yes"/>
      <point x="384" y="755"/>
      <point x="61" y="651"/>
      <point x="61" y="326" type="curve" smooth="yes"/>
      <point x="61" y="159"/>
      <point x="189" y="0"/>
    </contour>
    <contour>
      <point x="589" y="96" type="curve" smooth="yes"/>
      <point x="409" y="96"/>
      <point x="293" y="190"/>
      <point x="293" y="336" type="curve" smooth="yes"/>
      <point x="293" y="593"/>
      <point x="457" y="666"/>
      <point x="710" y="666" type="curve"/>
      <point x="768" y="666"/>
      <point x="821" y="663"/>
      <point x="857" y="656" type="curve"/>
      <point x="751" y="102" type="line"/>
      <point x="725" y="100"/>
      <point x="659" y="96"/>
    </contour>
  </outline>
</glyph>
<glyph name="LtnCapOpnE" format="2">
  <advance width="1114"/>
  <unicode hex="0190"/>
  <anchor x="475" y="-100" name="L"/>
  <anchor x="763" y="1500" name="U"/>
  <outline>
    <contour>
      <point x="1145" y="1165" type="curve" smooth="yes"/>
      <point x="1145" y="1354"/>
      <point x="954" y="1407"/>
      <point x="743" y="1407" type="curve" smooth="yes"/>
      <point x="479" y="1407"/>
      <point x="252" y="1237"/>
      <point x="252" y="987" type="curve" smooth="yes"/>
      <point x="252" y="860"/>
      <point x="340" y="782"/>
      <point x="475" y="727" type="curve"/>
      <point x="315" y="705"/>
      <point x="41" y="616"/>
      <point x="41" y="299" type="curve" smooth="yes"/>
      <point x="41" y="55"/>
      <point x="252" y="-33"/>
      <point x="520" y="-33" type="curve" smooth="yes"/>
      <point x="735" y="-33"/>
      <point x="983" y="76"/>
      <point x="983" y="221" type="curve" smooth="yes"/>
      <point x="983" y="276"/>
      <point x="948" y="315"/>
      <point x="872" y="315" type="curve" smooth="yes"/>
      <point x="850" y="315"/>
      <point x="811" y="303"/>
      <point x="797" y="299" type="curve"/>
      <point x="702" y="127" type="line"/>
      <point x="647" y="88"/>
      <point x="592" y="74"/>
      <point x="543" y="74" type="curve" smooth="yes"/>
      <point x="406" y="74"/>
      <point x="270" y="170"/>
      <point x="270" y="332" type="curve" smooth="yes"/>
      <point x="270" y="541"/>
      <point x="428" y="651"/>
      <point x="621" y="651" type="curve" smooth="yes"/>
      <point x="647" y="651"/>
      <point x="700" y="645"/>
      <point x="739" y="641" type="curve"/>
      <point x="764" y="774" type="line"/>
      <point x="731" y="772"/>
      <point x="709" y="772"/>
      <point x="696" y="772" type="curve" smooth="yes"/>
      <point x="588" y="772"/>
      <point x="475" y="813"/>
      <point x="475" y="965" type="curve" smooth="yes"/>
      <point x="475" y="1137"/>
      <point x="598" y="1292"/>
      <point x="768" y="1292" type="curve" smooth="yes"/>
      <point x="774" y="1292"/>
      <point x="786" y="1290"/>
      <point x="807" y="1280" type="curve"/>
      <point x="895" y="1047" type="line"/>
      <point x="895" y="1047"/>
      <point x="922" y="1004"/>
      <point x="985" y="1004" type="curve" smooth="yes"/>
      <point x="1090" y="1004"/>
      <point x="1145" y="1090"/>
    </contour>
  </outline>
</glyph>
<glyph name="LtnCapGHook" format="2">
  <advance width="1409"/>
  <unicode hex="0193"/>
  <anchor x="597" y="-100" name="L"/>
  <anchor x="885" y="1500" name="U"/>
  <outline>
    <contour>
      <point x="680" y="-33" type="curve" smooth="yes"/>
      <point x="850" y="-33"/>
      <point x="1081" y="37"/>
      <point x="1122" y="47" type="curve"/>
      <point x="1214" y="528" type="line" smooth="yes"/>
      <point x="1221" y="555"/>
      <point x="1239" y="565"/>
      <point x="1266" y="567" type="curve" smooth="yes"/>
      <point x="1382" y="578" type="line"/>
      <point x="1382" y="664" type="line"/>
      <point x="854" y="664" type="line"/>
      <point x="854" y="578" type="line"/>
      <point x="967" y="567" type="line" smooth="yes"/>
      <point x="1004" y="565"/>
      <point x="1012" y="551"/>
      <point x="1008" y="528" type="curve" smooth="yes"/>
      <point x="928" y="111" type="line"/>
      <point x="895" y="102"/>
      <point x="803" y="76"/>
      <point x="721" y="76" type="curve" smooth="yes"/>
      <point x="573" y="76"/>
      <point x="324" y="186"/>
      <point x="324" y="516" type="curve" smooth="yes"/>
      <point x="324" y="989"/>
      <point x="649" y="1296"/>
      <point x="956" y="1296" type="curve" smooth="yes"/>
      <point x="1055" y="1296"/>
      <point x="1120" y="1257"/>
      <point x="1130" y="1251" type="curve"/>
      <point x="1149" y="1245"/>
      <point x="1167" y="1210"/>
      <point x="1167" y="1190" type="curve" smooth="yes"/>
      <point x="1159" y="1008" type="line"/>
      <point x="1298" y="1008" type="line"/>
      <point x="1358" y="1327" type="line" smooth="yes"/>
      <point x="1397" y="1534"/>
      <point x="1407" y="1593"/>
      <point x="1507" y="1628" type="curve"/>
      <point x="1665" y="1489" type="line"/>
      <point x="1724" y="1503"/>
      <point x="1778" y="1563"/>
      <point x="1778" y="1622" type="curve" smooth="yes"/>
      <point x="1778" y="1683"/>
      <point x="1722" y="1731"/>
      <point x="1608" y="1731" type="curve" smooth="yes"/>
      <point x="1384" y="1731"/>
      <point x="1260" y="1585"/>
      <point x="1202" y="1380" type="curve"/>
      <point x="1120" y="1401"/>
      <point x="1063" y="1407"/>
      <point x="981" y="1407" type="curve" smooth="yes"/>
      <point x="541" y="1407"/>
      <point x="98" y="1073"/>
      <point x="98" y="549" type="curve" smooth="yes"/>
      <point x="98" y="319"/>
      <point x="213" y="-33"/>
    </contour>
  </outline>
</glyph>
<glyph name="LtnSmKHook" format="2">
  <advance width="1042"/>
  <unicode hex="0199"/>
  <anchor x="494" y="-100" name="L"/>
  <anchor x="810" y="1540" name="U"/>
  <outline>
    <contour>
      <point x="1018" y="47" type="curve"/>
      <point x="1018" y="117" type="line"/>
      <point x="983" y="100"/>
      <point x="920" y="86"/>
      <point x="891" y="86" type="curve" smooth="yes"/>
      <point x="819" y="86"/>
      <point x="741" y="190"/>
      <point x="680" y="305" type="curve" smooth="yes"/>
      <point x="618" y="416"/>
      <point x="573" y="563"/>
      <point x="537" y="633" type="curve"/>
      <point x="600" y="690"/>
      <point x="705" y="782"/>
      <point x="780" y="840" type="curve"/>
      <point x="850" y="766" type="line"/>
      <point x="946" y="799"/>
      <point x="987" y="854"/>
      <point x="987" y="901" type="curve" smooth="yes"/>
      <point x="989" y="952"/>
      <point x="946" y="1012"/>
      <point x="854" y="1012" type="curve" smooth="yes"/>
      <point x="782" y="1012"/>
      <point x="737" y="979"/>
      <point x="659" y="899" type="curve" smooth="yes"/>
      <point x="328" y="557" type="line"/>
      <point x="438" y="1100" type="line" smooth="yes"/>
      <point x="477" y="1288"/>
      <point x="569" y="1395"/>
      <point x="690" y="1397" type="curve"/>
      <point x="788" y="1266" type="line"/>
      <point x="788" y="1266"/>
      <point x="909" y="1292"/>
      <point x="926" y="1384" type="curve" smooth="yes"/>
      <point x="938" y="1444"/>
      <point x="899" y="1509"/>
      <point x="772" y="1509" type="curve" smooth="yes"/>
      <point x="612" y="1509"/>
      <point x="451" y="1452"/>
      <point x="336" y="1288" type="curve" smooth="yes"/>
      <point x="276" y="1202"/>
      <point x="250" y="1122"/>
      <point x="225" y="1006" type="curve"/>
      <point x="27" y="0" type="line"/>
      <point x="215" y="0" type="line"/>
      <point x="299" y="416" type="line"/>
      <point x="393" y="500" type="line"/>
      <point x="436" y="410"/>
      <point x="545" y="156"/>
      <point x="600" y="72" type="curve" smooth="yes"/>
      <point x="633" y="23"/>
      <point x="698" y="-25"/>
      <point x="764" y="-25" type="curve" smooth="yes"/>
      <point x="829" y="-25"/>
      <point x="950" y="12"/>
    </contour>
  </outline>
</glyph>
<glyph name="LtnSmLambdaStrk" format="2">
  <advance width="1089"/>
  <unicode hex="019B"/>
  <anchor x="427" y="-100" name="L"/>
  <anchor x="931" y="1400" name="U"/>
  <outline>
    <contour>
      <point x="817" y="-25" type="curve" smooth="yes"/>
      <point x="896" y="-25"/>
      <point x="1050" y="40"/>
      <point x="1083" y="55" type="curve"/>
      <point x="1083" y="129" type="line"/>
      <point x="1062" y="123"/>
      <point x="976" y="96"/>
      <point x="948" y="96" type="curve" smooth="yes"/>
      <point x="902" y="96"/>
      <point x="872" y="120"/>
      <point x="860" y="190" type="curve"/>
      <point x="639" y="1509" type="line"/>
      <point x="580" y="1509" type="line"/>
      <point x="276" y="1448" type="line"/>
      <point x="276" y="1386" type="line"/>
      <point x="479" y="1368" type="line"/>
      <point x="688" y="115" type="line"/>
      <point x="701" y="25"/>
      <point x="738" y="-25"/>
    </contour>
    <contour>
      <point x="146" y="-25" type="curve" smooth="yes"/>
      <point x="197" y="-25"/>
      <point x="238" y="-6"/>
      <point x="267" y="20" type="curve"/>
      <point x="228" y="268" type="line"/>
      <point x="325" y="507"/>
      <point x="499" y="724"/>
      <point x="613" y="859" type="curve"/>
      <point x="595" y="988" type="line"/>
      <point x="462" y="848"/>
      <point x="174" y="473"/>
      <point x="64" y="252" type="curve" smooth="yes"/>
      <point x="51" y="226"/>
      <point x="21" y="158"/>
      <point x="21" y="98" type="curve" smooth="yes"/>
      <point x="21" y="25"/>
      <point x="60" y="-25"/>
    </contour>
    <contour>
      <point x="248" y="968" type="line"/>
      <point x="994" y="1187" type="line"/>
      <point x="994" y="1303" type="line"/>
      <point x="248" y="1084" type="line"/>
    </contour>
  </outline>
</glyph>
<glyph name="LtnCapNLftHook" format="2">
  <advance width="1485"/>
  <unicode hex="019D"/>
  <anchor x="631" y="-100" name="L"/>
  <anchor x="919" y="1500" name="U"/>
  <outline>
    <contour>
      <point x="-170" y="-469" type="curve" smooth="yes"/>
      <point x="127" y="-469"/>
      <point x="256" y="-362"/>
      <point x="307" y="-90" type="curve" smooth="yes"/>
      <point x="504" y="948" type="line"/>
      <point x="555" y="1038"/>
      <point x="782" y="1257"/>
      <point x="940" y="1257" type="curve" smooth="yes"/>
      <point x="1096" y="1257"/>
      <point x="1227" y="1143"/>
      <point x="1196" y="979" type="curve" smooth="yes"/>
      <point x="1038" y="135" type="line" smooth="yes"/>
      <point x="1034" y="111"/>
      <point x="1016" y="98"/>
      <point x="989" y="96" type="curve" smooth="yes"/>
      <point x="870" y="86" type="line"/>
      <point x="870" y="0" type="line"/>
      <point x="1401" y="0" type="line"/>
      <point x="1401" y="86" type="line"/>
      <point x="1286" y="96" type="line" smooth="yes"/>
      <point x="1251" y="98"/>
      <point x="1241" y="115"/>
      <point x="1245" y="135" type="curve" smooth="yes"/>
      <point x="1405" y="979" type="line" smooth="yes"/>
      <point x="1409" y="1004"/>
      <point x="1411" y="1026"/>
      <point x="1411" y="1049" type="curve" smooth="yes"/>
      <point x="1411" y="1264"/>
      <point x="1214" y="1407"/>
      <point x="1030" y="1407" type="curve" smooth="yes"/>
      <point x="838" y="1407"/>
      <point x="670" y="1309"/>
      <point x="537" y="1128" type="curve"/>
      <point x="584" y="1374" type="line"/>
      <point x="195" y="1374" type="line"/>
      <point x="195" y="1288" type="line"/>
      <point x="309" y="1278" type="line" smooth="yes"/>
      <point x="346" y="1276"/>
      <point x="354" y="1260"/>
      <point x="350" y="1237" type="curve" smooth="yes"/>
      <point x="100" y="-90" type="line" smooth="yes"/>
      <point x="74" y="-231"/>
      <point x="55" y="-328"/>
      <point x="-90" y="-354" type="curve"/>
      <point x="-240" y="-180" type="line"/>
      <point x="-297" y="-180"/>
      <point x="-358" y="-268"/>
      <point x="-358" y="-338" type="curve" smooth="yes"/>
      <point x="-358" y="-416"/>
      <point x="-248" y="-469"/>
    </contour>
  </outline>
</glyph>
<glyph name="LtnSmNLngRtLeg" format="2">
  <advance width="1085"/>
  <unicode hex="019E"/>
  <anchor x="340" y="-500" name="L"/>
  <anchor x="650" y="1100" name="U"/>
  <outline>
    <contour>
      <point x="991" y="-406" type="curve"/>
      <point x="989" y="-334" type="line"/>
      <point x="942" y="-348"/>
      <point x="897" y="-360"/>
      <point x="860" y="-360" type="curve" smooth="yes"/>
      <point x="836" y="-360"/>
      <point x="757" y="-352"/>
      <point x="772" y="-272" type="curve" smooth="yes"/>
      <point x="969" y="750" type="line" smooth="yes"/>
      <point x="1004" y="932"/>
      <point x="936" y="1012"/>
      <point x="786" y="1012" type="curve" smooth="yes"/>
      <point x="649" y="1012"/>
      <point x="496" y="913"/>
      <point x="406" y="821" type="curve"/>
      <point x="444" y="1012" type="line"/>
      <point x="362" y="1012" type="line"/>
      <point x="53" y="948" type="line"/>
      <point x="53" y="889" type="line"/>
      <point x="225" y="870" type="line"/>
      <point x="47" y="0" type="line"/>
      <point x="238" y="0" type="line"/>
      <point x="379" y="688" type="line"/>
      <point x="469" y="784"/>
      <point x="608" y="866"/>
      <point x="674" y="866" type="curve" smooth="yes"/>
      <point x="719" y="866"/>
      <point x="786" y="834"/>
      <point x="764" y="725" type="curve" smooth="yes"/>
      <point x="551" y="-350" type="line" smooth="yes"/>
      <point x="529" y="-461"/>
      <point x="668" y="-469"/>
      <point x="717" y="-469" type="curve" smooth="yes"/>
      <point x="803" y="-469"/>
      <point x="956" y="-418"/>
    </contour>
  </outline>
</glyph>
<glyph name="LtnCapOi" format="2">
  <advance width="1789"/>
  <unicode hex="01A2"/>
  <anchor x="830" y="-100" name="L"/>
  <anchor x="968" y="1500" name="U"/>
  <outline>
    <contour>
      <point x="1346" y="1265" type="line"/>
      <point x="1217" y="1378"/>
      <point x="1047" y="1407"/>
      <point x="895" y="1407" type="curve" smooth="yes"/>
      <point x="415" y="1407"/>
      <point x="98" y="952"/>
      <point x="98" y="552" type="curve" smooth="yes"/>
      <point x="98" y="234"/>
      <point x="299" y="-33"/>
      <point x="647" y="-33" type="curve" smooth="yes"/>
      <point x="885" y="-33"/>
      <point x="1058" y="79"/>
      <point x="1135" y="179" type="curve"/>
    </contour>
    <contour>
      <point x="939" y="234" type="line"/>
      <point x="891" y="160"/>
      <point x="776" y="72"/>
      <point x="666" y="72" type="curve" smooth="yes"/>
      <point x="478" y="72"/>
      <point x="328" y="235"/>
      <point x="328" y="514" type="curve" smooth="yes"/>
      <point x="328" y="829"/>
      <point x="504" y="1290"/>
      <point x="882" y="1290" type="curve" smooth="yes"/>
      <point x="995" y="1290"/>
      <point x="1047" y="1269"/>
      <point x="1128" y="1209" type="curve"/>
    </contour>
    <contour>
      <point x="1225" y="1240" type="line"/>
      <point x="1264" y="1126" type="line"/>
      <point x="1521" y="1177" type="line"/>
      <point x="1233" y="-305" type="line" smooth="yes"/>
      <point x="1229" y="-325"/>
      <point x="1211" y="-348"/>
      <point x="1182" y="-350" type="curve" smooth="yes"/>
      <point x="1058" y="-358" type="line"/>
      <point x="1058" y="-446" type="line"/>
      <point x="1603" y="-446" type="line"/>
      <point x="1603" y="-358" type="line"/>
      <point x="1475" y="-350" type="line" smooth="yes"/>
      <point x="1447" y="-348"/>
      <point x="1436" y="-325"/>
      <point x="1440" y="-305" type="curve" smooth="yes"/>
      <point x="1773" y="1407" type="line"/>
      <point x="1680" y="1407" type="line"/>
    </contour>
  </outline>
</glyph>
<glyph name="LtnSmOi" format="2">
  <advance width="1424"/>
  <unicode hex="01A3"/>
  <anchor x="658" y="-100" name="L"/>
  <anchor x="902" y="1100" name="U"/>
  <outline>
    <contour>
      <point x="977" y="901" type="line"/>
      <point x="885" y="968"/>
      <point x="809" y="1012"/>
      <point x="635" y="1012" type="curve" smooth="yes"/>
      <point x="285" y="1012"/>
      <point x="63" y="694"/>
      <point x="63" y="362" type="curve" smooth="yes"/>
      <point x="63" y="125"/>
      <point x="208" y="-25"/>
      <point x="450" y="-25" type="curve" smooth="yes"/>
      <point x="617" y="-25"/>
      <point x="759" y="56"/>
      <point x="831" y="150" type="curve"/>
    </contour>
    <contour>
      <point x="467" y="68" type="curve" smooth="yes"/>
      <point x="350" y="68"/>
      <point x="270" y="172"/>
      <point x="270" y="373" type="curve" smooth="yes"/>
      <point x="270" y="615"/>
      <point x="394" y="920"/>
      <point x="618" y="920" type="curve" smooth="yes"/>
      <point x="678" y="920"/>
      <point x="730" y="895"/>
      <point x="780" y="854" type="curve"/>
      <point x="653" y="200" type="line"/>
      <point x="609" y="128"/>
      <point x="549" y="68"/>
    </contour>
    <contour>
      <point x="885" y="888" type="line"/>
      <point x="908" y="792" type="line"/>
      <point x="1137" y="827" type="line"/>
      <point x="914" y="-317" type="line" smooth="yes"/>
      <point x="909" y="-344"/>
      <point x="887" y="-356"/>
      <point x="863" y="-358" type="curve" smooth="yes"/>
      <point x="754" y="-369" type="line"/>
      <point x="754" y="-446" type="line"/>
      <point x="1270" y="-446" type="line"/>
      <point x="1270" y="-369" type="line"/>
      <point x="1143" y="-358" type="line" smooth="yes"/>
      <point x="1110" y="-355"/>
      <point x="1100" y="-346"/>
      <point x="1106" y="-317" type="curve" smooth="yes"/>
      <point x="1365" y="1012" type="line"/>
      <point x="1281" y="1012" type="line"/>
    </contour>
  </outline>
</glyph>
<glyph name="LtnCapPHook" format="2">
  <advance width="1355"/>
  <unicode hex="01A4"/>
  <anchor x="509" y="-100" name="L"/>
  <anchor x="797" y="1500" name="U"/>
  <outline>
    <contour>
      <point x="135" y="0" type="line"/>
      <point x="667" y="0" type="line"/>
      <point x="667" y="86" type="line"/>
      <point x="548" y="96" type="line" smooth="yes"/>
      <point x="513" y="99"/>
      <point x="505" y="115"/>
      <point x="509" y="135" type="curve" smooth="yes"/>
      <point x="583" y="516" type="line"/>
      <point x="622" y="514"/>
      <point x="684" y="512"/>
      <point x="714" y="512" type="curve" smooth="yes"/>
      <point x="1071" y="512"/>
      <point x="1339" y="717"/>
      <point x="1339" y="1047" type="curve" smooth="yes"/>
      <point x="1339" y="1237"/>
      <point x="1206" y="1374"/>
      <point x="872" y="1374" type="curve" smooth="yes"/>
      <point x="479" y="1374" type="line" smooth="yes"/>
      <point x="323" y="1374"/>
      <point x="128" y="1321"/>
      <point x="128" y="1128" type="curve" smooth="yes"/>
      <point x="128" y="1071"/>
      <point x="165" y="1022"/>
      <point x="219" y="1022" type="curve" smooth="yes"/>
      <point x="268" y="1022"/>
      <point x="313" y="1040"/>
      <point x="362" y="1083" type="curve"/>
      <point x="305" y="1229" type="line"/>
      <point x="333" y="1262"/>
      <point x="364" y="1278"/>
      <point x="436" y="1278" type="curve" smooth="yes"/>
      <point x="483" y="1278" type="line" smooth="yes"/>
      <point x="509" y="1278"/>
      <point x="521" y="1262"/>
      <point x="516" y="1235" type="curve" smooth="yes"/>
      <point x="303" y="135" type="line"/>
      <point x="296" y="111"/>
      <point x="278" y="98"/>
      <point x="251" y="96" type="curve" smooth="yes"/>
      <point x="135" y="86" type="line"/>
    </contour>
    <contour>
      <point x="604" y="623" type="curve"/>
      <point x="731" y="1274" type="line"/>
      <point x="749" y="1276"/>
      <point x="784" y="1278"/>
      <point x="806" y="1278" type="curve" smooth="yes"/>
      <point x="1042" y="1278"/>
      <point x="1126" y="1169"/>
      <point x="1126" y="1012" type="curve" smooth="yes"/>
      <point x="1126" y="852"/>
      <point x="1048" y="746"/>
      <point x="946" y="688" type="curve" smooth="yes"/>
      <point x="846" y="631"/>
      <point x="742" y="623"/>
    </contour>
  </outline>
</glyph>
<glyph name="LtnSmPHook" format="2">
  <advance width="1012"/>
  <unicode hex="01A5"/>
  <anchor x="573" y="-100" name="L"/>
  <anchor x="651" y="1540" name="U"/>
  <outline>
    <contour>
      <point x="-197" y="-446" type="line"/>
      <point x="319" y="-446" type="line"/>
      <point x="319" y="-369" type="line"/>
      <point x="190" y="-358" type="line" smooth="yes"/>
      <point x="154" y="-355"/>
      <point x="145" y="-340"/>
      <point x="150" y="-317" type="curve" smooth="yes"/>
      <point x="215" y="12" type="line"/>
      <point x="248" y="-4"/>
      <point x="299" y="-25"/>
      <point x="360" y="-25" type="curve" smooth="yes"/>
      <point x="694" y="-25"/>
      <point x="946" y="297"/>
      <point x="946" y="633" type="curve" smooth="yes"/>
      <point x="946" y="815"/>
      <point x="885" y="1012"/>
      <point x="678" y="1012" type="curve" smooth="yes"/>
      <point x="563" y="1012"/>
      <point x="443" y="930"/>
      <point x="383" y="885" type="curve"/>
      <point x="420" y="1067" type="line" smooth="yes"/>
      <point x="466" y="1292"/>
      <point x="602" y="1405"/>
      <point x="733" y="1405" type="curve" smooth="yes"/>
      <point x="778" y="1405"/>
      <point x="815" y="1397"/>
      <point x="836" y="1376" type="curve"/>
      <point x="870" y="1204" type="line"/>
      <point x="878" y="1200"/>
      <point x="897" y="1194"/>
      <point x="918" y="1194" type="curve" smooth="yes"/>
      <point x="979" y="1194"/>
      <point x="1042" y="1247"/>
      <point x="1042" y="1311" type="curve" smooth="yes"/>
      <point x="1042" y="1450"/>
      <point x="924" y="1509"/>
      <point x="743" y="1509" type="curve" smooth="yes"/>
      <point x="461" y="1509"/>
      <point x="276" y="1305"/>
      <point x="238" y="1110" type="curve" smooth="yes"/>
      <point x="-41" y="-317" type="line" smooth="yes"/>
      <point x="-46" y="-344"/>
      <point x="-63" y="-355"/>
      <point x="-90" y="-358" type="curve" smooth="yes"/>
      <point x="-197" y="-369" type="line"/>
    </contour>
    <contour>
      <point x="401" y="72" type="curve" smooth="yes"/>
      <point x="330" y="72"/>
      <point x="262" y="117"/>
      <point x="238" y="133" type="curve"/>
      <point x="360" y="768" type="line"/>
      <point x="381" y="789"/>
      <point x="485" y="887"/>
      <point x="584" y="887" type="curve" smooth="yes"/>
      <point x="694" y="887"/>
      <point x="743" y="745"/>
      <point x="743" y="625" type="curve" smooth="yes"/>
      <point x="743" y="397"/>
      <point x="625" y="72"/>
    </contour>
  </outline>
</glyph>
<glyph name="LtnSmTnTwo" format="2">
  <advance width="754"/>
  <unicode hex="01A8"/>
  <anchor x="294" y="-100" name="L"/>
  <anchor x="538" y="1100" name="U"/>
  <outline>
    <contour>
      <point x="436" y="921" type="curve" smooth="yes"/>
      <point x="504" y="921"/>
      <point x="571" y="872"/>
      <point x="571" y="811" type="curve" smooth="yes"/>
      <point x="571" y="720"/>
      <point x="491" y="665"/>
      <point x="324" y="565" type="curve" smooth="yes"/>
      <point x="160" y="467"/>
      <point x="28" y="371"/>
      <point x="28" y="194" type="curve" smooth="yes"/>
      <point x="28" y="44"/>
      <point x="141" y="-25"/>
      <point x="336" y="-25" type="curve" smooth="yes"/>
      <point x="499" y="-25"/>
      <point x="690" y="61"/>
      <point x="690" y="189" type="curve" smooth="yes"/>
      <point x="690" y="256"/>
      <point x="643" y="294"/>
      <point x="597" y="294" type="curve" smooth="yes"/>
      <point x="552" y="294"/>
      <point x="511" y="283"/>
      <point x="499" y="274" type="curve"/>
      <point x="468" y="132" type="line"/>
      <point x="432" y="93"/>
      <point x="394" y="68"/>
      <point x="340" y="68" type="curve" smooth="yes"/>
      <point x="247" y="68"/>
      <point x="191" y="125"/>
      <point x="191" y="194" type="curve" smooth="yes"/>
      <point x="191" y="276"/>
      <point x="239" y="307"/>
      <point x="470" y="455" type="curve" smooth="yes"/>
      <point x="648" y="569"/>
      <point x="737" y="637"/>
      <point x="737" y="803" type="curve" smooth="yes"/>
      <point x="737" y="940"/>
      <point x="627" y="1010"/>
      <point x="439" y="1010" type="curve" smooth="yes"/>
      <point x="285" y="1010"/>
      <point x="146" y="948"/>
      <point x="146" y="834" type="curve" smooth="yes"/>
      <point x="146" y="777"/>
      <point x="180" y="750"/>
      <point x="222" y="750" type="curve" smooth="yes"/>
      <point x="250" y="750"/>
      <point x="290" y="764"/>
      <point x="304" y="770" type="curve"/>
      <point x="355" y="895" type="line"/>
      <point x="363" y="901"/>
      <point x="411" y="921"/>
    </contour>
  </outline>
</glyph>
<glyph name="LtnCapTHook" format="2">
  <advance width="1197"/>
  <unicode hex="01AC"/>
  <anchor x="466" y="-100" name="L"/>
  <anchor x="754" y="1500" name="U"/>
  <outline>
    <contour>
      <point x="251" y="0" type="line"/>
      <point x="783" y="0" type="line"/>
      <point x="783" y="86" type="line"/>
      <point x="667" y="96" type="line" smooth="yes"/>
      <point x="630" y="98"/>
      <point x="622" y="115"/>
      <point x="626" y="135" type="curve" smooth="yes"/>
      <point x="839" y="1282" type="line"/>
      <point x="1103" y="1282" type="line" smooth="yes"/>
      <point x="1132" y="1282"/>
      <point x="1144" y="1270"/>
      <point x="1142" y="1241" type="curve" smooth="yes"/>
      <point x="1134" y="1061" type="line"/>
      <point x="1263" y="1061" type="line"/>
      <point x="1326" y="1374" type="line"/>
      <point x="413" y="1374" type="line" smooth="yes"/>
      <point x="257" y="1374"/>
      <point x="132" y="1311"/>
      <point x="132" y="1143" type="curve" smooth="yes"/>
      <point x="132" y="1020"/>
      <point x="198" y="979"/>
      <point x="257" y="979" type="curve" smooth="yes"/>
      <point x="306" y="979"/>
      <point x="364" y="1008"/>
      <point x="411" y="1051" type="curve"/>
      <point x="261" y="1190" type="line"/>
      <point x="261" y="1257"/>
      <point x="308" y="1282"/>
      <point x="407" y="1282" type="curve" smooth="yes"/>
      <point x="632" y="1282" type="line"/>
      <point x="419" y="135" type="line" smooth="yes"/>
      <point x="415" y="111"/>
      <point x="394" y="98"/>
      <point x="370" y="96" type="curve" smooth="yes"/>
      <point x="251" y="86" type="line"/>
    </contour>
  </outline>
</glyph>
<glyph name="LtnSmTHook" format="2">
  <advance width="653"/>
  <unicode hex="01AD"/>
  <anchor x="236" y="-100" name="L"/>
  <anchor x="552" y="1540" name="U"/>
  <outline>
    <contour>
      <point x="283" y="-25" type="curve" smooth="yes"/>
      <point x="401" y="-25"/>
      <point x="582" y="53"/>
      <point x="616" y="68" type="curve"/>
      <point x="616" y="150" type="line"/>
      <point x="573" y="134"/>
      <point x="481" y="100"/>
      <point x="403" y="100" type="curve" smooth="yes"/>
      <point x="341" y="100"/>
      <point x="283" y="135"/>
      <point x="283" y="194" type="curve" smooth="yes"/>
      <point x="283" y="201"/>
      <point x="284" y="208"/>
      <point x="285" y="215" type="curve" smooth="yes"/>
      <point x="414" y="858" type="line"/>
      <point x="715" y="858" type="line"/>
      <point x="715" y="952" type="line"/>
      <point x="432" y="952" type="line"/>
      <point x="474" y="1168"/>
      <point x="500" y="1235"/>
      <point x="544" y="1255" type="curve"/>
      <point x="706" y="1145" type="line"/>
      <point x="755" y="1153"/>
      <point x="819" y="1188"/>
      <point x="819" y="1257" type="curve" smooth="yes"/>
      <point x="819" y="1315"/>
      <point x="794" y="1380"/>
      <point x="665" y="1380" type="curve" smooth="yes"/>
      <point x="430" y="1380"/>
      <point x="298" y="1213"/>
      <point x="248" y="981" type="curve"/>
      <point x="94" y="913" type="line"/>
      <point x="94" y="846" type="line"/>
      <point x="223" y="858" type="line"/>
      <point x="98" y="236" type="line" smooth="yes"/>
      <point x="92" y="207"/>
      <point x="90" y="178"/>
      <point x="90" y="152" type="curve" smooth="yes"/>
      <point x="90" y="51"/>
      <point x="135" y="-25"/>
    </contour>
  </outline>
</glyph>
<glyph name="LtnCapUHorn" format="2">
  <advance width="1660"/>
  <unicode hex="01AF"/>
  <anchor x="589" y="-100" name="L"/>
  <anchor x="877" y="1500" name="U"/>
  <outline>
    <contour>
      <point x="637" y="-33" type="curve" smooth="yes"/>
      <point x="963" y="-33"/>
      <point x="1151" y="141"/>
      <point x="1208" y="438" type="curve" smooth="yes"/>
      <point x="1323" y="1022" type="line"/>
      <point x="1597" y="1071"/>
      <point x="1790" y="1305"/>
      <point x="1790" y="1581" type="curve" smooth="yes"/>
      <point x="1790" y="1708"/>
      <point x="1712" y="1786"/>
      <point x="1602" y="1786" type="curve" smooth="yes"/>
      <point x="1501" y="1786"/>
      <point x="1399" y="1712"/>
      <point x="1399" y="1604" type="curve" smooth="yes"/>
      <point x="1399" y="1544"/>
      <point x="1434" y="1493"/>
      <point x="1434" y="1493" type="curve"/>
      <point x="1614" y="1493" type="line"/>
      <point x="1614" y="1321"/>
      <point x="1550" y="1180"/>
      <point x="1346" y="1135" type="curve"/>
      <point x="1366" y="1237" type="line" smooth="yes"/>
      <point x="1370" y="1264"/>
      <point x="1391" y="1274"/>
      <point x="1415" y="1278" type="curve" smooth="yes"/>
      <point x="1493" y="1288" type="line"/>
      <point x="1493" y="1374" type="line"/>
      <point x="1071" y="1374" type="line"/>
      <point x="1071" y="1288" type="line"/>
      <point x="1186" y="1278" type="line" smooth="yes"/>
      <point x="1223" y="1276"/>
      <point x="1231" y="1260"/>
      <point x="1227" y="1237" type="curve" smooth="yes"/>
      <point x="1083" y="510" type="line" smooth="yes"/>
      <point x="1040" y="291"/>
      <point x="956" y="100"/>
      <point x="690" y="100" type="curve" smooth="yes"/>
      <point x="514" y="100"/>
      <point x="401" y="186"/>
      <point x="401" y="358" type="curve" smooth="yes"/>
      <point x="401" y="395"/>
      <point x="408" y="461"/>
      <point x="424" y="541" type="curve" smooth="yes"/>
      <point x="565" y="1237" type="line"/>
      <point x="569" y="1264"/>
      <point x="590" y="1276"/>
      <point x="614" y="1278" type="curve" smooth="yes"/>
      <point x="735" y="1288" type="line"/>
      <point x="735" y="1374" type="line"/>
      <point x="203" y="1374" type="line"/>
      <point x="203" y="1288" type="line"/>
      <point x="317" y="1278" type="line" smooth="yes"/>
      <point x="354" y="1276"/>
      <point x="362" y="1260"/>
      <point x="358" y="1237" type="curve" smooth="yes"/>
      <point x="215" y="541" type="line" smooth="yes"/>
      <point x="197" y="446"/>
      <point x="188" y="367"/>
      <point x="188" y="326" type="curve" smooth="yes"/>
      <point x="188" y="66"/>
      <point x="385" y="-33"/>
    </contour>
  </outline>
</glyph>
<glyph name="LtnSmYHook.RtHook" format="2">
  <advance width="1091"/>
  <unicode hex="01B4"/>
  <anchor x="682" y="-100" name="L"/>
  <anchor x="257" y="-391" name="O"/>
  <anchor x="540" y="1100" name="U"/>
  <outline>
    <contour>
      <point x="27" y="-469" type="curve" smooth="yes"/>
      <point x="283" y="-469"/>
      <point x="462" y="-141"/>
      <point x="576" y="87" type="curve" smooth="yes"/>
      <point x="658" y="250"/>
      <point x="819" y="667"/>
      <point x="886" y="844" type="curve" smooth="yes"/>
      <point x="968" y="1060"/>
      <point x="1044" y="1150"/>
      <point x="1088" y="1170" type="curve"/>
      <point x="1250" y="1065" type="line"/>
      <point x="1299" y="1077"/>
      <point x="1363" y="1123"/>
      <point x="1363" y="1182" type="curve" smooth="yes"/>
      <point x="1363" y="1240"/>
      <point x="1318" y="1300"/>
      <point x="1209" y="1300" type="curve" smooth="yes"/>
      <point x="994" y="1300"/>
      <point x="881" y="1152"/>
      <point x="781" y="903" type="curve" smooth="yes"/>
      <point x="709" y="724"/>
      <point x="572" y="360"/>
      <point x="473" y="151" type="curve" smooth="yes"/>
      <point x="374" y="-58"/>
      <point x="220" y="-302"/>
      <point x="96" y="-332" type="curve"/>
      <point x="-23" y="-213" type="line"/>
      <point x="-104" y="-217"/>
      <point x="-164" y="-272"/>
      <point x="-164" y="-334" type="curve" smooth="yes"/>
      <point x="-164" y="-385"/>
      <point x="-123" y="-469"/>
    </contour>
    <contour>
      <point x="415" y="-67" type="curve"/>
      <point x="545" y="158" type="line"/>
      <point x="524" y="311"/>
      <point x="447" y="698"/>
      <point x="420" y="791" type="curve" smooth="yes"/>
      <point x="379" y="926"/>
      <point x="338" y="1012"/>
      <point x="250" y="1012" type="curve" smooth="yes"/>
      <point x="213" y="1012"/>
      <point x="41" y="954"/>
      <point x="4" y="942" type="curve"/>
      <point x="4" y="891" type="line"/>
      <point x="190" y="877" type="line" smooth="yes"/>
      <point x="209" y="874"/>
      <point x="264" y="662"/>
      <point x="307" y="469" type="curve" smooth="yes"/>
      <point x="328" y="371"/>
      <point x="396" y="64"/>
    </contour>
  </outline>
</glyph>
<glyph name="LtnSmZStrk" format="2">
  <advance width="911"/>
  <unicode hex="01B6"/>
  <anchor x="348" y="-100" name="L"/>
  <anchor x="592" y="1100" name="U"/>
  <outline>
    <contour>
      <point x="109" y="-53" type="line"/>
      <point x="160" y="43" type="line"/>
      <point x="178" y="61"/>
      <point x="203" y="63"/>
      <point x="213" y="63" type="curve" smooth="yes"/>
      <point x="313" y="63"/>
      <point x="412" y="-25"/>
      <point x="537" y="-25" type="curve" smooth="yes"/>
      <point x="670" y="-25"/>
      <point x="834" y="98"/>
      <point x="834" y="264" type="curve" smooth="yes"/>
      <point x="834" y="324"/>
      <point x="791" y="391"/>
      <point x="717" y="391" type="curve" smooth="yes"/>
      <point x="680" y="391"/>
      <point x="629" y="362"/>
      <point x="602" y="313" type="curve"/>
      <point x="715" y="188" type="line"/>
      <point x="692" y="160"/>
      <point x="664" y="121"/>
      <point x="606" y="121" type="curve" smooth="yes"/>
      <point x="551" y="121"/>
      <point x="455" y="170"/>
      <point x="399" y="190" type="curve"/>
      <point x="227" y="145" type="line"/>
      <point x="922" y="958" type="line"/>
      <point x="768" y="1038" type="line"/>
      <point x="723" y="924" type="line"/>
      <point x="698" y="911"/>
      <point x="684" y="909"/>
      <point x="676" y="909" type="curve" smooth="yes"/>
      <point x="594" y="909"/>
      <point x="492" y="1012"/>
      <point x="369" y="1012" type="curve" smooth="yes"/>
      <point x="188" y="1012"/>
      <point x="80" y="844"/>
      <point x="80" y="719" type="curve" smooth="yes"/>
      <point x="80" y="668"/>
      <point x="115" y="598"/>
      <point x="193" y="598" type="curve" smooth="yes"/>
      <point x="250" y="598"/>
      <point x="295" y="649"/>
      <point x="305" y="666" type="curve"/>
      <point x="197" y="797" type="line"/>
      <point x="219" y="834"/>
      <point x="272" y="856"/>
      <point x="307" y="856" type="curve" smooth="yes"/>
      <point x="362" y="856"/>
      <point x="426" y="827"/>
      <point x="481" y="797" type="curve"/>
      <point x="662" y="836" type="line"/>
      <point x="-33" y="23" type="line"/>
    </contour>
    <contour>
      <point x="185" y="455" type="line"/>
      <point x="733" y="455" type="line"/>
      <point x="733" y="558" type="line"/>
      <point x="185" y="558" type="line"/>
    </contour>
  </outline>
</glyph>
<glyph name="LtnInvGlottalStopStrk" format="2">
  <advance width="899"/>
  <unicode hex="01BE"/>
  <anchor x="323" y="-100" name="L"/>
  <anchor x="639" y="1540" name="U"/>
  <outline>
    <contour>
      <point x="281" y="-25" type="curve" smooth="yes"/>
      <point x="547" y="-25"/>
      <point x="831" y="88"/>
      <point x="831" y="397" type="curve" smooth="yes"/>
      <point x="831" y="670"/>
      <point x="698" y="737"/>
      <point x="559" y="795" type="curve"/>
      <point x="580" y="891" type="line"/>
      <point x="846" y="891" type="line"/>
      <point x="846" y="995" type="line"/>
      <point x="600" y="995" type="line"/>
      <point x="647" y="1229" type="line" smooth="yes"/>
      <point x="651" y="1247"/>
      <point x="680" y="1268"/>
      <point x="698" y="1270" type="curve" smooth="yes"/>
      <point x="805" y="1280" type="line"/>
      <point x="805" y="1374" type="line"/>
      <point x="311" y="1374" type="line"/>
      <point x="311" y="1280" type="line"/>
      <point x="418" y="1270" type="line" smooth="yes"/>
      <point x="436" y="1268"/>
      <point x="461" y="1247"/>
      <point x="457" y="1229" type="curve" smooth="yes"/>
      <point x="410" y="995" type="line"/>
      <point x="127" y="995" type="line"/>
      <point x="127" y="891" type="line"/>
      <point x="389" y="891" type="line"/>
      <point x="354" y="721" type="line"/>
      <point x="473" y="678"/>
      <point x="614" y="592"/>
      <point x="614" y="410" type="curve" smooth="yes"/>
      <point x="614" y="204"/>
      <point x="501" y="109"/>
      <point x="328" y="90" type="curve" smooth="yes"/>
      <point x="304" y="87"/>
      <point x="280" y="86"/>
      <point x="254" y="86" type="curve"/>
      <point x="213" y="282" type="line"/>
      <point x="197" y="287"/>
      <point x="182" y="289"/>
      <point x="166" y="289" type="curve" smooth="yes"/>
      <point x="80" y="289"/>
      <point x="18" y="225"/>
      <point x="18" y="143" type="curve" smooth="yes"/>
      <point x="18" y="63"/>
      <point x="82" y="-25"/>
    </contour>
  </outline>
</glyph>
<glyph name="LtnAlveolarClick" format="2">
  <advance width="893"/>
  <unicode hex="01C2"/>
  <anchor x="242" y="-500" name="L"/>
  <anchor x="629" y="1570" name="U"/>
  <outline>
    <component base="LtnDentalClick" xOffset="200" yOffset="-4"/>
    <contour>
      <point x="90" y="619" type="line"/>
      <point x="843" y="619" type="line"/>
      <point x="843" y="721" type="line"/>
      <point x="90" y="721" type="line"/>
    </contour>
    <contour>
      <point x="40" y="345" type="line"/>
      <point x="793" y="345" type="line"/>
      <point x="793" y="447" type="line"/>
      <point x="40" y="447" type="line"/>
    </contour>
  </outline>
</glyph>
<glyph name="LtnSmGStrk" format="2">
  <advance width="1047"/>
  <unicode hex="01E5"/>
  <anchor x="442" y="-500" name="L"/>
  <anchor x="762" y="1100" name="U"/>
  <outline>
    <contour>
      <point x="1109" y="862" type="line"/>
      <point x="1109" y="958" type="line"/>
      <point x="831" y="958" type="line"/>
      <point x="806" y="973"/>
      <point x="726" y="1012"/>
      <point x="628" y="1012" type="curve" smooth="yes"/>
      <point x="368" y="1012"/>
      <point x="214" y="805"/>
      <point x="214" y="606" type="curve" smooth="yes"/>
      <point x="214" y="475"/>
      <point x="296" y="399"/>
      <point x="405" y="352" type="curve"/>
      <point x="349" y="297"/>
      <point x="313" y="176"/>
      <point x="325" y="113" type="curve"/>
      <point x="175" y="63"/>
      <point x="53" y="-31"/>
      <point x="53" y="-170" type="curve" smooth="yes"/>
      <point x="53" y="-326"/>
      <point x="177" y="-469"/>
      <point x="446" y="-469" type="curve" smooth="yes"/>
      <point x="706" y="-469"/>
      <point x="964" y="-315"/>
      <point x="964" y="-139" type="curve" smooth="yes"/>
      <point x="964" y="-20"/>
      <point x="880" y="29"/>
      <point x="755" y="86" type="curve" smooth="yes"/>
      <point x="481" y="211" type="line"/>
      <point x="474" y="233"/>
      <point x="485" y="293"/>
      <point x="503" y="334" type="curve"/>
      <point x="741" y="334"/>
      <point x="947" y="465"/>
      <point x="947" y="725" type="curve" smooth="yes"/>
      <point x="947" y="780"/>
      <point x="933" y="831"/>
      <point x="921" y="862" type="curve"/>
    </contour>
    <contour>
      <point x="751" y="735" type="curve" smooth="yes"/>
      <point x="751" y="606"/>
      <point x="665" y="410"/>
      <point x="528" y="410" type="curve" smooth="yes"/>
      <point x="456" y="410"/>
      <point x="411" y="481"/>
      <point x="411" y="580" type="curve" smooth="yes"/>
      <point x="411" y="772"/>
      <point x="534" y="926"/>
      <point x="632" y="926" type="curve" smooth="yes"/>
      <point x="714" y="926"/>
      <point x="751" y="836"/>
    </contour>
    <contour>
      <point x="773" y="-180" type="curve" smooth="yes"/>
      <point x="773" y="-248"/>
      <point x="696" y="-375"/>
      <point x="499" y="-375" type="curve" smooth="yes"/>
      <point x="325" y="-375"/>
      <point x="245" y="-229"/>
      <point x="245" y="-135" type="curve" smooth="yes"/>
      <point x="245" y="-53"/>
      <point x="282" y="31"/>
      <point x="413" y="63" type="curve"/>
      <point x="669" y="-53" type="line" smooth="yes"/>
      <point x="749" y="-90"/>
      <point x="773" y="-131"/>
    </contour>
    <contour>
      <point x="1042" y="-213" type="line"/>
      <point x="1042" y="-110" type="line"/>
      <point x="-32" y="-110" type="line"/>
      <point x="-32" y="-213" type="line"/>
    </contour>
  </outline>
</glyph>
<glyph name="LtnSmOOgonekMacron" format="2">
  <advance width="1036"/>
  <unicode hex="01ED"/>
  <anchor x="419" y="0" name="H"/>
  <anchor x="401" y="-400" name="L"/>
  <anchor x="1036" y="1000" name="R"/>
  <anchor x="702" y="1470" name="U"/>
  <outline>
    <component base="CombMacron" xOffset="1026"/>
    <contour>
      <point x="428" y="-25" type="curve" smooth="yes"/>
      <point x="441" y="-25"/>
      <point x="455" y="-24"/>
      <point x="468" y="-23" type="curve"/>
      <point x="383" y="-93"/>
      <point x="302" y="-198"/>
      <point x="302" y="-307" type="curve" smooth="yes"/>
      <point x="302" y="-408"/>
      <point x="382" y="-442"/>
      <point x="470" y="-442" type="curve" smooth="yes"/>
      <point x="507" y="-442"/>
      <point x="546" y="-436"/>
      <point x="581" y="-428" type="curve"/>
      <point x="599" y="-311" type="line"/>
      <point x="574" y="-317"/>
      <point x="550" y="-322"/>
      <point x="523" y="-322" type="curve" smooth="yes"/>
      <point x="478" y="-322"/>
      <point x="441" y="-301"/>
      <point x="441" y="-252" type="curve" smooth="yes"/>
      <point x="441" y="-145"/>
      <point x="539" y="-39"/>
      <point x="690" y="54" type="curve" smooth="yes"/>
      <point x="870" y="165"/>
      <point x="973" y="404"/>
      <point x="973" y="614" type="curve" smooth="yes"/>
      <point x="973" y="891"/>
      <point x="803" y="1012"/>
      <point x="606" y="1012" type="curve" smooth="yes"/>
      <point x="285" y="1012"/>
      <point x="63" y="694"/>
      <point x="63" y="362" type="curve" smooth="yes"/>
      <point x="63" y="125"/>
      <point x="203" y="-25"/>
    </contour>
    <contour>
      <point x="453" y="68" type="curve" smooth="yes"/>
      <point x="350" y="68"/>
      <point x="270" y="170"/>
      <point x="270" y="373" type="curve" smooth="yes"/>
      <point x="270" y="639"/>
      <point x="406" y="924"/>
      <point x="584" y="924" type="curve" smooth="yes"/>
      <point x="688" y="924"/>
      <point x="766" y="817"/>
      <point x="766" y="623" type="curve"/>
      <point x="766" y="381"/>
      <point x="647" y="68"/>
    </contour>
  </outline>
</glyph>
<glyph name="LtnCapOu" format="2">
  <advance width="1227"/>
  <unicode hex="0222"/>
  <anchor x="485" y="-100" name="L"/>
  <anchor x="788" y="1585" name="U"/>
  <outline>
    <contour>
      <point x="528" y="-33" type="curve" smooth="yes"/>
      <point x="812" y="-33"/>
      <point x="1110" y="163"/>
      <point x="1110" y="431" type="curve" smooth="yes"/>
      <point x="1110" y="605"/>
      <point x="982" y="707"/>
      <point x="823" y="732" type="curve"/>
      <point x="987" y="757"/>
      <point x="1188" y="894"/>
      <point x="1188" y="1112" type="curve" smooth="yes"/>
      <point x="1188" y="1301"/>
      <point x="1015" y="1407"/>
      <point x="803" y="1407" type="curve" smooth="yes"/>
      <point x="557" y="1407"/>
      <point x="282" y="1257"/>
      <point x="282" y="990" type="curve" smooth="yes"/>
      <point x="282" y="823"/>
      <point x="405" y="750"/>
      <point x="523" y="732" type="curve"/>
      <point x="307" y="704"/>
      <point x="98" y="538"/>
      <point x="98" y="299" type="curve" smooth="yes"/>
      <point x="98" y="95"/>
      <point x="275" y="-33"/>
    </contour>
    <contour>
      <point x="970" y="1117" type="curve" smooth="yes"/>
      <point x="970" y="953"/>
      <point x="855" y="784"/>
      <point x="683" y="784" type="curve" smooth="yes"/>
      <point x="559" y="784"/>
      <point x="495" y="880"/>
      <point x="495" y="989" type="curve" smooth="yes"/>
      <point x="495" y="1181"/>
      <point x="620" y="1303"/>
      <point x="783" y="1303" type="curve" smooth="yes"/>
      <point x="891" y="1303"/>
      <point x="970" y="1235"/>
    </contour>
    <contour>
      <point x="549" y="78" type="curve" smooth="yes"/>
      <point x="399" y="78"/>
      <point x="331" y="182"/>
      <point x="331" y="306" type="curve" smooth="yes"/>
      <point x="331" y="502"/>
      <point x="463" y="680"/>
      <point x="663" y="680" type="curve" smooth="yes"/>
      <point x="790" y="680"/>
      <point x="878" y="583"/>
      <point x="878" y="447" type="curve" smooth="yes"/>
      <point x="878" y="253"/>
      <point x="744" y="78"/>
    </contour>
  </outline>
</glyph>
<glyph name="LtnSmOu" format="2">
  <advance width="1106"/>
  <unicode hex="0223"/>
  <anchor x="407" y="-100" name="L"/>
  <anchor x="731" y="1580" name="U"/>
  <outline>
    <contour>
      <point x="428" y="-25" type="curve" smooth="yes"/>
      <point x="693" y="-25"/>
      <point x="951" y="190"/>
      <point x="951" y="473" type="curve" smooth="yes"/>
      <point x="951" y="652"/>
      <point x="837" y="749"/>
      <point x="698" y="785" type="curve"/>
      <point x="854" y="809"/>
      <point x="1043" y="978"/>
      <point x="1043" y="1203" type="curve" smooth="yes"/>
      <point x="1043" y="1399"/>
      <point x="906" y="1509"/>
      <point x="719" y="1509" type="curve" smooth="yes"/>
      <point x="486" y="1509"/>
      <point x="250" y="1328"/>
      <point x="250" y="1051" type="curve" smooth="yes"/>
      <point x="250" y="879"/>
      <point x="359" y="803"/>
      <point x="462" y="785" type="curve"/>
      <point x="257" y="748"/>
      <point x="63" y="555"/>
      <point x="63" y="307" type="curve" smooth="yes"/>
      <point x="63" y="97"/>
      <point x="204" y="-25"/>
    </contour>
    <contour>
      <point x="843" y="1200" type="curve" smooth="yes"/>
      <point x="843" y="1016"/>
      <point x="741" y="841"/>
      <point x="590" y="841" type="curve" smooth="yes"/>
      <point x="492" y="841"/>
      <point x="450" y="946"/>
      <point x="450" y="1057" type="curve" smooth="yes"/>
      <point x="450" y="1216"/>
      <point x="526" y="1407"/>
      <point x="697" y="1407" type="curve" smooth="yes"/>
      <point x="791" y="1407"/>
      <point x="843" y="1320"/>
    </contour>
    <contour>
      <point x="449" y="84" type="curve" smooth="yes"/>
      <point x="343" y="84"/>
      <point x="270" y="191"/>
      <point x="270" y="321" type="curve" smooth="yes"/>
      <point x="270" y="520"/>
      <point x="385" y="729"/>
      <point x="569" y="729" type="curve" smooth="yes"/>
      <point x="671" y="729"/>
      <point x="744" y="622"/>
      <point x="744" y="484" type="curve" smooth="yes"/>
      <point x="744" y="285"/>
      <point x="632" y="84"/>
    </contour>
  </outline>
</glyph>
<glyph name="LtnSmTCurl" format="2">
  <advance width="635"/>
  <unicode hex="0236"/>
  <anchor x="219" y="-100" name="L"/>
  <anchor x="482" y="1363" name="U"/>
  <outline>
    <contour>
      <point x="715" y="858" type="line"/>
      <point x="715" y="952" type="line"/>
      <point x="432" y="952" type="line"/>
      <point x="473" y="1186" type="line"/>
      <point x="348" y="1186" type="line"/>
      <point x="248" y="981" type="line"/>
      <point x="94" y="913" type="line"/>
      <point x="94" y="846" type="line"/>
      <point x="223" y="858" type="line"/>
      <point x="183" y="675"/>
      <point x="122" y="375"/>
      <point x="102" y="221" type="curve"/>
      <point x="4" y="137"/>
      <point x="-74" y="41"/>
      <point x="-141" y="-55" type="curve"/>
      <point x="-76" y="-104" type="line"/>
      <point x="-31" y="-41"/>
      <point x="37" y="43"/>
      <point x="106" y="113" type="curve"/>
      <point x="127" y="29"/>
      <point x="195" y="-16"/>
      <point x="301" y="-16" type="curve" smooth="yes"/>
      <point x="504" y="-16"/>
      <point x="653" y="92"/>
      <point x="653" y="252" type="curve" smooth="yes"/>
      <point x="653" y="352"/>
      <point x="596" y="424"/>
      <point x="500" y="424" type="curve" smooth="yes"/>
      <point x="428" y="424"/>
      <point x="377" y="403"/>
      <point x="315" y="365" type="curve"/>
      <point x="414" y="858" type="line"/>
    </contour>
    <contour>
      <point x="555" y="231" type="curve" smooth="yes"/>
      <point x="555" y="162"/>
      <point x="463" y="80"/>
      <point x="377" y="80" type="curve" smooth="yes"/>
      <point x="287" y="80"/>
      <point x="289" y="195"/>
      <point x="299" y="256" type="curve"/>
      <point x="369" y="309"/>
      <point x="416" y="330"/>
      <point x="481" y="330" type="curve" smooth="yes"/>
      <point x="541" y="330"/>
      <point x="555" y="295"/>
    </contour>
  </outline>
</glyph>
<glyph name="LtnCapCStrk" format="2">
  <advance width="1290"/>
  <unicode hex="023B"/>
  <anchor x="529" y="0" name="H"/>
  <anchor x="555" y="-100" name="L"/>
  <anchor x="843" y="1500" name="U"/>
  <outline>
    <component base="LtnCapC"/>
    <contour>
      <point x="75" y="-98" type="line"/>
      <point x="163" y="-164" type="line"/>
      <point x="1237" y="1470" type="line"/>
      <point x="1132" y="1534" type="line"/>
    </contour>
  </outline>
</glyph>
<glyph name="LtnCapTDiagStrk" format="2">
  <advance width="1200"/>
  <unicode hex="023E"/>
  <anchor x="500" y="0" name="H"/>
  <anchor x="480" y="-100" name="L"/>
  <anchor x="768" y="1500" name="U"/>
  <outline>
    <component base="LtnCapT"/>
    <contour>
      <point x="45" y="-98" type="line"/>
      <point x="133" y="-164" type="line"/>
      <point x="1207" y="1470" type="line"/>
      <point x="1102" y="1534" type="line"/>
    </contour>
  </outline>
</glyph>
<glyph name="LtnSmZSwashTail" format="2">
  <advance width="911"/>
  <unicode hex="0240"/>
  <anchor x="321" y="-500" name="L"/>
  <anchor x="641" y="1100" name="U"/>
  <outline>
    <contour>
      <point x="922" y="958" type="line"/>
      <point x="768" y="1038" type="line"/>
      <point x="723" y="924" type="line"/>
      <point x="698" y="911"/>
      <point x="684" y="909"/>
      <point x="676" y="909" type="curve" smooth="yes"/>
      <point x="594" y="909"/>
      <point x="492" y="1012"/>
      <point x="369" y="1012" type="curve" smooth="yes"/>
      <point x="188" y="1012"/>
      <point x="80" y="844"/>
      <point x="80" y="719" type="curve" smooth="yes"/>
      <point x="80" y="668"/>
      <point x="115" y="598"/>
      <point x="193" y="598" type="curve" smooth="yes"/>
      <point x="250" y="598"/>
      <point x="295" y="649"/>
      <point x="305" y="666" type="curve"/>
      <point x="197" y="797" type="line"/>
      <point x="219" y="834"/>
      <point x="272" y="856"/>
      <point x="307" y="856" type="curve" smooth="yes"/>
      <point x="362" y="856"/>
      <point x="426" y="827"/>
      <point x="481" y="797" type="curve"/>
      <point x="662" y="836" type="line"/>
      <point x="-33" y="23" type="line"/>
      <point x="109" y="-53" type="line"/>
      <point x="164" y="8" type="line"/>
      <point x="298" y="8"/>
      <point x="426" y="-469"/>
      <point x="660" y="-469" type="curve" smooth="yes"/>
      <point x="747" y="-469"/>
      <point x="837" y="-408"/>
      <point x="837" y="-314" type="curve" smooth="yes"/>
      <point x="837" y="-277"/>
      <point x="820" y="-240"/>
      <point x="784" y="-229" type="curve"/>
      <point x="627" y="-345" type="line"/>
      <point x="546" y="-285"/>
      <point x="437" y="16"/>
      <point x="346" y="98" type="curve" smooth="yes"/>
      <point x="307" y="133"/>
      <point x="255" y="145"/>
      <point x="227" y="145" type="curve"/>
    </contour>
  </outline>
</glyph>
<glyph name="LtnCapSmQHookTail" format="2">
  <advance width="1452"/>
  <unicode hex="024A"/>
  <anchor x="675" y="-500" name="L"/>
  <anchor x="1039" y="1500" name="U"/>
  <outline>
    <contour>
      <point x="1503" y="-289" type="curve" smooth="yes"/>
      <point x="1503" y="-229"/>
      <point x="1446" y="-193"/>
      <point x="1403" y="-182" type="curve"/>
      <point x="1225" y="-356" type="line"/>
      <point x="1157" y="-356"/>
      <point x="1091" y="-289"/>
      <point x="1114" y="-170" type="curve" smooth="yes"/>
      <point x="1417" y="1409" type="line"/>
      <point x="1298" y="1409" type="line"/>
      <point x="1227" y="1339" type="line"/>
      <point x="1200" y="1352"/>
      <point x="1077" y="1405"/>
      <point x="952" y="1405" type="curve" smooth="yes"/>
      <point x="475" y="1405"/>
      <point x="96" y="1014"/>
      <point x="96" y="504" type="curve" smooth="yes"/>
      <point x="96" y="90"/>
      <point x="389" y="-27"/>
      <point x="651" y="-27" type="curve" smooth="yes"/>
      <point x="782" y="-27"/>
      <point x="864" y="-6"/>
      <point x="952" y="66" type="curve"/>
      <point x="934" y="-12"/>
      <point x="918" y="-106"/>
      <point x="918" y="-164" type="curve" smooth="yes"/>
      <point x="918" y="-373"/>
      <point x="1049" y="-469"/>
      <point x="1214" y="-469" type="curve" smooth="yes"/>
      <point x="1329" y="-469"/>
      <point x="1503" y="-430"/>
    </contour>
    <contour>
      <point x="1155" y="1124" type="curve"/>
      <point x="975" y="193" type="line"/>
      <point x="893" y="135"/>
      <point x="823" y="88"/>
      <point x="678" y="88" type="curve" smooth="yes"/>
      <point x="457" y="88"/>
      <point x="328" y="238"/>
      <point x="328" y="524" type="curve" smooth="yes"/>
      <point x="328" y="907"/>
      <point x="559" y="1292"/>
      <point x="989" y="1292" type="curve" smooth="yes"/>
      <point x="1030" y="1292"/>
      <point x="1163" y="1163"/>
    </contour>
  </outline>
</glyph>
<glyph name="LtnCapRBarredStem" format="2">
  <advance width="1313"/>
  <unicode hex="024C"/>
  <anchor x="564" y="-100" name="L"/>
  <anchor x="852" y="1500" name="U"/>
  <outline>
    <contour>
      <point x="1110" y="-33" type="curve" smooth="yes"/>
      <point x="1157" y="-33"/>
      <point x="1204" y="-25"/>
      <point x="1260" y="0" type="curve"/>
      <point x="1260" y="84" type="line"/>
      <point x="1085" y="84"/>
      <point x="1036" y="162"/>
      <point x="997" y="315" type="curve" smooth="yes"/>
      <point x="958" y="471"/>
      <point x="940" y="578"/>
      <point x="772" y="649" type="curve"/>
      <point x="1001" y="713"/>
      <point x="1190" y="850"/>
      <point x="1190" y="1071" type="curve" smooth="yes"/>
      <point x="1190" y="1307"/>
      <point x="973" y="1374"/>
      <point x="745" y="1374" type="curve"/>
      <point x="197" y="1374" type="line"/>
      <point x="197" y="1288" type="line"/>
      <point x="311" y="1278" type="line" smooth="yes"/>
      <point x="346" y="1275"/>
      <point x="354" y="1260"/>
      <point x="350" y="1237" type="curve" smooth="yes"/>
      <point x="252" y="715" type="line"/>
      <point x="43" y="715" type="line"/>
      <point x="25" y="604" type="line"/>
      <point x="229" y="604" type="line"/>
      <point x="141" y="135" type="line"/>
      <point x="135" y="111"/>
      <point x="117" y="98"/>
      <point x="90" y="96" type="curve" smooth="yes"/>
      <point x="-27" y="86" type="line"/>
      <point x="-27" y="0" type="line"/>
      <point x="506" y="0" type="line"/>
      <point x="506" y="86" type="line"/>
      <point x="387" y="96" type="line" smooth="yes"/>
      <point x="352" y="99"/>
      <point x="344" y="115"/>
      <point x="348" y="135" type="curve"/>
      <point x="436" y="604" type="line"/>
      <point x="459" y="604"/>
      <point x="508" y="606"/>
      <point x="543" y="606" type="curve" smooth="yes"/>
      <point x="735" y="606"/>
      <point x="764" y="449"/>
      <point x="797" y="297" type="curve" smooth="yes"/>
      <point x="827" y="145"/>
      <point x="862" y="-33"/>
    </contour>
    <contour>
      <point x="459" y="711" type="line"/>
      <point x="563" y="1270" type="line"/>
      <point x="575" y="1270"/>
      <point x="598" y="1272"/>
      <point x="608" y="1272" type="curve" smooth="yes"/>
      <point x="766" y="1278"/>
      <point x="958" y="1241"/>
      <point x="958" y="1042" type="curve" smooth="yes"/>
      <point x="958" y="782"/>
      <point x="725" y="711"/>
      <point x="504" y="711" type="curve" smooth="yes"/>
    </contour>
  </outline>
</glyph>
<glyph name="LtnSmYStrk" format="2">
  <advance width="1018"/>
  <unicode hex="024F"/>
  <anchor x="672" y="-100" name="L"/>
  <anchor x="257" y="-391" name="O"/>
  <anchor x="614" y="1100" name="U"/>
  <outline>
    <contour>
      <point x="27" y="-469" type="curve" smooth="yes"/>
      <point x="223" y="-469"/>
      <point x="387" y="-250"/>
      <point x="514" y="-33" type="curve"/>
      <point x="645" y="188"/>
      <point x="745" y="442"/>
      <point x="803" y="573" type="curve" smooth="yes"/>
      <point x="840" y="659"/>
      <point x="938" y="815"/>
      <point x="971" y="846" type="curve"/>
      <point x="1073" y="909" type="line"/>
      <point x="1073" y="956" type="line"/>
      <point x="903" y="1012" type="line"/>
      <point x="844" y="1012" type="line"/>
      <point x="532" y="266" type="line"/>
      <point x="492" y="485"/>
      <point x="455" y="670"/>
      <point x="420" y="791" type="curve"/>
      <point x="379" y="926"/>
      <point x="338" y="1012"/>
      <point x="250" y="1012" type="curve" smooth="yes"/>
      <point x="213" y="1012"/>
      <point x="41" y="954"/>
      <point x="4" y="942" type="curve"/>
      <point x="4" y="891" type="line"/>
      <point x="190" y="877" type="line"/>
      <point x="209" y="874"/>
      <point x="264" y="662"/>
      <point x="307" y="469" type="curve" smooth="yes"/>
      <point x="350" y="272"/>
      <point x="387" y="70"/>
      <point x="393" y="37" type="curve"/>
      <point x="254" y="-215"/>
      <point x="182" y="-324"/>
      <point x="96" y="-332" type="curve"/>
      <point x="-23" y="-213" type="line"/>
      <point x="-104" y="-217"/>
      <point x="-164" y="-272"/>
      <point x="-164" y="-334" type="curve" smooth="yes"/>
      <point x="-164" y="-385"/>
      <point x="-123" y="-469"/>
    </contour>
    <contour>
      <point x="18" y="631" type="line"/>
      <point x="1011" y="631" type="line"/>
      <point x="1011" y="733" type="line"/>
      <point x="18" y="733" type="line"/>
    </contour>
  </outline>
</glyph>
<glyph name="LtnSmCCurl" format="2">
  <advance width="891"/>
  <unicode hex="0255"/>
  <anchor x="338" y="-320" name="L"/>
  <anchor x="638" y="1100" name="U"/>
  <outline>
    <contour>
      <point x="825" y="868" type="curve" smooth="yes"/>
      <point x="825" y="930"/>
      <point x="764" y="1012"/>
      <point x="616" y="1012" type="curve" smooth="yes"/>
      <point x="338" y="1012"/>
      <point x="66" y="723"/>
      <point x="66" y="356" type="curve" smooth="yes"/>
      <point x="66" y="174"/>
      <point x="133" y="51"/>
      <point x="248" y="0" type="curve"/>
      <point x="217" y="-88"/>
      <point x="188" y="-180"/>
      <point x="172" y="-264" type="curve"/>
      <point x="270" y="-264" type="line"/>
      <point x="285" y="-184"/>
      <point x="313" y="-98"/>
      <point x="342" y="-20" type="curve"/>
      <point x="354" y="-23"/>
      <point x="381" y="-25"/>
      <point x="393" y="-25" type="curve" smooth="yes"/>
      <point x="557" y="-25"/>
      <point x="784" y="92"/>
      <point x="784" y="287" type="curve" smooth="yes"/>
      <point x="784" y="375"/>
      <point x="721" y="430"/>
      <point x="635" y="430" type="curve" smooth="yes"/>
      <point x="473" y="430"/>
      <point x="387" y="303"/>
      <point x="324" y="164" type="curve"/>
      <point x="279" y="215"/>
      <point x="260" y="299"/>
      <point x="260" y="381" type="curve" smooth="yes"/>
      <point x="260" y="545"/>
      <point x="330" y="883"/>
      <point x="551" y="893" type="curve"/>
      <point x="668" y="735" type="line"/>
      <point x="799" y="752"/>
      <point x="825" y="815"/>
    </contour>
    <contour>
      <point x="672" y="279" type="curve" smooth="yes"/>
      <point x="672" y="190"/>
      <point x="559" y="104"/>
      <point x="477" y="104" type="curve" smooth="yes"/>
      <point x="441" y="104"/>
      <point x="418" y="107"/>
      <point x="397" y="115" type="curve"/>
      <point x="442" y="217"/>
      <point x="510" y="332"/>
      <point x="616" y="332" type="curve" smooth="yes"/>
      <point x="653" y="332"/>
      <point x="672" y="309"/>
    </contour>
  </outline>
</glyph>
<glyph name="LtnSmDHook" format="2">
  <advance width="1112"/>
  <unicode hex="0257"/>
  <anchor x="447" y="-100" name="L"/>
  <anchor x="763" y="1540" name="U"/>
  <outline>
    <contour>
      <point x="358" y="-25" type="curve" smooth="yes"/>
      <point x="473" y="-25"/>
      <point x="580" y="53"/>
      <point x="651" y="129" type="curve"/>
      <point x="651" y="39"/>
      <point x="678" y="-25"/>
      <point x="803" y="-25" type="curve" smooth="yes"/>
      <point x="887" y="-25"/>
      <point x="1038" y="33"/>
      <point x="1071" y="45" type="curve"/>
      <point x="1071" y="121" type="line"/>
      <point x="1053" y="117"/>
      <point x="944" y="82"/>
      <point x="924" y="82" type="curve" smooth="yes"/>
      <point x="905" y="82"/>
      <point x="837" y="100"/>
      <point x="850" y="176" type="curve" smooth="yes"/>
      <point x="1016" y="1122" type="line" smooth="yes"/>
      <point x="1049" y="1313"/>
      <point x="1097" y="1364"/>
      <point x="1141" y="1384" type="curve"/>
      <point x="1293" y="1274" type="line"/>
      <point x="1352" y="1282"/>
      <point x="1416" y="1317"/>
      <point x="1416" y="1386" type="curve" smooth="yes"/>
      <point x="1416" y="1434"/>
      <point x="1391" y="1509"/>
      <point x="1262" y="1509" type="curve" smooth="yes"/>
      <point x="1027" y="1509"/>
      <point x="871" y="1345"/>
      <point x="831" y="1140" type="curve" smooth="yes"/>
      <point x="799" y="975" type="line"/>
      <point x="764" y="987"/>
      <point x="707" y="1012"/>
      <point x="645" y="1012" type="curve" smooth="yes"/>
      <point x="283" y="1012"/>
      <point x="66" y="668"/>
      <point x="66" y="342" type="curve" smooth="yes"/>
      <point x="66" y="170"/>
      <point x="129" y="-25"/>
    </contour>
    <contour>
      <point x="424" y="100" type="curve" smooth="yes"/>
      <point x="344" y="100"/>
      <point x="264" y="178"/>
      <point x="264" y="354" type="curve" smooth="yes"/>
      <point x="264" y="674"/>
      <point x="442" y="920"/>
      <point x="641" y="920" type="curve" smooth="yes"/>
      <point x="694" y="920"/>
      <point x="770" y="811"/>
      <point x="766" y="793" type="curve"/>
      <point x="676" y="268" type="line"/>
      <point x="600" y="182"/>
      <point x="498" y="100"/>
    </contour>
  </outline>
</glyph>
<glyph name="LtnSmOpnE" format="2">
  <advance width="858"/>
  <unicode hex="025B"/>
  <anchor x="357" y="0" name="H"/>
  <anchor x="367" y="-100" name="L"/>
  <anchor x="585" y="0" name="O"/>
  <anchor x="858" y="1000" name="R"/>
  <anchor x="611" y="1100" name="U"/>
  <outline>
    <contour>
      <point x="854" y="866" type="curve" smooth="yes"/>
      <point x="854" y="930"/>
      <point x="784" y="1012"/>
      <point x="625" y="1012" type="curve" smooth="yes"/>
      <point x="563" y="1012" type="line" smooth="yes"/>
      <point x="371" y="1012"/>
      <point x="158" y="889"/>
      <point x="158" y="715" type="curve" smooth="yes"/>
      <point x="158" y="606"/>
      <point x="221" y="543"/>
      <point x="305" y="504" type="curve"/>
      <point x="176" y="481"/>
      <point x="14" y="416"/>
      <point x="14" y="213" type="curve" smooth="yes"/>
      <point x="14" y="41"/>
      <point x="160" y="-25"/>
      <point x="391" y="-25" type="curve" smooth="yes"/>
      <point x="575" y="-25"/>
      <point x="748" y="98"/>
      <point x="774" y="117" type="curve"/>
      <point x="774" y="248" type="line"/>
      <point x="721" y="205"/>
      <point x="582" y="76"/>
      <point x="406" y="76" type="curve" smooth="yes"/>
      <point x="297" y="76"/>
      <point x="217" y="123"/>
      <point x="217" y="227" type="curve" smooth="yes"/>
      <point x="217" y="362"/>
      <point x="301" y="438"/>
      <point x="434" y="438" type="curve" smooth="yes"/>
      <point x="436" y="438"/>
      <point x="487" y="440"/>
      <point x="541" y="438" type="curve"/>
      <point x="541" y="535" type="line"/>
      <point x="471" y="537"/>
      <point x="360" y="551"/>
      <point x="360" y="686" type="curve" smooth="yes"/>
      <point x="360" y="825"/>
      <point x="444" y="918"/>
      <point x="565" y="926" type="curve"/>
      <point x="588" y="897"/>
      <point x="657" y="801"/>
      <point x="700" y="741" type="curve"/>
      <point x="829" y="760"/>
      <point x="854" y="813"/>
    </contour>
  </outline>
</glyph>
<glyph name="LtnSmGamma" format="2">
  <advance width="946"/>
  <unicode hex="0263"/>
  <anchor x="230" y="-500" name="L"/>
  <anchor x="550" y="1100" name="U"/>
  <outline>
    <contour>
      <point x="250" y="-469" type="curve" smooth="yes"/>
      <point x="383" y="-469"/>
      <point x="500" y="-332"/>
      <point x="500" y="-213" type="curve" smooth="yes"/>
      <point x="500" y="-186"/>
      <point x="473" y="68"/>
      <point x="469" y="100" type="curve"/>
      <point x="653" y="319"/>
      <point x="786" y="504"/>
      <point x="913" y="735" type="curve" smooth="yes"/>
      <point x="927" y="761"/>
      <point x="956" y="821"/>
      <point x="956" y="889" type="curve" smooth="yes"/>
      <point x="956" y="963"/>
      <point x="918" y="1012"/>
      <point x="831" y="1012" type="curve" smooth="yes"/>
      <point x="780" y="1012"/>
      <point x="739" y="993"/>
      <point x="713" y="967" type="curve"/>
      <point x="752" y="719" type="line"/>
      <point x="688" y="557"/>
      <point x="594" y="418"/>
      <point x="455" y="236" type="curve"/>
      <point x="391" y="866" type="line" smooth="yes"/>
      <point x="381" y="963"/>
      <point x="334" y="1012"/>
      <point x="223" y="1012" type="curve"/>
      <point x="4" y="944" type="line"/>
      <point x="4" y="885" type="line"/>
      <point x="150" y="877" type="line"/>
      <point x="172" y="877"/>
      <point x="188" y="864"/>
      <point x="197" y="836" type="curve" smooth="yes"/>
      <point x="244" y="657"/>
      <point x="272" y="287"/>
      <point x="287" y="88" type="curve"/>
      <point x="188" y="10"/>
      <point x="31" y="-156"/>
      <point x="31" y="-281" type="curve" smooth="yes"/>
      <point x="31" y="-410"/>
      <point x="131" y="-469"/>
    </contour>
    <contour>
      <point x="211" y="-330" type="curve" smooth="yes"/>
      <point x="170" y="-330"/>
      <point x="150" y="-287"/>
      <point x="150" y="-256" type="curve" smooth="yes"/>
      <point x="150" y="-217"/>
      <point x="260" y="-76"/>
      <point x="293" y="-45" type="curve"/>
      <point x="297" y="-84"/>
      <point x="309" y="-174"/>
      <point x="309" y="-193" type="curve" smooth="yes"/>
      <point x="309" y="-279"/>
      <point x="256" y="-330"/>
    </contour>
  </outline>
</glyph>
<glyph name="LtnSmRamsHorn" format="2">
  <advance width="1137"/>
  <unicode hex="0264"/>
  <anchor x="439" y="-100" name="L"/>
  <anchor x="1137" y="1000" name="R"/>
  <anchor x="683" y="1100" name="U"/>
  <outline>
    <contour>
      <point x="463" y="-25" type="curve" smooth="yes"/>
      <point x="618" y="-25"/>
      <point x="723" y="106"/>
      <point x="723" y="256" type="curve" smooth="yes"/>
      <point x="723" y="333"/>
      <point x="540" y="761"/>
      <point x="487" y="854" type="curve" smooth="yes"/>
      <point x="437" y="942"/>
      <point x="370" y="1012"/>
      <point x="270" y="1012" type="curve" smooth="yes"/>
      <point x="88" y="1012"/>
      <point x="39" y="782"/>
      <point x="29" y="641" type="curve"/>
      <point x="92" y="641" type="line"/>
      <point x="121" y="751"/>
      <point x="167" y="807"/>
      <point x="229" y="807" type="curve" smooth="yes"/>
      <point x="283" y="807"/>
      <point x="327" y="751"/>
      <point x="363" y="681" type="curve" smooth="yes"/>
      <point x="412" y="587"/>
      <point x="545" y="236"/>
      <point x="545" y="184" type="curve" smooth="yes"/>
      <point x="545" y="133"/>
      <point x="496" y="86"/>
      <point x="444" y="86" type="curve" smooth="yes"/>
      <point x="408" y="86"/>
      <point x="389" y="123"/>
      <point x="389" y="156" type="curve" smooth="yes"/>
      <point x="389" y="217"/>
      <point x="475" y="305"/>
      <point x="507" y="343" type="curve" smooth="yes"/>
      <point x="682" y="551" type="line" smooth="yes"/>
      <point x="817" y="712"/>
      <point x="903" y="807"/>
      <point x="993" y="807" type="curve" smooth="yes"/>
      <point x="1061" y="807"/>
      <point x="1073" y="702"/>
      <point x="1077" y="641" type="curve"/>
      <point x="1145" y="641" type="line"/>
      <point x="1168" y="705"/>
      <point x="1194" y="780"/>
      <point x="1194" y="848" type="curve" smooth="yes"/>
      <point x="1194" y="942"/>
      <point x="1139" y="1012"/>
      <point x="1040" y="1012" type="curve" smooth="yes"/>
      <point x="931" y="1012"/>
      <point x="793" y="849"/>
      <point x="659" y="689" type="curve" smooth="yes"/>
      <point x="347" y="316" type="line" smooth="yes"/>
      <point x="301" y="261"/>
      <point x="270" y="194"/>
      <point x="270" y="127" type="curve" smooth="yes"/>
      <point x="270" y="16"/>
      <point x="367" y="-25"/>
    </contour>
  </outline>
</glyph>
<glyph name="LtnSmHHook" format="2">
  <advance width="1073"/>
  <unicode hex="0266"/>
  <anchor x="526" y="-100" name="L"/>
  <anchor x="842" y="1540" name="U"/>
  <outline>
    <contour>
      <point x="1100" y="1331" type="curve" smooth="yes"/>
      <point x="1100" y="1452"/>
      <point x="995" y="1509"/>
      <point x="780" y="1509" type="curve" smooth="yes"/>
      <point x="432" y="1509"/>
      <point x="279" y="1178"/>
      <point x="256" y="1071" type="curve" smooth="yes"/>
      <point x="35" y="0" type="line"/>
      <point x="225" y="0" type="line"/>
      <point x="373" y="717" type="line"/>
      <point x="463" y="811"/>
      <point x="590" y="877"/>
      <point x="657" y="877" type="curve" smooth="yes"/>
      <point x="702" y="877"/>
      <point x="791" y="821"/>
      <point x="768" y="713" type="curve" smooth="yes"/>
      <point x="645" y="109" type="line" smooth="yes"/>
      <point x="623" y="-2"/>
      <point x="745" y="-25"/>
      <point x="795" y="-25" type="curve" smooth="yes"/>
      <point x="879" y="-25"/>
      <point x="1034" y="39"/>
      <point x="1067" y="51" type="curve"/>
      <point x="1067" y="123" type="line"/>
      <point x="1018" y="109"/>
      <point x="973" y="84"/>
      <point x="938" y="84" type="curve" smooth="yes"/>
      <point x="913" y="84"/>
      <point x="834" y="106"/>
      <point x="850" y="184" type="curve" smooth="yes"/>
      <point x="965" y="735" type="line" smooth="yes"/>
      <point x="1001" y="920"/>
      <point x="920" y="1012"/>
      <point x="770" y="1012" type="curve" smooth="yes"/>
      <point x="633" y="1012"/>
      <point x="485" y="940"/>
      <point x="399" y="848" type="curve"/>
      <point x="446" y="1067" type="line" smooth="yes"/>
      <point x="494" y="1292"/>
      <point x="639" y="1405"/>
      <point x="770" y="1405" type="curve" smooth="yes"/>
      <point x="815" y="1405"/>
      <point x="860" y="1397"/>
      <point x="881" y="1376" type="curve"/>
      <point x="915" y="1204" type="line"/>
      <point x="915" y="1204"/>
      <point x="936" y="1194"/>
      <point x="965" y="1194" type="curve" smooth="yes"/>
      <point x="1040" y="1194"/>
      <point x="1100" y="1257"/>
    </contour>
  </outline>
</glyph>
<glyph name="LtnSmHengHook" format="2">
  <advance width="1073"/>
  <unicode hex="0267"/>
  <anchor x="338" y="-500" name="L"/>
  <anchor x="730" y="1540" name="U"/>
  <outline>
    <contour>
      <point x="307" y="-469" type="curve" smooth="yes"/>
      <point x="557" y="-469"/>
      <point x="760" y="-305"/>
      <point x="811" y="-43" type="curve" smooth="yes"/>
      <point x="965" y="735" type="line"/>
      <point x="999" y="920"/>
      <point x="920" y="1012"/>
      <point x="770" y="1012" type="curve" smooth="yes"/>
      <point x="633" y="1012"/>
      <point x="485" y="940"/>
      <point x="399" y="848" type="curve"/>
      <point x="446" y="1067" type="line" smooth="yes"/>
      <point x="494" y="1292"/>
      <point x="639" y="1405"/>
      <point x="770" y="1405" type="curve" smooth="yes"/>
      <point x="815" y="1405"/>
      <point x="860" y="1397"/>
      <point x="881" y="1376" type="curve"/>
      <point x="915" y="1204" type="line"/>
      <point x="915" y="1204"/>
      <point x="936" y="1194"/>
      <point x="965" y="1194" type="curve" smooth="yes"/>
      <point x="1040" y="1194"/>
      <point x="1100" y="1257"/>
      <point x="1100" y="1331" type="curve" smooth="yes"/>
      <point x="1100" y="1452"/>
      <point x="995" y="1509"/>
      <point x="780" y="1509" type="curve" smooth="yes"/>
      <point x="432" y="1509"/>
      <point x="279" y="1178"/>
      <point x="256" y="1071" type="curve" smooth="yes"/>
      <point x="35" y="0" type="line"/>
      <point x="225" y="0" type="line"/>
      <point x="373" y="717" type="line"/>
      <point x="463" y="811"/>
      <point x="590" y="877"/>
      <point x="657" y="877" type="curve" smooth="yes"/>
      <point x="702" y="877"/>
      <point x="791" y="821"/>
      <point x="768" y="713" type="curve" smooth="yes"/>
      <point x="602" y="-113" type="line" smooth="yes"/>
      <point x="575" y="-252"/>
      <point x="514" y="-367"/>
      <point x="383" y="-367" type="curve"/>
      <point x="260" y="-188" type="line"/>
      <point x="244" y="-190"/>
      <point x="135" y="-227"/>
      <point x="135" y="-317" type="curve" smooth="yes"/>
      <point x="135" y="-391"/>
      <point x="166" y="-469"/>
    </contour>
  </outline>
</glyph>
<glyph name="LtnSmIStrk" format="2">
  <advance width="545"/>
  <unicode hex="0268"/>
  <anchor x="194" y="0" name="H"/>
  <anchor x="174" y="-100" name="L"/>
  <anchor x="263" y="0" name="O"/>
  <anchor x="545" y="1000" name="R"/>
  <anchor x="428" y="1500" name="U"/>
  <outline>
    <contour>
      <point x="530" y="1313" type="curve" smooth="yes"/>
      <point x="530" y="1370"/>
      <point x="485" y="1427"/>
      <point x="408" y="1427" type="curve" smooth="yes"/>
      <point x="326" y="1427"/>
      <point x="279" y="1366"/>
      <point x="279" y="1313" type="curve" smooth="yes"/>
      <point x="279" y="1249"/>
      <point x="322" y="1198"/>
      <point x="406" y="1198" type="curve" smooth="yes"/>
      <point x="485" y="1198"/>
      <point x="530" y="1253"/>
    </contour>
    <contour>
      <point x="539" y="59" type="curve"/>
      <point x="539" y="137" type="line"/>
      <point x="512" y="125"/>
      <point x="418" y="88"/>
      <point x="371" y="88" type="curve" smooth="yes"/>
      <point x="322" y="88"/>
      <point x="289" y="126"/>
      <point x="289" y="173" type="curve" smooth="yes"/>
      <point x="289" y="179"/>
      <point x="290" y="186"/>
      <point x="291" y="193" type="curve" smooth="yes"/>
      <point x="340" y="453" type="line"/>
      <point x="510" y="453" type="line"/>
      <point x="510" y="555" type="line"/>
      <point x="360" y="555" type="line"/>
      <point x="446" y="1012" type="line"/>
      <point x="362" y="1012" type="line"/>
      <point x="53" y="948" type="line"/>
      <point x="53" y="889" type="line"/>
      <point x="229" y="870" type="line"/>
      <point x="170" y="555" type="line"/>
      <point x="12" y="555" type="line"/>
      <point x="12" y="453" type="line"/>
      <point x="150" y="453" type="line"/>
      <point x="98" y="176" type="line" smooth="yes"/>
      <point x="95" y="158"/>
      <point x="92" y="139"/>
      <point x="92" y="120" type="curve" smooth="yes"/>
      <point x="92" y="44"/>
      <point x="127" y="-25"/>
      <point x="240" y="-25" type="curve" smooth="yes"/>
      <point x="352" y="-25"/>
      <point x="508" y="45"/>
    </contour>
  </outline>
</glyph>
<glyph name="LtnSmTurnedMLngLeg" format="2">
  <advance width="1589"/>
  <unicode hex="0270"/>
  <anchor x="592" y="-100" name="L"/>
  <anchor x="871" y="1100" name="U"/>
  <outline>
    <contour>
      <point x="1524" y="987" type="line"/>
      <point x="1333" y="987" type="line"/>
      <point x="1192" y="299" type="line"/>
      <point x="1151" y="248"/>
      <point x="1018" y="119"/>
      <point x="924" y="119" type="curve" smooth="yes"/>
      <point x="836" y="119"/>
      <point x="820" y="231"/>
      <point x="838" y="319" type="curve" smooth="yes"/>
      <point x="975" y="987" type="line"/>
      <point x="784" y="987" type="line"/>
      <point x="641" y="295" type="line"/>
      <point x="610" y="248"/>
      <point x="492" y="119"/>
      <point x="365" y="119" type="curve" smooth="yes"/>
      <point x="311" y="119"/>
      <point x="261" y="184"/>
      <point x="289" y="322" type="curve" smooth="yes"/>
      <point x="399" y="868" type="line" smooth="yes"/>
      <point x="418" y="963"/>
      <point x="346" y="1012"/>
      <point x="233" y="1012" type="curve" smooth="yes"/>
      <point x="156" y="1012"/>
      <point x="47" y="963"/>
      <point x="-25" y="934" type="curve"/>
      <point x="-25" y="864" type="line"/>
      <point x="29" y="879"/>
      <point x="74" y="899"/>
      <point x="104" y="899" type="curve" smooth="yes"/>
      <point x="158" y="899"/>
      <point x="207" y="854"/>
      <point x="193" y="788" type="curve" smooth="yes"/>
      <point x="80" y="236" type="line" smooth="yes"/>
      <point x="48" y="78"/>
      <point x="119" y="-25"/>
      <point x="256" y="-25" type="curve" smooth="yes"/>
      <point x="381" y="-25"/>
      <point x="530" y="66"/>
      <point x="629" y="164" type="curve"/>
      <point x="639" y="90"/>
      <point x="674" y="-25"/>
      <point x="811" y="-25" type="curve" smooth="yes"/>
      <point x="932" y="-25"/>
      <point x="1065" y="68"/>
      <point x="1163" y="164" type="curve"/>
      <point x="1038" y="-446" type="line"/>
      <point x="1122" y="-446" type="line"/>
      <point x="1432" y="-383" type="line"/>
      <point x="1432" y="-324" type="line"/>
      <point x="1260" y="-305" type="line"/>
    </contour>
  </outline>
</glyph>
<glyph name="LtnSmCapN" format="2">
  <advance width="1165"/>
  <unicode hex="0274"/>
  <anchor x="439" y="-100" name="L"/>
  <anchor x="683" y="1100" name="U"/>
  <outline>
    <contour>
      <point x="-61" y="0" type="line"/>
      <point x="367" y="0" type="line"/>
      <point x="367" y="78" type="line"/>
      <point x="260" y="88" type="line" smooth="yes"/>
      <point x="225" y="92"/>
      <point x="215" y="106"/>
      <point x="219" y="129" type="curve" smooth="yes"/>
      <point x="356" y="750" type="line"/>
      <point x="754" y="0" type="line"/>
      <point x="883" y="0" type="line"/>
      <point x="1065" y="858" type="line" smooth="yes"/>
      <point x="1071" y="885"/>
      <point x="1090" y="897"/>
      <point x="1114" y="899" type="curve" smooth="yes"/>
      <point x="1210" y="909" type="line"/>
      <point x="1210" y="987" type="line"/>
      <point x="782" y="987" type="line"/>
      <point x="782" y="909" type="line"/>
      <point x="891" y="899" type="line" smooth="yes"/>
      <point x="926" y="895"/>
      <point x="934" y="881"/>
      <point x="930" y="858" type="curve" smooth="yes"/>
      <point x="805" y="276" type="line"/>
      <point x="451" y="944" type="line"/>
      <point x="451" y="987" type="line"/>
      <point x="92" y="987" type="line"/>
      <point x="92" y="909" type="line"/>
      <point x="199" y="899" type="line" smooth="yes"/>
      <point x="236" y="895"/>
      <point x="244" y="881"/>
      <point x="240" y="858" type="curve" smooth="yes"/>
      <point x="84" y="127" type="line" smooth="yes"/>
      <point x="78" y="102"/>
      <point x="59" y="90"/>
      <point x="35" y="88" type="curve" smooth="yes"/>
      <point x="-61" y="78" type="line"/>
    </contour>
  </outline>
</glyph>
<glyph name="LtnSmTurnedR" format="2">
  <advance width="735"/>
  <unicode hex="0279"/>
  <anchor x="255" y="-100" name="L"/>
  <anchor x="499" y="1100" name="U"/>
  <outline>
    <contour>
      <point x="694" y="987" type="line"/>
      <point x="504" y="987" type="line"/>
      <point x="397" y="471" type="line" smooth="yes"/>
      <point x="372" y="352"/>
      <point x="227" y="166"/>
      <point x="127" y="123" type="curve"/>
      <point x="78" y="221" type="line"/>
      <point x="-35" y="221"/>
      <point x="-104" y="209"/>
      <point x="-104" y="113" type="curve" smooth="yes"/>
      <point x="-104" y="57"/>
      <point x="-72" y="-25"/>
      <point x="27" y="-25" type="curve" smooth="yes"/>
      <point x="150" y="-25"/>
      <point x="258" y="53"/>
      <point x="342" y="182" type="curve"/>
      <point x="299" y="-25" type="line"/>
      <point x="381" y="-25" type="line"/>
      <point x="688" y="39" type="line"/>
      <point x="688" y="98" type="line"/>
      <point x="516" y="117" type="line"/>
    </contour>
  </outline>
</glyph>
<glyph name="LtnSmCapInvR" format="2">
  <advance width="985"/>
  <unicode hex="0281"/>
  <anchor x="385" y="-100" name="L"/>
  <anchor x="629" y="1100" name="U"/>
  <outline>
    <contour>
      <point x="-66" y="0" type="line"/>
      <point x="348" y="0" type="line" smooth="yes"/>
      <point x="571" y="0"/>
      <point x="819" y="49"/>
      <point x="819" y="311" type="curve" smooth="yes"/>
      <point x="819" y="414"/>
      <point x="707" y="485"/>
      <point x="610" y="514" type="curve"/>
      <point x="725" y="553"/>
      <point x="780" y="644"/>
      <point x="836" y="739" type="curve" smooth="yes"/>
      <point x="892" y="834"/>
      <point x="948" y="918"/>
      <point x="1094" y="918" type="curve"/>
      <point x="1094" y="993" type="line"/>
      <point x="1061" y="1006"/>
      <point x="1038" y="1012"/>
      <point x="993" y="1012" type="curve" smooth="yes"/>
      <point x="872" y="1012"/>
      <point x="798" y="954"/>
      <point x="733" y="864" type="curve" smooth="yes"/>
      <point x="630" y="722"/>
      <point x="580" y="555"/>
      <point x="360" y="555" type="curve" smooth="yes"/>
      <point x="346" y="555"/>
      <point x="336" y="557"/>
      <point x="332" y="557" type="curve"/>
      <point x="393" y="868" type="line" smooth="yes"/>
      <point x="396" y="883"/>
      <point x="416" y="903"/>
      <point x="438" y="903" type="curve"/>
      <point x="524" y="909" type="line"/>
      <point x="524" y="987" type="line"/>
      <point x="102" y="987" type="line"/>
      <point x="102" y="909" type="line"/>
      <point x="174" y="905" type="line" smooth="yes"/>
      <point x="201" y="903"/>
      <point x="214" y="883"/>
      <point x="211" y="868" type="curve" smooth="yes"/>
      <point x="61" y="127" type="line" smooth="yes"/>
      <point x="58" y="111"/>
      <point x="33" y="86"/>
      <point x="6" y="84" type="curve" smooth="yes"/>
      <point x="-66" y="78" type="line"/>
    </contour>
    <contour>
      <point x="233" y="88" type="line"/>
      <point x="311" y="467" type="line"/>
      <point x="324" y="467"/>
      <point x="352" y="469"/>
      <point x="371" y="469" type="curve" smooth="yes"/>
      <point x="512" y="469"/>
      <point x="616" y="401"/>
      <point x="616" y="313" type="curve" smooth="yes"/>
      <point x="616" y="135"/>
      <point x="455" y="88"/>
      <point x="299" y="88" type="curve" smooth="yes"/>
    </contour>
  </outline>
</glyph>
<glyph name="LtnSmSHook" format="2">
  <advance width="758"/>
  <unicode hex="0282"/>
  <anchor x="183" y="-500" name="L"/>
  <anchor x="503" y="1100" name="U"/>
  <outline>
    <contour>
      <point x="715" y="883" type="curve" smooth="yes"/>
      <point x="715" y="932"/>
      <point x="662" y="1012"/>
      <point x="508" y="1012" type="curve" smooth="yes"/>
      <point x="340" y="1012"/>
      <point x="139" y="903"/>
      <point x="139" y="702" type="curve" smooth="yes"/>
      <point x="139" y="600"/>
      <point x="220" y="508"/>
      <point x="305" y="444" type="curve" smooth="yes"/>
      <point x="403" y="370"/>
      <point x="473" y="311"/>
      <point x="473" y="227" type="curve" smooth="yes"/>
      <point x="473" y="123"/>
      <point x="397" y="57"/>
      <point x="313" y="57" type="curve" smooth="yes"/>
      <point x="160" y="57"/>
      <point x="137" y="133"/>
      <point x="119" y="270" type="curve"/>
      <point x="4" y="270" type="line"/>
      <point x="-92" y="-229" type="line" smooth="yes"/>
      <point x="-97" y="-254"/>
      <point x="-100" y="-274"/>
      <point x="-100" y="-291" type="curve" smooth="yes"/>
      <point x="-100" y="-412"/>
      <point x="-33" y="-469"/>
      <point x="136" y="-469" type="curve" smooth="yes"/>
      <point x="238" y="-469"/>
      <point x="326" y="-412"/>
      <point x="326" y="-324" type="curve" smooth="yes"/>
      <point x="326" y="-271"/>
      <point x="277" y="-231"/>
      <point x="240" y="-215" type="curve"/>
      <point x="94" y="-367" type="line"/>
      <point x="48" y="-367"/>
      <point x="14" y="-339"/>
      <point x="14" y="-282" type="curve" smooth="yes"/>
      <point x="14" y="-271"/>
      <point x="15" y="-259"/>
      <point x="18" y="-246" type="curve" smooth="yes"/>
      <point x="70" y="23" type="line"/>
      <point x="117" y="-6"/>
      <point x="182" y="-25"/>
      <point x="270" y="-25" type="curve" smooth="yes"/>
      <point x="524" y="-25"/>
      <point x="662" y="129"/>
      <point x="662" y="297" type="curve" smooth="yes"/>
      <point x="662" y="397"/>
      <point x="575" y="475"/>
      <point x="485" y="547" type="curve" smooth="yes"/>
      <point x="397" y="617"/>
      <point x="303" y="696"/>
      <point x="303" y="770" type="curve" smooth="yes"/>
      <point x="303" y="823"/>
      <point x="334" y="911"/>
      <point x="424" y="911" type="curve" smooth="yes"/>
      <point x="449" y="911"/>
      <point x="467" y="901"/>
      <point x="475" y="895" type="curve"/>
      <point x="567" y="770" type="line"/>
      <point x="618" y="774"/>
      <point x="715" y="788"/>
    </contour>
  </outline>
</glyph>
<glyph name="LtnSmDotlessJStrkHook" format="2">
  <advance width="637"/>
  <unicode hex="0284"/>
  <anchor x="318" y="-500" name="L"/>
  <anchor x="85" y="-391" name="O"/>
  <anchor x="318" y="1540" name="U"/>
  <outline>
    <contour>
      <point x="-137" y="-469" type="curve" smooth="yes"/>
      <point x="137" y="-469"/>
      <point x="305" y="-41"/>
      <point x="340" y="164" type="curve" smooth="yes"/>
      <point x="397" y="508" type="line"/>
      <point x="629" y="508" type="line"/>
      <point x="629" y="621" type="line"/>
      <point x="416" y="621" type="line"/>
      <point x="479" y="1012" type="line"/>
      <point x="520" y="1249"/>
      <point x="549" y="1368"/>
      <point x="627" y="1399" type="curve"/>
      <point x="788" y="1266" type="line"/>
      <point x="848" y="1272"/>
      <point x="901" y="1315"/>
      <point x="901" y="1378" type="curve" smooth="yes"/>
      <point x="901" y="1466"/>
      <point x="797" y="1509"/>
      <point x="723" y="1509" type="curve" smooth="yes"/>
      <point x="463" y="1509"/>
      <point x="338" y="1315"/>
      <point x="283" y="995" type="curve" smooth="yes"/>
      <point x="217" y="621" type="line"/>
      <point x="-10" y="621" type="line"/>
      <point x="-10" y="508" type="line"/>
      <point x="199" y="508" type="line"/>
      <point x="106" y="-25" type="line" smooth="yes"/>
      <point x="86" y="-137"/>
      <point x="37" y="-281"/>
      <point x="-2" y="-324" type="curve"/>
      <point x="-207" y="-268" type="line"/>
      <point x="-227" y="-281"/>
      <point x="-264" y="-309"/>
      <point x="-264" y="-360" type="curve" smooth="yes"/>
      <point x="-264" y="-422"/>
      <point x="-223" y="-469"/>
    </contour>
  </outline>
</glyph>
<glyph name="LtnSmTurnedT" format="2">
  <advance width="621"/>
  <unicode hex="0287"/>
  <anchor x="67" y="-500" name="L"/>
  <anchor x="387" y="1100" name="U"/>
  <outline>
    <contour>
      <point x="518" y="41" type="line"/>
      <point x="518" y="109" type="line"/>
      <point x="389" y="94" type="line"/>
      <point x="522" y="752" type="line" smooth="yes"/>
      <point x="528" y="780"/>
      <point x="530" y="809"/>
      <point x="530" y="836" type="curve" smooth="yes"/>
      <point x="530" y="936"/>
      <point x="487" y="1012"/>
      <point x="340" y="1012" type="curve" smooth="yes"/>
      <point x="221" y="1012"/>
      <point x="39" y="936"/>
      <point x="4" y="920" type="curve"/>
      <point x="4" y="838" type="line"/>
      <point x="47" y="854"/>
      <point x="141" y="887"/>
      <point x="217" y="887" type="curve" smooth="yes"/>
      <point x="279" y="887"/>
      <point x="337" y="853"/>
      <point x="337" y="786" type="curve" smooth="yes"/>
      <point x="337" y="778"/>
      <point x="336" y="769"/>
      <point x="334" y="760" type="curve" smooth="yes"/>
      <point x="201" y="94" type="line"/>
      <point x="-100" y="94" type="line"/>
      <point x="-100" y="0" type="line"/>
      <point x="182" y="0" type="line"/>
      <point x="139" y="-233" type="line"/>
      <point x="264" y="-233" type="line"/>
      <point x="367" y="-29" type="line"/>
    </contour>
  </outline>
</glyph>
<glyph name="LtnSmTRetrHook" format="2">
  <advance width="674"/>
  <unicode hex="0288"/>
  <anchor x="51" y="-500" name="L"/>
  <anchor x="674" y="1000" name="R"/>
  <anchor x="390" y="1363" name="U"/>
  <outline>
    <contour>
      <point x="715" y="858" type="line"/>
      <point x="715" y="952" type="line"/>
      <point x="432" y="952" type="line"/>
      <point x="473" y="1186" type="line"/>
      <point x="348" y="1186" type="line"/>
      <point x="248" y="981" type="line"/>
      <point x="76" y="913" type="line"/>
      <point x="76" y="846" type="line"/>
      <point x="223" y="858" type="line"/>
      <point x="8" y="-211" type="line" smooth="yes"/>
      <point x="2" y="-240"/>
      <point x="0" y="-268"/>
      <point x="0" y="-295" type="curve" smooth="yes"/>
      <point x="0" y="-395"/>
      <point x="43" y="-469"/>
      <point x="190" y="-469" type="curve" smooth="yes"/>
      <point x="309" y="-469"/>
      <point x="492" y="-393"/>
      <point x="524" y="-379" type="curve"/>
      <point x="524" y="-297" type="line"/>
      <point x="483" y="-312"/>
      <point x="389" y="-346"/>
      <point x="313" y="-346" type="curve" smooth="yes"/>
      <point x="251" y="-346"/>
      <point x="193" y="-310"/>
      <point x="193" y="-250" type="curve" smooth="yes"/>
      <point x="193" y="-243"/>
      <point x="194" y="-236"/>
      <point x="195" y="-229" type="curve" smooth="yes"/>
      <point x="414" y="858" type="line"/>
    </contour>
  </outline>
</glyph>
<glyph name="LtnSmZCurl" format="2">
  <advance width="911"/>
  <unicode hex="0291"/>
  <anchor x="245" y="-500" name="L"/>
  <anchor x="565" y="1100" name="U"/>
  <outline>
    <contour>
      <point x="922" y="958" type="line"/>
      <point x="768" y="1038" type="line"/>
      <point x="723" y="924" type="line"/>
      <point x="698" y="911"/>
      <point x="684" y="909"/>
      <point x="676" y="909" type="curve" smooth="yes"/>
      <point x="594" y="909"/>
      <point x="492" y="1012"/>
      <point x="369" y="1012" type="curve" smooth="yes"/>
      <point x="188" y="1012"/>
      <point x="80" y="844"/>
      <point x="80" y="719" type="curve" smooth="yes"/>
      <point x="80" y="668"/>
      <point x="115" y="598"/>
      <point x="193" y="598" type="curve" smooth="yes"/>
      <point x="250" y="598"/>
      <point x="295" y="649"/>
      <point x="305" y="666" type="curve"/>
      <point x="197" y="797" type="line"/>
      <point x="219" y="834"/>
      <point x="272" y="856"/>
      <point x="307" y="856" type="curve" smooth="yes"/>
      <point x="362" y="856"/>
      <point x="426" y="827"/>
      <point x="481" y="797" type="curve"/>
      <point x="662" y="836" type="line"/>
      <point x="-33" y="23" type="line"/>
      <point x="109" y="-53" type="line"/>
      <point x="160" y="43" type="line"/>
      <point x="176" y="57"/>
      <point x="195" y="57"/>
      <point x="217" y="57" type="curve" smooth="yes"/>
      <point x="244" y="57"/>
      <point x="272" y="49"/>
      <point x="295" y="43" type="curve"/>
      <point x="246" y="-70"/>
      <point x="217" y="-190"/>
      <point x="201" y="-289" type="curve"/>
      <point x="289" y="-289" type="line"/>
      <point x="309" y="-184"/>
      <point x="336" y="-84"/>
      <point x="377" y="14" type="curve"/>
      <point x="430" y="-6"/>
      <point x="502" y="-25"/>
      <point x="555" y="-25" type="curve" smooth="yes"/>
      <point x="670" y="-25"/>
      <point x="819" y="80"/>
      <point x="819" y="242" type="curve" smooth="yes"/>
      <point x="819" y="350"/>
      <point x="743" y="391"/>
      <point x="698" y="391" type="curve" smooth="yes"/>
      <point x="553" y="391"/>
      <point x="446" y="303"/>
      <point x="369" y="184" type="curve"/>
      <point x="227" y="145" type="line"/>
    </contour>
    <contour>
      <point x="719" y="240" type="curve" smooth="yes"/>
      <point x="719" y="150"/>
      <point x="662" y="117"/>
      <point x="590" y="117" type="curve"/>
      <point x="543" y="115"/>
      <point x="489" y="129"/>
      <point x="442" y="147" type="curve"/>
      <point x="498" y="236"/>
      <point x="569" y="299"/>
      <point x="662" y="299" type="curve" smooth="yes"/>
      <point x="696" y="299"/>
      <point x="719" y="274"/>
    </contour>
  </outline>
</glyph>
<glyph name="LtnSmEzh" format="2">
  <advance width="971"/>
  <unicode hex="0292"/>
  <anchor x="289" y="-500" name="L"/>
  <anchor x="609" y="1100" name="U"/>
  <outline>
    <contour>
      <point x="1040" y="926" type="line"/>
      <point x="909" y="1024" type="line"/>
      <point x="844" y="932" type="line"/>
      <point x="815" y="928"/>
      <point x="786" y="920"/>
      <point x="758" y="920" type="curve" smooth="yes"/>
      <point x="623" y="920"/>
      <point x="500" y="1012"/>
      <point x="360" y="1012" type="curve" smooth="yes"/>
      <point x="207" y="1012"/>
      <point x="80" y="870"/>
      <point x="80" y="719" type="curve" smooth="yes"/>
      <point x="80" y="655"/>
      <point x="123" y="598"/>
      <point x="190" y="598" type="curve" smooth="yes"/>
      <point x="233" y="598"/>
      <point x="279" y="631"/>
      <point x="299" y="666" type="curve"/>
      <point x="195" y="797" type="line"/>
      <point x="215" y="829"/>
      <point x="260" y="856"/>
      <point x="301" y="856" type="curve" smooth="yes"/>
      <point x="381" y="856"/>
      <point x="453" y="811"/>
      <point x="528" y="811" type="curve" smooth="yes"/>
      <point x="579" y="811"/>
      <point x="691" y="814"/>
      <point x="762" y="819" type="curve"/>
      <point x="180" y="299" type="line"/>
      <point x="293" y="205" type="line"/>
      <point x="369" y="305" type="line"/>
      <point x="506" y="297"/>
      <point x="643" y="168"/>
      <point x="643" y="23" type="curve" smooth="yes"/>
      <point x="643" y="-166"/>
      <point x="475" y="-362"/>
      <point x="279" y="-362" type="curve" smooth="yes"/>
      <point x="223" y="-362"/>
      <point x="180" y="-350"/>
      <point x="147" y="-299" type="curve"/>
      <point x="98" y="-86" type="line"/>
      <point x="74" y="-76"/>
      <point x="37" y="-63"/>
      <point x="12" y="-63" type="curve" smooth="yes"/>
      <point x="-66" y="-63"/>
      <point x="-121" y="-131"/>
      <point x="-121" y="-213" type="curve" smooth="yes"/>
      <point x="-121" y="-371"/>
      <point x="63" y="-469"/>
      <point x="256" y="-469" type="curve" smooth="yes"/>
      <point x="532" y="-469"/>
      <point x="842" y="-283"/>
      <point x="842" y="23" type="curve" smooth="yes"/>
      <point x="842" y="256"/>
      <point x="676" y="381"/>
      <point x="463" y="391" type="curve"/>
    </contour>
  </outline>
</glyph>
<glyph name="LtnGlottalStop" format="2">
  <advance width="899"/>
  <unicode hex="0294"/>
  <anchor x="318" y="-100" name="L"/>
  <anchor x="899" y="1000" name="R"/>
  <anchor x="634" y="1540" name="U"/>
  <outline>
    <contour>
      <point x="96" y="0" type="line"/>
      <point x="598" y="0" type="line"/>
      <point x="598" y="80" type="line"/>
      <point x="489" y="90" type="line" smooth="yes"/>
      <point x="471" y="92"/>
      <point x="449" y="113"/>
      <point x="453" y="131" type="curve" smooth="yes"/>
      <point x="551" y="625" type="line"/>
      <point x="750" y="707"/>
      <point x="954" y="866"/>
      <point x="954" y="1104" type="curve" smooth="yes"/>
      <point x="954" y="1286"/>
      <point x="811" y="1407"/>
      <point x="594" y="1407" type="curve" smooth="yes"/>
      <point x="459" y="1407"/>
      <point x="176" y="1327"/>
      <point x="176" y="1153" type="curve" smooth="yes"/>
      <point x="176" y="1108"/>
      <point x="201" y="1069"/>
      <point x="266" y="1069" type="curve" smooth="yes"/>
      <point x="305" y="1069"/>
      <point x="349" y="1085"/>
      <point x="383" y="1100" type="curve"/>
      <point x="453" y="1278" type="line"/>
      <point x="496" y="1305"/>
      <point x="539" y="1315"/>
      <point x="580" y="1315" type="curve" smooth="yes"/>
      <point x="676" y="1315"/>
      <point x="745" y="1229"/>
      <point x="745" y="1085" type="curve" smooth="yes"/>
      <point x="745" y="879"/>
      <point x="547" y="700"/>
      <point x="365" y="643" type="curve"/>
      <point x="262" y="131" type="line" smooth="yes"/>
      <point x="258" y="113"/>
      <point x="227" y="92"/>
      <point x="209" y="90" type="curve" smooth="yes"/>
      <point x="96" y="80" type="line"/>
    </contour>
  </outline>
</glyph>
<glyph name="LtnInvGlottalStop" format="2">
  <advance width="899"/>
  <unicode hex="0296"/>
  <anchor x="353" y="-100" name="L"/>
  <anchor x="669" y="1540" name="U"/>
  <outline>
    <contour>
      <point x="831" y="417" type="curve" smooth="yes"/>
      <point x="831" y="670"/>
      <point x="682" y="740"/>
      <point x="559" y="795" type="curve"/>
      <point x="647" y="1229" type="line" smooth="yes"/>
      <point x="651" y="1247"/>
      <point x="670" y="1267"/>
      <point x="698" y="1270" type="curve" smooth="yes"/>
      <point x="805" y="1280" type="line"/>
      <point x="805" y="1374" type="line"/>
      <point x="311" y="1374" type="line"/>
      <point x="311" y="1280" type="line"/>
      <point x="418" y="1270" type="line" smooth="yes"/>
      <point x="434" y="1268"/>
      <point x="457" y="1252"/>
      <point x="457" y="1236" type="curve" smooth="yes"/>
      <point x="457" y="1228"/>
      <point x="455" y="1218"/>
      <point x="453" y="1209" type="curve" smooth="yes"/>
      <point x="354" y="721" type="line"/>
      <point x="473" y="678"/>
      <point x="614" y="592"/>
      <point x="614" y="420" type="curve" smooth="yes"/>
      <point x="614" y="235"/>
      <point x="503" y="110"/>
      <point x="324" y="110" type="curve" smooth="yes"/>
      <point x="298" y="110"/>
      <point x="272" y="112"/>
      <point x="244" y="116" type="curve"/>
      <point x="213" y="284" type="line"/>
      <point x="198" y="287"/>
      <point x="182" y="289"/>
      <point x="166" y="289" type="curve" smooth="yes"/>
      <point x="80" y="289"/>
      <point x="18" y="225"/>
      <point x="18" y="143" type="curve" smooth="yes"/>
      <point x="18" y="63"/>
      <point x="82" y="-25"/>
      <point x="281" y="-25" type="curve" smooth="yes"/>
      <point x="547" y="-25"/>
      <point x="831" y="118"/>
    </contour>
  </outline>
</glyph>
<glyph name="LtnBilabialClick" format="2">
  <advance width="1589"/>
  <unicode hex="0298"/>
  <anchor x="663" y="-100" name="L"/>
  <anchor x="951" y="1500" name="U"/>
  <outline>
    <contour>
      <point x="1552" y="827" type="curve" smooth="yes"/>
      <point x="1552" y="1167"/>
      <point x="1305" y="1407"/>
      <point x="967" y="1407" type="curve" smooth="yes"/>
      <point x="520" y="1407"/>
      <point x="94" y="995"/>
      <point x="94" y="547" type="curve" smooth="yes"/>
      <point x="94" y="207"/>
      <point x="344" y="-33"/>
      <point x="680" y="-33" type="curve" smooth="yes"/>
      <point x="1126" y="-33"/>
      <point x="1552" y="379"/>
    </contour>
    <contour>
      <point x="1409" y="801" type="curve" smooth="yes"/>
      <point x="1409" y="438"/>
      <point x="1067" y="109"/>
      <point x="709" y="109" type="curve" smooth="yes"/>
      <point x="440" y="109"/>
      <point x="238" y="303"/>
      <point x="238" y="573" type="curve" smooth="yes"/>
      <point x="238" y="936"/>
      <point x="582" y="1266"/>
      <point x="940" y="1266" type="curve" smooth="yes"/>
      <point x="1210" y="1266"/>
      <point x="1409" y="1071"/>
    </contour>
    <contour>
      <point x="973" y="731" type="curve" smooth="yes"/>
      <point x="973" y="797"/>
      <point x="915" y="836"/>
      <point x="854" y="836" type="curve" smooth="yes"/>
      <point x="762" y="836"/>
      <point x="682" y="758"/>
      <point x="682" y="666" type="curve" smooth="yes"/>
      <point x="682" y="598"/>
      <point x="727" y="545"/>
      <point x="797" y="545" type="curve" smooth="yes"/>
      <point x="895" y="545"/>
      <point x="973" y="635"/>
    </contour>
  </outline>
</glyph>
<glyph name="LtnSmCapGHook" format="2">
  <advance width="1124"/>
  <unicode hex="029B"/>
  <anchor x="458" y="-100" name="L"/>
  <anchor x="743" y="1300" name="U"/>
  <outline>
    <contour>
      <point x="530" y="-25" type="curve" smooth="yes"/>
      <point x="647" y="-25"/>
      <point x="772" y="6"/>
      <point x="887" y="35" type="curve"/>
      <point x="961" y="381" type="line" smooth="yes"/>
      <point x="963" y="393"/>
      <point x="973" y="399"/>
      <point x="991" y="401" type="curve" smooth="yes"/>
      <point x="1081" y="410" type="line"/>
      <point x="1081" y="487" type="line"/>
      <point x="659" y="487" type="line"/>
      <point x="659" y="410" type="line"/>
      <point x="748" y="401" type="line" smooth="yes"/>
      <point x="772" y="399"/>
      <point x="772" y="391"/>
      <point x="770" y="383" type="curve" smooth="yes"/>
      <point x="713" y="94" type="line"/>
      <point x="664" y="84"/>
      <point x="614" y="72"/>
      <point x="563" y="72" type="curve" smooth="yes"/>
      <point x="451" y="72"/>
      <point x="268" y="147"/>
      <point x="268" y="375" type="curve" smooth="yes"/>
      <point x="268" y="702"/>
      <point x="512" y="913"/>
      <point x="748" y="913" type="curve" smooth="yes"/>
      <point x="797" y="913"/>
      <point x="834" y="905"/>
      <point x="879" y="885" type="curve"/>
      <point x="895" y="881"/>
      <point x="903" y="870"/>
      <point x="903" y="854" type="curve" smooth="yes"/>
      <point x="897" y="711" type="line"/>
      <point x="1024" y="711" type="line"/>
      <point x="1075" y="954" type="line" smooth="yes"/>
      <point x="1116" y="1147"/>
      <point x="1151" y="1241"/>
      <point x="1217" y="1272" type="curve"/>
      <point x="1380" y="1137" type="line"/>
      <point x="1395" y="1141"/>
      <point x="1493" y="1161"/>
      <point x="1493" y="1245" type="curve" smooth="yes"/>
      <point x="1493" y="1311"/>
      <point x="1458" y="1370"/>
      <point x="1341" y="1370" type="curve" smooth="yes"/>
      <point x="1137" y="1370"/>
      <point x="993" y="1247"/>
      <point x="930" y="995" type="curve"/>
      <point x="883" y="1004"/>
      <point x="819" y="1012"/>
      <point x="768" y="1012" type="curve" smooth="yes"/>
      <point x="418" y="1012"/>
      <point x="66" y="774"/>
      <point x="66" y="395" type="curve" smooth="yes"/>
      <point x="66" y="231"/>
      <point x="158" y="-25"/>
    </contour>
  </outline>
</glyph>
<glyph name="LtnSmCapH" format="2">
  <advance width="1188"/>
  <unicode hex="029C"/>
  <anchor x="473" y="-100" name="L"/>
  <anchor x="717" y="1100" name="U"/>
  <outline>
    <contour>
      <point x="-45" y="0" type="line"/>
      <point x="414" y="0" type="line"/>
      <point x="414" y="78" type="line"/>
      <point x="315" y="88" type="line" smooth="yes"/>
      <point x="281" y="91"/>
      <point x="270" y="106"/>
      <point x="276" y="129" type="curve"/>
      <point x="348" y="471" type="line"/>
      <point x="827" y="471" type="line"/>
      <point x="754" y="129" type="line"/>
      <point x="748" y="102"/>
      <point x="729" y="91"/>
      <point x="705" y="88" type="curve" smooth="yes"/>
      <point x="618" y="78" type="line"/>
      <point x="618" y="0" type="line"/>
      <point x="1075" y="0" type="line"/>
      <point x="1075" y="78" type="line"/>
      <point x="979" y="88" type="line" smooth="yes"/>
      <point x="944" y="92"/>
      <point x="933" y="106"/>
      <point x="938" y="129" type="curve" smooth="yes"/>
      <point x="1096" y="858" type="line" smooth="yes"/>
      <point x="1102" y="885"/>
      <point x="1120" y="896"/>
      <point x="1147" y="899" type="curve" smooth="yes"/>
      <point x="1233" y="909" type="line"/>
      <point x="1233" y="987" type="line"/>
      <point x="774" y="987" type="line"/>
      <point x="774" y="909" type="line"/>
      <point x="870" y="899" type="line" smooth="yes"/>
      <point x="907" y="895"/>
      <point x="915" y="881"/>
      <point x="911" y="858" type="curve"/>
      <point x="850" y="563" type="line"/>
      <point x="369" y="563" type="line"/>
      <point x="432" y="858" type="line"/>
      <point x="438" y="885"/>
      <point x="457" y="896"/>
      <point x="481" y="899" type="curve" smooth="yes"/>
      <point x="567" y="909" type="line"/>
      <point x="567" y="987" type="line"/>
      <point x="111" y="987" type="line"/>
      <point x="111" y="909" type="line"/>
      <point x="207" y="899" type="line" smooth="yes"/>
      <point x="242" y="895"/>
      <point x="253" y="881"/>
      <point x="248" y="858" type="curve" smooth="yes"/>
      <point x="90" y="127" type="line" smooth="yes"/>
      <point x="85" y="102"/>
      <point x="68" y="91"/>
      <point x="41" y="88" type="curve" smooth="yes"/>
      <point x="-45" y="78" type="line"/>
    </contour>
  </outline>
</glyph>
<glyph name="LtnSmJCrossedTail" format="2">
  <advance width="602"/>
  <unicode hex="029D"/>
  <anchor x="-30" y="-500" name="L"/>
  <anchor x="141" y="-391" name="O"/>
  <anchor x="489" y="1500" name="U"/>
  <outline>
    <contour>
      <point x="582" y="1313" type="curve" smooth="yes"/>
      <point x="582" y="1374"/>
      <point x="537" y="1430"/>
      <point x="455" y="1430" type="curve" smooth="yes"/>
      <point x="369" y="1430"/>
      <point x="328" y="1374"/>
      <point x="328" y="1313" type="curve" smooth="yes"/>
      <point x="328" y="1247"/>
      <point x="381" y="1198"/>
      <point x="455" y="1198" type="curve" smooth="yes"/>
      <point x="530" y="1198"/>
      <point x="582" y="1264"/>
    </contour>
    <contour>
      <point x="543" y="1012" type="line"/>
      <point x="467" y="1012" type="line"/>
      <point x="158" y="950" type="line"/>
      <point x="158" y="889" type="line"/>
      <point x="330" y="870" type="line"/>
      <point x="211" y="176" type="line"/>
      <point x="190" y="68"/>
      <point x="170" y="-18"/>
      <point x="158" y="-45" type="curve"/>
      <point x="127" y="-37"/>
      <point x="74" y="-25"/>
      <point x="39" y="-25" type="curve" smooth="yes"/>
      <point x="-119" y="-25"/>
      <point x="-285" y="-119"/>
      <point x="-285" y="-299" type="curve" smooth="yes"/>
      <point x="-285" y="-395"/>
      <point x="-217" y="-469"/>
      <point x="-115" y="-469" type="curve" smooth="yes"/>
      <point x="70" y="-469"/>
      <point x="172" y="-354"/>
      <point x="258" y="-225" type="curve"/>
      <point x="322" y="-291"/>
      <point x="369" y="-373"/>
      <point x="395" y="-449" type="curve"/>
      <point x="479" y="-393" type="line"/>
      <point x="440" y="-293"/>
      <point x="389" y="-195"/>
      <point x="313" y="-125" type="curve"/>
      <point x="360" y="-25"/>
      <point x="397" y="164"/>
      <point x="397" y="164" type="curve"/>
    </contour>
    <contour>
      <point x="133" y="-139" type="curve"/>
      <point x="90" y="-250"/>
      <point x="18" y="-371"/>
      <point x="-94" y="-371" type="curve" smooth="yes"/>
      <point x="-143" y="-371"/>
      <point x="-172" y="-330"/>
      <point x="-172" y="-279" type="curve" smooth="yes"/>
      <point x="-172" y="-186"/>
      <point x="-66" y="-117"/>
      <point x="20" y="-117" type="curve" smooth="yes"/>
      <point x="61" y="-117"/>
      <point x="98" y="-124"/>
    </contour>
  </outline>
</glyph>
<glyph name="LtnSmQHook" format="2">
  <advance width="1109"/>
  <unicode hex="02A0"/>
  <anchor x="222" y="-100" name="L"/>
  <anchor x="863" y="1540" name="U"/>
  <outline>
    <contour>
      <point x="395" y="-446" type="line"/>
      <point x="911" y="-446" type="line"/>
      <point x="911" y="-369" type="line"/>
      <point x="784" y="-358" type="line" smooth="yes"/>
      <point x="748" y="-355"/>
      <point x="739" y="-340"/>
      <point x="743" y="-317" type="curve" smooth="yes"/>
      <point x="989" y="943" type="line" smooth="yes"/>
      <point x="1026" y="1133"/>
      <point x="1047" y="1185"/>
      <point x="1091" y="1205" type="curve"/>
      <point x="1253" y="1095" type="line"/>
      <point x="1302" y="1103"/>
      <point x="1366" y="1138"/>
      <point x="1366" y="1207" type="curve" smooth="yes"/>
      <point x="1366" y="1265"/>
      <point x="1341" y="1330"/>
      <point x="1212" y="1330" type="curve" smooth="yes"/>
      <point x="977" y="1330"/>
      <point x="849" y="1167"/>
      <point x="813" y="961" type="curve"/>
      <point x="776" y="990"/>
      <point x="727" y="1012"/>
      <point x="641" y="1012" type="curve" smooth="yes"/>
      <point x="299" y="1012"/>
      <point x="66" y="662"/>
      <point x="66" y="346" type="curve" smooth="yes"/>
      <point x="66" y="102"/>
      <point x="184" y="-25"/>
      <point x="348" y="-25" type="curve" smooth="yes"/>
      <point x="444" y="-25"/>
      <point x="545" y="31"/>
      <point x="639" y="109" type="curve"/>
      <point x="555" y="-317" type="line" smooth="yes"/>
      <point x="550" y="-344"/>
      <point x="530" y="-355"/>
      <point x="504" y="-358" type="curve" smooth="yes"/>
      <point x="395" y="-369" type="line"/>
    </contour>
    <contour>
      <point x="430" y="100" type="curve" smooth="yes"/>
      <point x="328" y="100"/>
      <point x="264" y="199"/>
      <point x="264" y="354" type="curve" smooth="yes"/>
      <point x="264" y="674"/>
      <point x="444" y="918"/>
      <point x="668" y="918" type="curve" smooth="yes"/>
      <point x="698" y="918"/>
      <point x="778" y="825"/>
      <point x="772" y="795" type="curve" smooth="yes"/>
      <point x="662" y="231" type="line"/>
      <point x="600" y="168"/>
      <point x="514" y="100"/>
    </contour>
  </outline>
</glyph>
<glyph name="LtnSmDezhDigraph" format="2">
  <advance width="1587"/>
  <unicode hex="02A4"/>
  <anchor x="242" y="-100" name="L"/>
  <anchor x="1017" y="1580" name="U"/>
  <outline>
    <contour>
      <point x="1649" y="920" type="line"/>
      <point x="1548" y="1026" type="line"/>
      <point x="1511" y="981"/>
      <point x="1425" y="936"/>
      <point x="1319" y="936" type="curve" smooth="yes"/>
      <point x="1155" y="936"/>
      <point x="1147" y="999"/>
      <point x="995" y="999" type="curve"/>
      <point x="1083" y="1509" type="line"/>
      <point x="999" y="1509" type="line"/>
      <point x="682" y="1448" type="line"/>
      <point x="682" y="1386" type="line"/>
      <point x="868" y="1368" type="line"/>
      <point x="799" y="973" type="line"/>
      <point x="767" y="986"/>
      <point x="699" y="1012"/>
      <point x="645" y="1012" type="curve" smooth="yes"/>
      <point x="283" y="1012"/>
      <point x="66" y="668"/>
      <point x="66" y="342" type="curve" smooth="yes"/>
      <point x="66" y="170"/>
      <point x="129" y="-25"/>
      <point x="358" y="-25" type="curve" smooth="yes"/>
      <point x="442" y="-25"/>
      <point x="573" y="63"/>
      <point x="649" y="129" type="curve"/>
      <point x="625" y="0" type="line"/>
      <point x="707" y="0" type="line"/>
      <point x="768" y="129"/>
      <point x="889" y="299"/>
      <point x="993" y="299" type="curve" smooth="yes"/>
      <point x="1149" y="299"/>
      <point x="1255" y="168"/>
      <point x="1255" y="23" type="curve" smooth="yes"/>
      <point x="1255" y="-166"/>
      <point x="1077" y="-369"/>
      <point x="881" y="-369" type="curve" smooth="yes"/>
      <point x="825" y="-369"/>
      <point x="791" y="-356"/>
      <point x="737" y="-315" type="curve"/>
      <point x="680" y="-147" type="line"/>
      <point x="653" y="-131"/>
      <point x="618" y="-125"/>
      <point x="594" y="-125" type="curve" smooth="yes"/>
      <point x="516" y="-125"/>
      <point x="461" y="-186"/>
      <point x="461" y="-268" type="curve" smooth="yes"/>
      <point x="461" y="-426"/>
      <point x="666" y="-469"/>
      <point x="858" y="-469" type="curve" smooth="yes"/>
      <point x="1133" y="-469"/>
      <point x="1464" y="-283"/>
      <point x="1464" y="23" type="curve" smooth="yes"/>
      <point x="1464" y="256"/>
      <point x="1303" y="393"/>
      <point x="1090" y="403" type="curve"/>
    </contour>
    <contour>
      <point x="1391" y="823" type="curve"/>
      <point x="889" y="385" type="line"/>
      <point x="973" y="854" type="line"/>
      <point x="1065" y="854"/>
      <point x="1116" y="791"/>
      <point x="1204" y="791" type="curve" smooth="yes"/>
      <point x="1274" y="791"/>
      <point x="1317" y="797"/>
    </contour>
    <contour>
      <point x="770" y="807" type="curve"/>
      <point x="676" y="268" type="line"/>
      <point x="602" y="182"/>
      <point x="498" y="100"/>
      <point x="424" y="100" type="curve" smooth="yes"/>
      <point x="344" y="100"/>
      <point x="264" y="178"/>
      <point x="264" y="354" type="curve" smooth="yes"/>
      <point x="264" y="674"/>
      <point x="442" y="920"/>
      <point x="641" y="920" type="curve" smooth="yes"/>
      <point x="694" y="920"/>
      <point x="770" y="822"/>
    </contour>
  </outline>
</glyph>
